<svg width="15" height="20" viewBox="0 0 15 20" fill="none" xmlns="http://www.w3.org/2000/svg">
<path fill-rule="evenodd" clip-rule="evenodd" d="M7.48392 0C7.64364 0 8.02078 0.0355379 8.32692 0.0799603C8.63307 0.128825 9.09007 0.235439 9.34741 0.319841C9.60475 0.404244 9.94195 0.537511 10.1017 0.617471C10.2614 0.697431 10.5498 0.866236 10.745 0.995061C10.9402 1.12389 11.2508 1.35488 11.4327 1.5148C11.6147 1.67028 11.9031 1.96791 12.0672 2.17225C12.2358 2.38104 12.4665 2.70977 12.5819 2.90522C12.6928 3.10068 12.8525 3.40275 12.928 3.57156C13.0078 3.74036 13.1232 4.06021 13.1853 4.28232C13.2474 4.49999 13.3317 4.88202 13.3672 5.12634C13.416 5.41509 13.4293 5.73493 13.416 6.037C13.4027 6.29909 13.3539 6.6678 13.2962 6.88103C13.243 7.08981 13.1188 7.4674 13.0211 7.72505C12.9191 7.9827 12.7061 8.44914 12.542 8.76898C12.3822 9.08882 12.1205 9.55525 11.9652 9.8129C11.8143 10.0706 11.486 10.577 11.242 10.9457C10.9979 11.3099 10.5143 11.994 10.1682 12.456C9.82215 12.918 9.30304 13.5888 9.01908 13.9442C8.73068 14.2996 8.27368 14.846 7.99859 15.1569C7.53272 15.6944 7.50166 15.7211 7.43955 15.6367C7.40405 15.5923 7.14228 15.2857 6.85831 14.9615C6.57435 14.6327 6.13067 14.0952 5.86445 13.7665C5.59824 13.4378 5.12793 12.8292 4.82178 12.4116C4.5112 11.994 4.06308 11.3677 3.82349 11.0123C3.58833 10.6569 3.23338 10.1017 3.04259 9.77737C2.84737 9.45753 2.57672 8.95555 2.4303 8.66681C2.28832 8.3825 2.09754 7.95605 2.00436 7.72505C1.91119 7.49406 1.79139 7.12091 1.73815 6.90324C1.68047 6.68557 1.62279 6.3524 1.60504 6.17027C1.5873 5.98814 1.59617 5.62832 1.62279 5.37067C1.65385 5.11302 1.71597 4.74431 1.76477 4.54885C1.81358 4.35339 1.92006 4.01134 2.00436 3.79367C2.08866 3.57156 2.24839 3.23395 2.35931 3.03849C2.47467 2.84303 2.6699 2.54096 2.79857 2.37216C2.92724 2.20335 3.17126 1.92349 3.33987 1.75468C3.50847 1.58588 3.78799 1.346 3.95659 1.21717C4.12519 1.09279 4.40915 0.906217 4.57776 0.804045C4.74636 0.701874 5.05694 0.550838 5.26547 0.466435C5.47401 0.382033 5.81121 0.270977 6.01974 0.21767C6.22828 0.164363 6.57879 0.0977292 6.7962 0.0666336C7.01361 0.0310957 7.32419 0.00444224 7.48392 0V0ZM6.39688 2.71421C6.25046 2.77196 6.01974 2.8919 5.88664 2.98074C5.75353 3.06959 5.51394 3.27837 5.35421 3.44718C5.17674 3.63375 4.99926 3.87807 4.89721 4.08242C4.80404 4.26455 4.70199 4.52664 4.66649 4.65991C4.631 4.79318 4.58663 5.06415 4.57332 5.25961C4.55114 5.51282 4.56445 5.7216 4.61769 5.99258C4.65762 6.20136 4.76411 6.52121 4.84841 6.70334C4.93714 6.88547 5.10131 7.15645 5.2211 7.30304C5.33646 7.44963 5.54056 7.64953 5.66923 7.75171C5.80234 7.84944 5.97981 7.97382 6.06411 8.02268C6.14841 8.07599 6.37026 8.16928 6.55217 8.23591C6.80064 8.32475 7.0003 8.36029 7.35081 8.3825C7.7102 8.40027 7.89211 8.38695 8.14945 8.3292C8.33136 8.28477 8.61976 8.1826 8.7928 8.10264C8.96584 8.01824 9.21874 7.85832 9.36072 7.74726C9.49826 7.63621 9.70236 7.43187 9.81328 7.28971C9.9242 7.152 10.0884 6.88547 10.1771 6.70334C10.2614 6.52121 10.359 6.24134 10.3945 6.08142C10.43 5.9215 10.4566 5.63276 10.4566 5.4373C10.4566 5.23296 10.4211 4.93977 10.3723 4.74875C10.328 4.56662 10.2259 4.28676 10.146 4.12684C10.0662 3.96692 9.91533 3.72704 9.81328 3.59377C9.71123 3.4605 9.49826 3.25172 9.34297 3.13178C9.18768 3.01184 8.92147 2.84747 8.74843 2.76751C8.57539 2.68755 8.28256 2.59427 8.09177 2.55429C7.90542 2.51431 7.6259 2.48321 7.47504 2.48765C7.31975 2.48765 7.07572 2.51431 6.92931 2.54984C6.78289 2.58094 6.5433 2.65202 6.39688 2.71421ZM4.97708 13.5044C5.02588 13.5 5.10575 13.5355 5.15455 13.5888C5.22998 13.6599 5.22998 13.6821 5.17674 13.6954C5.14124 13.7087 4.7996 13.7709 4.42247 13.8331C4.04533 13.8953 3.51734 14.0064 3.24669 14.0819C2.97604 14.153 2.61665 14.2685 2.44805 14.3307C2.27945 14.3929 1.95999 14.535 1.73815 14.6505C1.50743 14.7704 1.25453 14.9437 1.1303 15.0636C1.01494 15.1836 0.886268 15.3479 0.850773 15.4323C0.815278 15.5167 0.784219 15.6367 0.784219 15.6989C0.784219 15.7611 0.815278 15.881 0.850773 15.9654C0.886268 16.0498 1.00163 16.2008 1.10811 16.303C1.21016 16.4052 1.40538 16.5518 1.53849 16.6317C1.6716 16.7161 1.98218 16.8583 2.22621 16.956C2.47024 17.0538 2.86068 17.1826 3.0914 17.2448C3.32212 17.307 3.72144 17.4002 3.97878 17.4491C4.23612 17.498 4.67537 17.5691 4.95489 17.6046C5.23442 17.6446 5.84671 17.6934 6.30814 17.7245C6.80507 17.7556 7.53272 17.7645 8.0829 17.7467C8.59757 17.729 9.30304 17.689 9.65799 17.6535C10.0129 17.6135 10.572 17.5335 10.9003 17.4713C11.2286 17.4091 11.7123 17.3025 11.9785 17.2314C12.2403 17.1559 12.6085 17.036 12.7949 16.9605C12.9857 16.8849 13.2607 16.7561 13.4072 16.6762C13.5536 16.5962 13.7621 16.4496 13.8686 16.3563C13.9751 16.263 14.0993 16.112 14.1437 16.0187C14.1925 15.9299 14.228 15.7833 14.228 15.6989C14.228 15.6145 14.188 15.4679 14.1437 15.3746C14.0949 15.2857 13.9928 15.148 13.9085 15.0725C13.8287 14.997 13.7 14.8948 13.629 14.8415C13.558 14.7927 13.3362 14.6727 13.1409 14.575C12.9457 14.4773 12.5775 14.3262 12.3201 14.2418C12.0628 14.1574 11.6235 14.033 11.344 13.9708C11.0645 13.9086 10.6075 13.8242 10.3324 13.7798C10.0617 13.7354 9.83547 13.6777 9.83103 13.6554C9.83103 13.6288 9.85765 13.5844 9.88871 13.5577C9.93308 13.5133 10.0662 13.5088 10.4788 13.5444C10.7716 13.571 11.2286 13.6243 11.4993 13.6599C11.7699 13.6999 12.1693 13.7665 12.3867 13.8109C12.6041 13.8598 12.9147 13.9353 13.0744 13.9797C13.2341 14.0286 13.5003 14.1219 13.6734 14.1974C13.8464 14.2685 14.1037 14.4062 14.2502 14.5039C14.3966 14.6061 14.5785 14.7616 14.6584 14.8593C14.7338 14.9526 14.8447 15.1303 14.898 15.2546C14.9734 15.4235 15 15.5612 15 15.8099C15 16.0898 14.9823 16.1875 14.8669 16.4318C14.7826 16.614 14.6184 16.8405 14.4232 17.0493C14.2546 17.227 13.9662 17.4758 13.7843 17.5957C13.6024 17.7201 13.2341 17.9244 12.9635 18.0533C12.6928 18.1821 12.2935 18.3509 12.0761 18.4308C11.8587 18.5064 11.4594 18.6263 11.1887 18.6974C10.9181 18.7685 10.4123 18.8795 10.0573 18.9417C9.70236 19.0039 8.97471 19.0883 8.43785 19.1283C7.52385 19.1994 7.40405 19.1994 6.55217 19.1283C6.0508 19.0883 5.36309 19.0039 5.02144 18.9461C4.6798 18.8884 4.20062 18.7907 3.95659 18.7285C3.71256 18.6618 3.30437 18.5419 3.04703 18.4531C2.78969 18.3642 2.30163 18.1554 1.95999 17.9866C1.56067 17.7912 1.21016 17.5779 0.975006 17.3869C0.770909 17.227 0.531317 16.9916 0.433706 16.8627C0.340531 16.7384 0.220735 16.5518 0.171929 16.4541C0.12756 16.3563 0.0610072 16.1653 0.029949 16.032C-0.00998299 15.8366 -0.00998299 15.7433 0.029949 15.5656C0.0610072 15.4412 0.131997 15.2546 0.18524 15.1436C0.238483 15.0325 0.402647 14.8371 0.544628 14.7038C0.704355 14.5572 0.957258 14.3929 1.20572 14.2729C1.42757 14.1663 1.81358 14.0241 2.07092 13.9531C2.32826 13.882 2.79413 13.7798 3.11358 13.7265C3.43304 13.6732 3.96103 13.6021 4.28936 13.571C4.61769 13.5355 4.92827 13.5088 4.97708 13.5044Z" fill="url(#paint0_linear_3_10958)"/>
<defs>
<linearGradient id="paint0_linear_3_10958" x1="-2.51825" y1="6.84872" x2="9.38479" y2="21.6837" gradientUnits="userSpaceOnUse">
<stop stop-color="#FFD86E"/>
<stop offset="0.00222354" stop-color="#FDD56C"/>
<stop offset="0.0335753" stop-color="#DFB04C"/>
<stop offset="0.0663694" stop-color="#C89637"/>
<stop offset="0.1008" stop-color="#BA842A"/>
<stop offset="0.138" stop-color="#B17A24"/>
<stop offset="0.1829" stop-color="#AF7722"/>
<stop offset="0.2911" stop-color="#C9973C"/>
<stop offset="0.4194" stop-color="#E6BC5F"/>
<stop offset="0.4902" stop-color="#F2CB6D"/>
<stop offset="0.5472" stop-color="#EBC365"/>
<stop offset="0.6297" stop-color="#D9AC4F"/>
<stop offset="0.7272" stop-color="#BE8A31"/>
<stop offset="0.778" stop-color="#AF7722"/>
<stop offset="0.8199" stop-color="#B37C25"/>
<stop offset="0.820843" stop-color="#FFD86E"/>
<stop offset="0.8709" stop-color="#BF8A2F"/>
<stop offset="0.9265" stop-color="#D5A443"/>
<stop offset="0.9851" stop-color="#F6CC64"/>
</linearGradient>
</defs>
</svg>
