<svg width="21" height="19" viewBox="0 0 21 19" fill="none" xmlns="http://www.w3.org/2000/svg">
<path d="M0.749714 4.30301C0.747435 4.29503 0.736041 4.28819 0.723508 4.28705C0.710975 4.28477 0.692744 4.28705 0.683629 4.29047C0.674514 4.29389 0.663121 4.30187 0.658563 4.3087C0.651727 4.31782 0.649448 4.31782 0.649448 4.30756C0.648309 4.30073 0.638054 4.29731 0.625521 4.30073C0.612988 4.30415 0.602733 4.31098 0.602733 4.31668C0.603873 4.32238 0.620963 4.3258 0.640333 4.32352C0.660842 4.32124 0.685908 4.31554 0.695023 4.3087C0.707556 4.30187 0.709835 4.30187 0.702999 4.31326C0.698441 4.3201 0.699581 4.32694 0.704138 4.32694C0.708696 4.32694 0.72009 4.3201 0.728065 4.31326C0.740599 4.30073 0.741738 4.30187 0.733762 4.31554C0.726926 4.32808 0.728065 4.33036 0.73832 4.32466C0.745156 4.31896 0.750853 4.30984 0.749714 4.30301Z" fill="url(#paint0_linear_3_10963)"/>
<path d="M0.429547 4.39304C0.432965 4.38734 0.434105 4.38392 0.431826 4.38392C0.428408 4.38392 0.414735 4.39418 0.401063 4.40671C0.38739 4.41925 0.374857 4.42723 0.373717 4.42381C0.371439 4.42153 0.363463 4.42951 0.356627 4.4409C0.344093 4.46142 0.344093 4.4637 0.363463 4.46142C0.375996 4.45914 0.385111 4.45344 0.383972 4.4466C0.382832 4.4409 0.38739 4.43634 0.395366 4.4352C0.402202 4.4352 0.412456 4.43179 0.418153 4.42723C0.422711 4.42153 0.434105 4.42381 0.44208 4.42951C0.448917 4.43634 0.453474 4.44432 0.451195 4.45002C0.448917 4.45458 0.454614 4.458 0.466007 4.458C0.476262 4.45686 0.485377 4.45344 0.487656 4.44888C0.488795 4.44432 0.489934 4.4352 0.489934 4.42951C0.489934 4.42381 0.484237 4.42039 0.478541 4.42381C0.472844 4.42723 0.456892 4.42267 0.444359 4.41583C0.431826 4.40785 0.42499 4.3976 0.429547 4.39304Z" fill="url(#paint1_linear_3_10963)"/>
<path d="M0.133308 4.73037C0.132168 4.71784 0.125332 4.70758 0.117356 4.70758C0.11052 4.70872 0.107102 4.71214 0.109381 4.71784C0.111659 4.7224 0.104823 4.7281 0.0945687 4.73151C0.0831749 4.73493 0.077478 4.74177 0.0820355 4.74633C0.0865931 4.75089 0.0991263 4.74633 0.108241 4.73721C0.124193 4.7224 0.126471 4.7224 0.126471 4.73721C0.126471 4.74633 0.115078 4.7657 0.102544 4.78052C0.0900112 4.7942 0.0706417 4.80559 0.0603873 4.80559C0.0489934 4.80559 0.0444359 4.80901 0.0489934 4.81357C0.0546904 4.81813 0.0740599 4.82383 0.09229 4.82611C0.111659 4.82724 0.123053 4.82383 0.119635 4.81699C0.116217 4.81129 0.107102 4.80901 0.100266 4.81243C0.09229 4.81585 0.0957081 4.81015 0.108241 4.80103C0.120775 4.79078 0.125332 4.7828 0.119635 4.7828C0.112799 4.78394 0.113938 4.7771 0.121914 4.76912C0.12875 4.76115 0.134447 4.74405 0.133308 4.73037Z" fill="url(#paint2_linear_3_10963)"/>
<path d="M0.0330421 4.89107C0.038739 4.87511 0.0410178 4.86257 0.038739 4.86257C0.0353209 4.86257 0.0284846 4.87511 0.0227876 4.89107C0.0159514 4.90702 0.0136726 4.92753 0.0170907 4.93665C0.0205089 4.94577 0.0170907 4.95375 0.0113938 4.95375C0.00569691 4.95375 0 4.96286 0 4.97426C0.00113938 4.99135 0.00227877 4.99135 0.0182301 4.97084C0.0273452 4.9583 0.0319027 4.94121 0.0284846 4.93437C0.0250664 4.92639 0.0273452 4.90702 0.0330421 4.89107Z" fill="url(#paint3_linear_3_10963)"/>
<path d="M10.8116 15.6699C10.8173 15.6585 10.8184 15.6437 10.8139 15.6368C10.807 15.6289 10.7808 15.6323 10.7261 15.6482C10.6487 15.671 10.6293 15.671 8.39246 15.6722L8.38927 15.6722C7.14621 15.6722 6.12988 15.6756 6.12988 15.6813C6.12988 15.6858 6.12418 15.687 6.11848 15.6836C6.11165 15.6801 6.11279 15.6881 6.11962 15.7041C6.12646 15.7178 6.14127 15.7394 6.15153 15.7508C6.16178 15.7633 6.16292 15.769 6.15494 15.7656C6.14811 15.7611 6.15153 15.7747 6.16406 15.7952C6.17659 15.8146 6.18912 15.8397 6.19368 15.8488C6.1971 15.8579 6.20736 15.8796 6.21647 15.8978C6.22672 15.9172 6.22786 15.9309 6.22103 15.9343C6.21419 15.9377 6.21761 15.9457 6.229 15.9548C6.2404 15.9628 6.24382 15.9765 6.2404 15.989C6.2347 16.0027 6.23698 16.0072 6.24951 16.0027C6.25977 15.9992 6.2723 16.0084 6.28028 16.0289C6.28825 16.046 6.29964 16.0631 6.30648 16.0665C6.31408 16.0718 6.31408 16.0794 6.30648 16.0893C6.29851 16.1007 6.29964 16.103 6.3099 16.0973C6.31901 16.0904 6.32357 16.0961 6.32357 16.1144V16.1394C9.42155 16.1394 10.1359 16.1349 10.1314 16.1292C10.1268 16.1223 10.1416 16.1212 10.169 16.1257C10.2009 16.1314 10.2214 16.1292 10.2374 16.1189C10.2499 16.1098 10.275 16.0984 10.2943 16.0938C10.3137 16.0881 10.3342 16.0836 10.3399 16.0836C10.3456 16.0824 10.3581 16.0756 10.3661 16.0688C10.3741 16.0608 10.3934 16.054 10.4094 16.054C10.4242 16.054 10.439 16.046 10.4424 16.0369C10.4459 16.0255 10.455 16.022 10.4675 16.0277C10.48 16.0312 10.4846 16.03 10.48 16.0243C10.4743 16.0186 10.4812 16.0072 10.4937 16.0004C10.5062 15.9924 10.5222 15.9879 10.5279 15.9913C10.5336 15.9947 10.5393 15.989 10.5393 15.9799C10.5393 15.9708 10.5427 15.9639 10.5473 15.9639C10.553 15.9651 10.5632 15.9651 10.5701 15.9639C10.578 15.9639 10.5837 15.9594 10.5826 15.9548C10.5814 15.9491 10.6122 15.9149 10.6509 15.8773C10.6897 15.8397 10.7216 15.8055 10.7216 15.8009C10.7216 15.7952 10.7307 15.7816 10.741 15.7702C10.7524 15.7576 10.7683 15.7394 10.7751 15.7303C10.7831 15.72 10.7877 15.7064 10.7843 15.7007C10.7808 15.695 10.7843 15.6893 10.79 15.6893C10.7956 15.6893 10.8059 15.6801 10.8116 15.6699Z" fill="url(#paint4_linear_3_10963)"/>
<path d="M10.7123 3.82127C10.6735 3.81101 10.3557 3.80645 9.39857 3.80075C8.70469 3.79733 8.13728 3.79847 8.13728 3.80417C8.13728 3.80873 8.1407 3.81215 8.14525 3.81215C8.15095 3.81215 8.15551 3.82924 8.15665 3.84976C8.15779 3.86913 8.17146 3.92953 8.18855 3.9831C8.20564 4.03666 8.23526 4.12213 8.25463 4.17456L8.29109 4.26915C9.26185 4.26915 9.67544 4.27143 9.83496 4.27485C9.99447 4.27713 10.1585 4.2851 10.1996 4.29194C10.2406 4.29878 10.3101 4.31815 10.3534 4.33525C10.3967 4.3512 10.4696 4.38995 10.5129 4.41958C10.5562 4.44807 10.6132 4.49252 10.6382 4.51531C10.6633 4.53925 10.7032 4.58141 10.726 4.6099C10.7487 4.6384 10.7852 4.69424 10.8069 4.73527C10.8285 4.77629 10.8581 4.84467 10.8707 4.88912C10.8843 4.93356 10.9003 5.00992 10.906 5.06007C10.9117 5.11021 10.9174 5.38031 10.9174 5.66066V6.17123C11.0541 6.18262 11.1555 6.18262 11.2307 6.1792C11.3253 6.17465 11.3697 6.16781 11.3743 6.15755C11.38 6.14615 11.3834 6.14615 11.3857 6.15755C11.3879 6.16439 11.3891 5.81338 11.3879 5.37689C11.3845 4.62358 11.3834 4.57571 11.3617 4.47884C11.3492 4.42186 11.3173 4.33525 11.2934 4.2851C11.2683 4.23496 11.2204 4.16088 11.1874 4.11985C11.1544 4.07883 11.0917 4.01842 11.0484 3.98537C11.004 3.95232 10.9481 3.91472 10.9231 3.90218C10.898 3.8885 10.8513 3.86799 10.8205 3.85659C10.7886 3.8452 10.7408 3.82924 10.7123 3.82127Z" fill="url(#paint5_linear_3_10963)"/>
<path d="M11.1452 7.11714H10.9174V10.7435C10.9162 12.739 10.9151 14.5989 10.9128 14.8782C10.9094 15.2941 10.906 15.399 10.8912 15.4594C10.8809 15.5004 10.8695 15.5437 10.8661 15.5563C10.8615 15.5733 10.865 15.579 10.8798 15.5802C10.8912 15.5813 10.9288 15.5654 10.9629 15.546C10.9971 15.5266 11.0587 15.4799 11.0985 15.4423C11.1384 15.4047 11.192 15.3454 11.217 15.3112C11.2432 15.277 11.2808 15.2121 11.3013 15.1688C11.3219 15.1255 11.3481 15.0582 11.3583 15.0206C11.3765 14.9568 11.3788 14.6742 11.3845 11.0421C11.3891 7.56844 11.3879 7.13195 11.3731 7.13879C11.3617 7.14335 11.3587 7.14069 11.364 7.13081C11.3708 7.12056 11.323 7.11714 11.1452 7.11714Z" fill="url(#paint6_linear_3_10963)"/>
<path d="M10.8034 15.6987C10.8034 15.693 10.7977 15.6873 10.7909 15.6873C10.7829 15.6873 10.7806 15.693 10.7852 15.6987C10.7886 15.7055 10.7852 15.7192 10.7772 15.7283C10.7693 15.7386 10.7544 15.7568 10.743 15.7682C10.7317 15.7808 10.7237 15.7944 10.7225 15.799C10.7225 15.8036 10.6906 15.8389 10.6519 15.8754C10.6132 15.913 10.5824 15.9483 10.5847 15.9529C10.5858 15.9574 10.5801 15.962 10.5721 15.9631H10.5494C10.5448 15.962 10.5414 15.9688 10.5414 15.9779C10.5414 15.9882 10.5448 15.995 10.5494 15.995C10.5539 15.995 10.579 15.9768 10.604 15.954C10.6291 15.9312 10.6496 15.9073 10.6496 15.9004C10.6496 15.8936 10.6553 15.8868 10.6621 15.8868C10.669 15.8868 10.6906 15.8697 10.71 15.8469C10.7294 15.8252 10.7487 15.799 10.751 15.7876C10.7544 15.7762 10.7613 15.7682 10.7658 15.7682C10.7704 15.7682 10.7806 15.7557 10.7886 15.7397C10.7966 15.7238 10.8034 15.7055 10.8034 15.6987Z" fill="url(#paint7_linear_3_10963)"/>
<path d="M6.16387 15.783C6.16159 15.7694 6.15247 15.7511 6.14336 15.7432C6.12969 15.7295 6.12855 15.7306 6.14108 15.7477C6.14905 15.7603 6.15019 15.7694 6.14336 15.7728C6.13652 15.7762 6.12855 15.7728 6.12627 15.7648C6.12285 15.7568 6.12171 15.758 6.12399 15.7671C6.12627 15.7773 6.13424 15.783 6.14108 15.7819C6.14905 15.7808 6.15475 15.7876 6.15361 15.799C6.15361 15.8104 6.16273 15.8321 6.17412 15.8469C6.18551 15.8628 6.18779 15.8719 6.17982 15.8674C6.1707 15.8621 6.16804 15.8647 6.17184 15.8754C6.17412 15.8856 6.1821 15.8902 6.18893 15.8868C6.19463 15.8845 6.20488 15.8902 6.21058 15.9016C6.21742 15.913 6.21856 15.9266 6.214 15.9323C6.20944 15.938 6.21172 15.9392 6.2197 15.9346C6.23109 15.9289 6.22995 15.9209 6.21742 15.8982C6.20716 15.8833 6.19919 15.864 6.19919 15.856C6.19919 15.848 6.19235 15.8343 6.18324 15.8241C6.17412 15.815 6.16501 15.7967 6.16387 15.783Z" fill="url(#paint8_linear_3_10963)"/>
<path d="M10.53 15.9984C10.53 15.9905 10.5254 15.9848 10.5209 15.9848C10.5163 15.9848 10.5038 15.9916 10.4924 15.9984C10.4821 16.0064 10.4764 16.0178 10.481 16.0235C10.4855 16.0292 10.481 16.0304 10.4696 16.0258C10.4582 16.0212 10.4502 16.0235 10.4502 16.0292C10.4502 16.036 10.4548 16.0406 10.4616 16.0406C10.4673 16.0406 10.4855 16.0349 10.5015 16.0269C10.5174 16.019 10.53 16.0064 10.53 15.9984Z" fill="url(#paint9_linear_3_10963)"/>
<path d="M10.3477 16.0919C10.3477 16.0828 10.3431 16.0759 10.3386 16.0771C10.334 16.0771 10.3135 16.0839 10.2941 16.0908C10.2736 16.0976 10.2508 16.1101 10.2429 16.1181C10.2326 16.1284 10.2326 16.1318 10.2429 16.1318C10.2497 16.1318 10.2565 16.1272 10.2565 16.1204C10.2565 16.1147 10.2611 16.1124 10.2679 16.1147C10.2736 16.1181 10.2941 16.1181 10.3135 16.1147C10.3329 16.1124 10.3477 16.1021 10.3477 16.0919Z" fill="url(#paint10_linear_3_10963)"/>
<path d="M10.0685 16.1432C10.0719 16.1363 9.44757 16.1329 8.20792 16.1329C7.02296 16.1329 6.33591 16.1363 6.32566 16.1432C6.31427 16.1512 6.96941 16.1546 8.18513 16.1546C9.42592 16.1546 10.064 16.1512 10.0685 16.1432Z" fill="url(#paint11_linear_3_10963)"/>
<path d="M10.4317 14.2524C10.4351 14.1304 10.4351 14.0176 10.4329 14.0016C10.4294 13.98 10.4249 13.988 10.4146 14.0358C10.4067 14.07 10.3839 14.1373 10.3645 14.184C10.3463 14.2307 10.3087 14.3025 10.2813 14.3435C10.2551 14.3846 10.205 14.4438 10.1719 14.4757C10.1378 14.5076 10.0819 14.5521 10.0477 14.5737C10.0136 14.5954 9.96343 14.625 9.93723 14.6387C9.90988 14.6512 9.84494 14.6752 9.79139 14.6911L9.69454 14.7196H5.81494C5.81494 14.7641 5.81836 14.7766 5.82406 14.7766C5.82861 14.7766 5.82861 14.7937 5.8252 14.8131C5.82178 14.8336 5.82292 14.845 5.82861 14.837C5.83431 14.829 5.84343 14.8507 5.85254 14.894C5.86166 14.9327 5.87647 14.9795 5.88672 14.9988C5.90381 15.0319 5.90267 15.033 5.88216 15.0159C5.86166 15 5.86166 15 5.87875 15.0216C5.889 15.0342 5.9004 15.0524 5.90381 15.0615C5.90723 15.0706 5.90381 15.0855 5.89698 15.0946C5.88558 15.1071 5.88672 15.1082 5.9004 15.1003C5.91293 15.0923 5.91521 15.0946 5.90837 15.1162C5.90267 15.1345 5.90381 15.139 5.91407 15.1333C5.92432 15.1265 5.92546 15.1322 5.91976 15.1561C5.91521 15.1755 5.91635 15.1846 5.92318 15.1812C5.92888 15.1778 5.93572 15.18 5.93799 15.1869C5.93913 15.1937 6.60567 15.1994 7.83051 15.2006C8.87077 15.2028 9.70707 15.2006 9.6877 15.1971C9.6558 15.1903 9.6558 15.1892 9.68314 15.1869C9.6991 15.1846 9.71961 15.1835 9.72872 15.1846C9.73784 15.1857 9.75607 15.1812 9.7686 15.1755C9.78113 15.1698 9.8119 15.1595 9.83696 15.1516C9.86203 15.1447 9.90874 15.1253 9.93951 15.1094C9.97141 15.0946 10.0193 15.0661 10.0477 15.0467C10.0762 15.0273 10.1298 14.9829 10.1662 14.9487C10.2027 14.9134 10.2574 14.8484 10.2859 14.8051C10.3155 14.7618 10.3531 14.6889 10.3691 14.6455C10.3861 14.6022 10.4055 14.5453 10.4123 14.5202C10.4203 14.4951 10.4283 14.3743 10.4317 14.2524Z" fill="url(#paint12_linear_3_10963)"/>
<path d="M9.9306 4.28093L9.71411 4.28207L9.82236 4.31739C9.8816 4.33791 9.94541 4.36298 9.96478 4.37324C9.98415 4.38349 10.0161 4.40173 10.0366 4.41312C10.0571 4.42452 10.073 4.43706 10.073 4.44162C10.073 4.44731 10.0799 4.45073 10.0867 4.45073C10.0947 4.45187 10.1345 4.48606 10.1744 4.52823C10.2143 4.5704 10.2701 4.63992 10.2986 4.68436C10.326 4.72767 10.3544 4.77553 10.359 4.78921C10.3647 4.80403 10.375 4.8291 10.3829 4.84619C10.3898 4.86443 10.3977 4.88836 10.4 4.9009C10.4023 4.91343 10.4103 4.9442 10.4171 4.96927C10.4251 4.99435 10.4308 5.03537 10.4319 5.06045C10.4331 5.08552 10.4342 5.33054 10.4353 5.60406L10.4376 6.10323C10.6359 6.13742 10.7339 6.15337 10.7817 6.16021C10.8307 6.16591 10.8786 6.17161 10.8877 6.17161C10.8991 6.17161 10.9029 6.16401 10.8991 6.14881C10.8957 6.13514 10.8991 6.12602 10.907 6.12602C10.9162 6.12602 10.9173 6.1226 10.9105 6.1169C10.9036 6.11234 10.8991 5.90721 10.8991 5.5448C10.8991 5.23481 10.8945 4.97041 10.8888 4.95788C10.8831 4.94534 10.8774 4.92711 10.8763 4.91799C10.8751 4.90887 10.8683 4.88038 10.8592 4.85531C10.8512 4.83024 10.8262 4.77667 10.8045 4.73565C10.784 4.69462 10.7521 4.64561 10.735 4.62624C10.719 4.60687 10.6974 4.58293 10.6883 4.57268C10.6792 4.56242 10.6416 4.52481 10.6051 4.49062C10.5698 4.45643 10.5322 4.42794 10.5231 4.42794C10.514 4.42794 10.5048 4.42338 10.5026 4.41768C10.5014 4.41199 10.4627 4.38919 10.4171 4.3664C10.3727 4.34361 10.2929 4.31511 10.2416 4.30258C10.163 4.28434 10.1095 4.27979 9.9306 4.28093Z" fill="url(#paint13_linear_3_10963)"/>
<path d="M10.6746 7.11866H10.4376L10.4365 10.5114C10.4365 12.3781 10.4353 14.0329 10.4331 14.1902C10.4308 14.3748 10.4251 14.4911 10.416 14.5207C10.408 14.5458 10.3886 14.6016 10.3715 14.6461C10.3556 14.6894 10.318 14.7612 10.2884 14.8056C10.2599 14.8489 10.2052 14.9139 10.1687 14.9481C10.1323 14.9834 10.0787 15.0278 10.0502 15.0461C10.0217 15.0654 9.97275 15.0939 9.94199 15.1099C9.91009 15.1258 9.86223 15.1452 9.83375 15.1532C9.80526 15.1612 9.77564 15.1726 9.76766 15.1771C9.76083 15.1828 9.74716 15.1851 9.73918 15.1817C9.73234 15.1794 9.7107 15.1817 9.69133 15.1874C9.66968 15.1942 9.75399 15.1965 9.9249 15.1942L9.92591 15.1942C10.1904 15.1908 10.1939 15.1908 10.3009 15.1555C10.3601 15.135 10.4422 15.0985 10.4832 15.0734C10.5242 15.0484 10.588 15.0005 10.6245 14.9674C10.6621 14.9344 10.7134 14.8774 10.7407 14.8398C10.7669 14.8022 10.8045 14.7372 10.8239 14.6973C10.8432 14.6563 10.8694 14.5857 10.882 14.5401C10.9048 14.458 10.9048 14.4307 10.9048 10.8111C10.9048 8.80534 10.907 7.15854 10.9105 7.15285C10.9139 7.14601 10.907 7.14145 10.8968 7.14145C10.8797 7.14031 10.8786 7.13917 10.8934 7.13005C10.9048 7.12208 10.8307 7.11866 10.6746 7.11866Z" fill="url(#paint14_linear_3_10963)"/>
<path d="M11.549 0.0236665C11.4738 0.0134096 11.3199 0.00315274 11.2071 0.000873437C11.0943 -0.00140587 10.9508 0.000873436 10.8881 0.00657169C10.8254 0.0122699 10.7229 0.0248061 10.6602 0.035063C10.5976 0.0453198 10.4848 0.0681129 10.4096 0.0863473C10.3344 0.104582 10.2125 0.139911 10.1395 0.166123C10.0655 0.191195 9.9504 0.236781 9.88318 0.266412C9.81482 0.296043 9.70658 0.351886 9.64049 0.388355C9.57441 0.425963 9.48212 0.481806 9.4354 0.513717C9.38755 0.544487 9.29298 0.614006 9.22576 0.667569C9.15739 0.721133 9.04232 0.823702 8.9694 0.8955C8.89647 0.967298 8.79621 1.07784 8.74608 1.14052C8.69594 1.20321 8.62074 1.30577 8.57859 1.36846C8.53757 1.43114 8.47149 1.5394 8.43389 1.60778C8.39515 1.67616 8.33932 1.79241 8.30855 1.8642C8.27779 1.936 8.23677 2.04427 8.2174 2.10353C8.19689 2.16279 8.16841 2.2608 8.1536 2.32006C8.13879 2.37933 8.116 2.48759 8.10346 2.55939C8.09093 2.63119 8.07498 2.74971 8.06814 2.82151C8.06245 2.89331 8.05675 3.01411 8.05675 3.08933C8.05675 3.16455 8.06245 3.28535 8.06814 3.35715C8.07498 3.42894 8.09093 3.54975 8.1046 3.62496C8.11714 3.70018 8.13195 3.77084 8.13765 3.78224C8.14676 3.80047 8.2174 3.80161 9.37274 3.80161C10.4289 3.80161 10.609 3.80389 10.6796 3.81871C10.7252 3.82896 10.7878 3.84606 10.8198 3.85745C10.8505 3.86885 10.8972 3.88936 10.9223 3.90304C10.9474 3.91558 11.0032 3.95318 11.0476 3.98623C11.0909 4.01928 11.1536 4.07969 11.1866 4.12071C11.2197 4.16174 11.2675 4.23582 11.2926 4.28596C11.3165 4.33611 11.3484 4.42272 11.361 4.4797C11.3837 4.57885 11.3837 4.60962 11.3815 5.37661C11.3792 5.8131 11.3815 6.16411 11.3849 6.15727C11.3906 6.14701 11.394 6.14815 11.3963 6.15841C11.3997 6.17095 11.4259 6.17095 11.5433 6.15499C11.6219 6.14473 11.7347 6.1265 11.7939 6.11396C11.8532 6.10143 11.9626 6.07294 12.0355 6.05128C12.1095 6.02963 12.2212 5.99202 12.2839 5.96695C12.3465 5.94188 12.4593 5.89059 12.5345 5.85298C12.6097 5.81537 12.7191 5.75497 12.7761 5.71964C12.8342 5.68318 12.9436 5.60796 13.0188 5.55211C13.1008 5.49057 13.2261 5.37889 13.3321 5.2729C13.4301 5.17489 13.5486 5.04383 13.5964 4.98115C13.6431 4.91847 13.7172 4.81362 13.7582 4.74752C13.8004 4.68142 13.8642 4.5686 13.9018 4.4968C13.9382 4.425 13.9861 4.32243 14.0077 4.26887C14.0294 4.2153 14.0659 4.11501 14.0886 4.04664C14.1103 3.97826 14.1399 3.87797 14.1524 3.8244C14.165 3.77084 14.1855 3.66599 14.198 3.59078C14.2106 3.51556 14.2265 3.37196 14.2333 3.27167C14.2425 3.13947 14.2425 3.03918 14.2333 2.90698C14.2265 2.80669 14.2128 2.67336 14.2026 2.61068C14.1923 2.54799 14.1718 2.44315 14.157 2.37705C14.1422 2.31095 14.1114 2.2004 14.0886 2.13202C14.0659 2.06364 14.0294 1.96335 14.0077 1.90979C13.9861 1.85623 13.9382 1.75366 13.9018 1.68186C13.8642 1.61006 13.8061 1.50521 13.7708 1.44823C13.7354 1.39125 13.6625 1.2864 13.6078 1.2146C13.552 1.14052 13.4335 1.00719 13.3321 0.906896C13.2352 0.808886 13.1042 0.690362 13.0415 0.643637C12.9789 0.595771 12.8832 0.527392 12.8273 0.492063C12.7681 0.454455 12.7225 0.431662 12.7134 0.43622C12.7043 0.442298 12.7024 0.440399 12.7077 0.430522C12.7145 0.421405 12.6701 0.392914 12.5607 0.33821C12.4741 0.294903 12.3511 0.237921 12.2861 0.212849C12.2223 0.186637 12.1095 0.149028 12.0366 0.127375C11.9626 0.105721 11.8532 0.0772301 11.7939 0.0646939C11.7347 0.0521577 11.6242 0.0339233 11.549 0.0236665Z" fill="url(#paint15_linear_3_10963)"/>
<path d="M15.383 7.13623C15.3078 7.12028 15.0685 7.118 13.3355 7.118C11.7962 7.118 11.3712 7.12141 11.3644 7.13167C11.3583 7.14155 11.361 7.14421 11.3724 7.13965C11.3872 7.13281 11.3883 7.5693 11.3837 11.043C11.3781 14.675 11.3758 14.9577 11.3575 15.0215C11.3473 15.0591 11.3211 15.1263 11.3006 15.1696C11.2801 15.2129 11.2425 15.2779 11.2163 15.3121C11.1912 15.3463 11.1376 15.4055 11.0978 15.4431C11.0579 15.4808 10.9952 15.5286 10.9588 15.5491C10.9234 15.5685 10.8836 15.5856 10.871 15.5856C10.8558 15.5856 10.8501 15.5913 10.8539 15.6027C10.8574 15.6118 10.8528 15.6232 10.846 15.6278C10.8346 15.6346 10.8346 15.6323 10.8425 15.6198C10.8505 15.6073 10.8505 15.605 10.8403 15.6118C10.8323 15.6164 10.8254 15.6301 10.8254 15.6426C10.8254 15.6551 10.822 15.6677 10.8175 15.6699C10.8118 15.6722 10.8049 15.6882 10.8004 15.7064C10.797 15.7246 10.7822 15.752 10.7685 15.768C10.7559 15.7839 10.7446 15.7987 10.7457 15.8021C10.7457 15.8056 10.7297 15.8261 10.7104 15.8477C10.691 15.8694 10.6694 15.8876 10.6625 15.8876C10.6545 15.8876 10.6488 15.8933 10.6488 15.9001C10.6488 15.907 10.6283 15.9321 10.6033 15.9549C10.5782 15.9765 10.5531 15.9959 10.5486 15.9959C10.5429 15.9959 10.5315 16.0039 10.5224 16.013C10.5133 16.0221 10.4927 16.0335 10.4757 16.038C10.4574 16.0415 10.4312 16.0551 10.4153 16.0665C10.3993 16.0779 10.3777 16.0882 10.3674 16.0871C10.356 16.0871 10.3469 16.0928 10.3469 16.0984C10.3469 16.1041 10.3332 16.1121 10.3161 16.1155C10.2979 16.119 10.266 16.1235 10.2444 16.1269C10.2227 16.1304 10.1635 16.1372 10.1133 16.144C10.0541 16.1509 9.36362 16.1554 8.16841 16.1554C7.14752 16.1554 6.31463 16.152 6.31463 16.1475C6.31577 16.1418 6.31577 16.1349 6.31463 16.1304C6.31463 16.1247 6.31122 16.1178 6.31008 16.1133C6.3078 16.1076 6.29982 16.0905 6.29299 16.0734C6.28501 16.0551 6.27362 16.0437 6.26792 16.0472C6.26222 16.0506 6.2588 16.0449 6.26222 16.0358C6.26564 16.0255 6.26108 16.0187 6.25083 16.0187C6.23602 16.0187 6.23716 16.0244 6.25425 16.0586C6.2645 16.0802 6.27703 16.095 6.28273 16.0928C6.28729 16.0893 6.28957 16.0962 6.28843 16.1076C6.28729 16.1178 6.32147 16.1885 6.36477 16.2637C6.40692 16.3389 6.47301 16.4495 6.50947 16.5087C6.54707 16.568 6.61429 16.6683 6.65873 16.731C6.70316 16.7936 6.79659 16.9167 6.86723 17.0045C6.93674 17.0922 7.05067 17.2233 7.1179 17.2962C7.18626 17.3692 7.30134 17.4843 7.37312 17.5515C7.4449 17.6187 7.54745 17.7111 7.601 17.7555C7.65455 17.7999 7.74912 17.8752 7.81178 17.923C7.87445 17.9709 7.98725 18.0507 8.06245 18.1008C8.13765 18.151 8.25842 18.2262 8.3302 18.2695C8.40198 18.3117 8.55808 18.3948 8.67771 18.4541C8.79735 18.5122 8.97167 18.5909 9.0651 18.6273C9.15967 18.6649 9.31007 18.7185 9.40122 18.747C9.49237 18.7766 9.63593 18.8177 9.72025 18.8393C9.80456 18.8598 9.94243 18.8906 10.0256 18.9065C10.1076 18.9225 10.2546 18.9464 10.3503 18.959C10.4449 18.9704 10.6112 18.9863 10.7172 18.9932C10.8574 19.0023 10.9633 19.0023 11.0989 18.9932C11.2026 18.9875 11.3507 18.9738 11.4293 18.9647C11.5079 18.9544 11.6435 18.935 11.7313 18.9191C11.819 18.9031 11.9751 18.8701 12.0788 18.845C12.1825 18.8188 12.3385 18.7743 12.4263 18.7459C12.514 18.7174 12.6633 18.6638 12.7567 18.6273C12.8513 18.5909 13.0256 18.5122 13.1441 18.4541C13.2626 18.3948 13.4198 18.3117 13.4916 18.2695C13.5634 18.2262 13.6842 18.151 13.7594 18.1008C13.8346 18.0507 13.9553 17.9641 14.0271 17.9094C14.0989 17.8547 14.2071 17.768 14.2664 17.7168C14.3256 17.6655 14.4111 17.588 14.4544 17.5447C14.4977 17.5002 14.5376 17.4638 14.5421 17.4626C14.5455 17.4615 14.6116 17.3942 14.688 17.3122C14.7654 17.2301 14.8851 17.0922 14.9557 17.0045C15.0252 16.9167 15.1266 16.7834 15.179 16.7082C15.2314 16.6329 15.318 16.4996 15.3704 16.4119C15.4229 16.3241 15.5015 16.1839 15.5448 16.1019C15.5903 16.013 15.6188 15.9446 15.6143 15.9366C15.6086 15.9275 15.6097 15.9252 15.6166 15.9298C15.6234 15.9343 15.6371 15.915 15.6485 15.8842C15.6598 15.8546 15.6815 15.8021 15.6963 15.768C15.7111 15.7338 15.743 15.654 15.7681 15.5913C15.7932 15.5286 15.8387 15.3976 15.8706 15.3007C15.9025 15.2038 15.9436 15.0648 15.9629 14.993C15.9812 14.9212 16.0096 14.7981 16.0256 14.7195C16.0415 14.6408 16.0621 14.5235 16.0723 14.4574C16.0826 14.3913 16.0985 14.2716 16.1088 14.1895C16.1259 14.0562 16.1281 13.7291 16.1316 11.0042C16.135 8.32603 16.1338 7.95564 16.1179 7.86789C16.1088 7.81204 16.0883 7.73569 16.0723 7.69694C16.0564 7.65705 16.0222 7.59095 15.9982 7.54878C15.9732 7.50548 15.9185 7.43596 15.8763 7.39379C15.833 7.35162 15.7601 7.29236 15.7134 7.26273C15.6667 7.2331 15.5915 7.19663 15.5482 7.18182C15.5049 7.16586 15.4297 7.14535 15.383 7.13623Z" fill="url(#paint16_linear_3_10963)"/>
<path d="M5.81558 14.7537C5.81786 14.74 5.81331 14.7309 5.80419 14.7309C5.7928 14.7309 5.79052 14.74 5.79621 14.7628C5.80077 14.7799 5.82014 14.8596 5.84065 14.9417C5.86116 15.0238 5.8942 15.1446 5.91585 15.2129C5.93864 15.2836 5.96029 15.3349 5.9694 15.3349C5.97624 15.3349 5.98307 15.3406 5.98307 15.3463C5.98307 15.352 5.97738 15.3577 5.97168 15.3577C5.96598 15.3577 5.9637 15.3668 5.96826 15.3782C5.97282 15.3884 5.98421 15.4033 5.99333 15.4112C6.00548 15.4204 6.007 15.4253 5.99789 15.4261C5.98649 15.4261 5.98649 15.4375 6.00016 15.4773C6.00928 15.5058 6.02637 15.532 6.03776 15.5355C6.05485 15.5423 6.05485 15.5446 6.04004 15.5526C6.02865 15.5594 6.02789 15.5628 6.03776 15.5628C6.0446 15.5628 6.04916 15.5662 6.04574 15.5719C6.04346 15.5765 6.04916 15.6016 6.06055 15.6289C6.07081 15.6551 6.08676 15.6768 6.09473 15.6768C6.10499 15.6768 6.10385 15.6665 6.09131 15.6346C6.08106 15.6107 6.06967 15.5902 6.06511 15.5879C6.06055 15.5867 6.05827 15.5742 6.06055 15.5594C6.06283 15.5457 6.05485 15.5241 6.04346 15.5115C6.03207 15.499 6.02295 15.4785 6.02181 15.4659C6.02067 15.4534 6.01839 15.4329 6.01612 15.4204C6.01384 15.4078 6.00358 15.3907 5.99447 15.3827C5.98193 15.3714 5.98079 15.3691 5.99333 15.377C6.007 15.3839 6.00814 15.3805 6.0013 15.3577C5.99561 15.3417 5.98079 15.3201 5.96712 15.3087C5.95459 15.2973 5.95003 15.2904 5.95801 15.2939C5.96484 15.2973 5.97168 15.295 5.97168 15.2893C5.97168 15.2836 5.9637 15.2699 5.95459 15.2608C5.94547 15.2517 5.94092 15.2426 5.94433 15.2414C5.94775 15.2392 5.94775 15.2243 5.94433 15.2072C5.94092 15.189 5.9318 15.1776 5.9261 15.181C5.91927 15.1844 5.91813 15.1753 5.92269 15.156C5.92838 15.132 5.92724 15.1263 5.91699 15.1332C5.90673 15.1389 5.9056 15.1343 5.91129 15.1161C5.91699 15.0967 5.91585 15.0921 5.9056 15.099C5.89762 15.1035 5.89192 15.1001 5.89192 15.0899C5.89192 15.0807 5.89762 15.075 5.90332 15.0785C5.90901 15.0819 5.9056 15.0671 5.89534 15.0477C5.88509 15.0272 5.87597 15.0021 5.87597 14.993C5.87483 14.9839 5.86686 14.9417 5.85774 14.8995C5.84749 14.8528 5.83723 14.8289 5.83154 14.8369C5.82584 14.8448 5.8247 14.8334 5.82812 14.8141C5.83268 14.7924 5.8304 14.7765 5.82356 14.7765C5.81786 14.7765 5.81331 14.7662 5.81558 14.7537Z" fill="url(#paint17_linear_3_10963)"/>
<path d="M6.13803 15.7429C6.13347 15.7235 6.12322 15.711 6.11182 15.711C6.09967 15.711 6.09587 15.7167 6.10043 15.7281C6.10499 15.7372 6.10841 15.7474 6.10841 15.7509C6.10841 15.7543 6.1141 15.7543 6.1198 15.7509C6.1255 15.7474 6.13233 15.7543 6.13233 15.7657C6.13347 15.7759 6.13461 15.7907 6.13575 15.7964C6.13689 15.8021 6.14145 15.8192 6.14601 15.834C6.15056 15.8477 6.15968 15.8591 6.16537 15.8591C6.17107 15.8591 6.17335 15.866 6.16879 15.8728C6.16272 15.8827 6.16462 15.8846 6.17449 15.8785C6.18474 15.8728 6.18474 15.8648 6.17107 15.8454C6.16196 15.8306 6.1517 15.809 6.14942 15.7964C6.14714 15.7839 6.14145 15.76 6.13803 15.7429Z" fill="url(#paint18_linear_3_10963)"/>
<path d="M6.21665 15.9309C6.21893 15.9252 6.21437 15.9115 6.20639 15.899C6.195 15.8808 6.1893 15.8796 6.18133 15.8922C6.17449 15.9024 6.17677 15.9093 6.18588 15.915C6.195 15.9184 6.2007 15.9252 6.2007 15.9309C6.19956 15.9355 6.20525 15.9537 6.21095 15.9731C6.21665 15.9925 6.22804 16.005 6.23374 16.0016C6.23943 15.9982 6.24513 15.9902 6.24513 15.9845C6.24513 15.9788 6.23716 15.9651 6.22804 15.956C6.21893 15.9469 6.21323 15.9355 6.21665 15.9309Z" fill="url(#paint19_linear_3_10963)"/>
<path d="M8.46533 4.27604C8.49381 4.27376 8.4733 4.27148 8.41975 4.27148C8.3662 4.27148 8.34341 4.27376 8.36848 4.27604C8.39355 4.27832 8.43684 4.27832 8.46533 4.27604Z" fill="url(#paint20_linear_3_10963)"/>
<path d="M10.915 5.61285C10.915 5.33706 10.9127 5.11141 10.9093 5.11141C10.907 5.11141 10.9025 5.33706 10.9013 5.61285C10.899 5.88865 10.9013 6.1143 10.9059 6.1143C10.9116 6.1143 10.915 5.88865 10.915 5.61285Z" fill="url(#paint21_linear_3_10963)"/>
<path d="M10.9093 14.3825C10.9139 8.77881 10.9127 7.15138 10.9093 7.15138C10.907 7.15138 10.9036 7.1548 10.9013 7.1605C10.899 7.16506 10.9002 8.79134 10.9036 10.7755L10.9093 14.3825Z" fill="url(#paint22_linear_3_10963)"/>
<path d="M10.9104 14.9409C10.915 14.6548 10.9127 14.4919 10.9059 14.485C10.8979 14.4771 10.8899 14.4953 10.8808 14.5363C10.8728 14.5705 10.8489 14.6378 10.8273 14.6845C10.8056 14.7312 10.7657 14.8007 10.7395 14.8383C10.7122 14.8759 10.6598 14.9341 10.6233 14.9671C10.5869 15.0002 10.5231 15.0469 10.482 15.072C10.441 15.097 10.3692 15.1301 10.3225 15.146C10.2758 15.162 10.2063 15.1802 10.1687 15.1859C10.1254 15.1928 9.3324 15.1973 8.02439 15.1973H5.94729C5.94274 15.244 5.94615 15.252 5.95641 15.2486C5.96324 15.2452 5.9678 15.2486 5.96438 15.2543C5.96097 15.26 5.96894 15.2885 5.98147 15.317C5.99401 15.3455 6.00198 15.374 5.99857 15.3797C5.99515 15.3854 5.9997 15.3911 6.00768 15.3911C6.01793 15.3899 6.0168 15.3956 6.00426 15.4104C5.99515 15.4218 5.99287 15.4275 5.99857 15.423C6.0054 15.4173 6.0168 15.4196 6.02477 15.4253C6.03503 15.4332 6.03503 15.4446 6.02705 15.4651C6.01793 15.4879 6.01907 15.4936 6.03275 15.4936C6.04186 15.4936 6.04756 15.4993 6.04414 15.505C6.04072 15.5107 6.04414 15.5164 6.04984 15.5164C6.05553 15.5164 6.06237 15.529 6.06465 15.5449C6.06579 15.5597 6.06123 15.5734 6.05553 15.5734C6.04984 15.5734 6.05212 15.578 6.06123 15.5837C6.07376 15.5905 6.0749 15.5985 6.06693 15.6087C6.05781 15.6213 6.05895 15.6224 6.07263 15.6133C6.0863 15.6042 6.08744 15.6065 6.0806 15.6224C6.07604 15.6338 6.07718 15.6395 6.08402 15.6361C6.08972 15.6327 6.09541 15.6372 6.09541 15.6452C6.09427 15.652 6.10225 15.6669 6.1125 15.676C6.12276 15.6851 6.13073 15.6874 6.12959 15.6817C6.12959 15.6737 6.88842 15.6703 8.38329 15.6703H10.6359C10.7908 15.6258 10.8136 15.6224 10.8159 15.6338C10.8182 15.6406 10.8307 15.6247 10.8444 15.5962C10.8569 15.5677 10.8706 15.5324 10.874 15.5164C10.8774 15.5005 10.8865 15.4651 10.8922 15.4366C10.899 15.4082 10.907 15.1882 10.9104 14.9409Z" fill="url(#paint23_linear_3_10963)"/>
<path d="M18.0704 1.91577C18.0488 1.91236 17.9383 1.90666 17.8255 1.90552C17.7127 1.90324 17.5964 1.90324 17.5668 1.90552C17.5361 1.9078 17.5121 1.91577 17.5121 1.92147C17.5121 1.92717 17.519 1.93515 17.5269 1.93743C17.5372 1.94085 17.5372 1.94427 17.5258 1.9568C17.5144 1.97048 17.5121 1.96934 17.5121 1.95224C17.5121 1.93971 17.5064 1.93515 17.495 1.93857C17.4859 1.94199 17.4768 1.93857 17.4757 1.93287C17.4734 1.92489 17.4552 1.92375 17.4244 1.92945C17.3982 1.93401 17.3788 1.94085 17.3811 1.94427C17.3822 1.94769 17.3686 1.94769 17.3481 1.94541C17.3276 1.94313 17.3082 1.94769 17.3013 1.9568C17.2922 1.96934 17.2945 1.97048 17.3105 1.96364C17.3207 1.95908 17.3298 1.95794 17.3298 1.96136C17.3298 1.96478 17.3196 1.97276 17.307 1.97846C17.2918 1.98605 17.2862 1.98605 17.29 1.97846C17.2934 1.97276 17.2911 1.96478 17.2843 1.96136C17.2774 1.95794 17.2729 1.95908 17.2729 1.96364C17.2729 1.96934 17.2558 1.9739 17.2353 1.97504C17.2159 1.97618 17.184 1.98301 17.1646 1.99099C17.1452 1.99897 17.1259 2.00581 17.119 2.00695C17.1122 2.00809 17.0883 2.01492 17.0655 2.0229C17.0416 2.02974 17.0245 2.04114 17.0279 2.04683C17.0313 2.05367 17.0233 2.05595 17.0108 2.05253C16.9983 2.04911 16.988 2.05253 16.988 2.05823C16.988 2.06393 16.9949 2.06621 17.0017 2.06051C17.0116 2.05519 17.0135 2.05709 17.0074 2.06621C17.0028 2.07419 16.988 2.07875 16.9743 2.07533C16.9595 2.07191 16.9345 2.07419 16.9174 2.08102C16.8991 2.08672 16.8877 2.09812 16.8912 2.10382C16.8946 2.10952 16.89 2.11179 16.8832 2.10838C16.8752 2.10496 16.8593 2.11066 16.849 2.11977C16.8376 2.13003 16.8251 2.13801 16.8205 2.13801C16.8148 2.13801 16.8023 2.14029 16.792 2.14371C16.7806 2.14712 16.7715 2.1551 16.7715 2.1608C16.7715 2.1665 16.767 2.16992 16.7601 2.1665C16.7533 2.16308 16.7419 2.16878 16.7328 2.17789C16.7237 2.18701 16.7134 2.19499 16.71 2.19499C16.7066 2.19499 16.6713 2.21436 16.6337 2.23716C16.5949 2.26109 16.5596 2.28958 16.5539 2.29984C16.5471 2.31351 16.5478 2.31921 16.5562 2.31693C16.563 2.31579 16.571 2.32491 16.5733 2.33745C16.5778 2.35796 16.5767 2.3591 16.5585 2.34314C16.5471 2.33403 16.5345 2.32035 16.53 2.31465C16.5243 2.30782 16.5209 2.30895 16.5209 2.31693C16.5209 2.32491 16.5174 2.33061 16.5129 2.32947C16.5072 2.32719 16.4878 2.33859 16.4673 2.35454C16.4468 2.3705 16.4331 2.38645 16.4354 2.39101C16.4388 2.39671 16.4343 2.39899 16.4274 2.39671C16.4195 2.39557 16.4138 2.40127 16.416 2.4081C16.4172 2.41608 16.4092 2.42292 16.399 2.42292C16.3876 2.42292 16.3545 2.44913 16.3249 2.4799C16.2941 2.51181 16.2702 2.53461 16.2702 2.53119C16.2702 2.52777 16.2474 2.55056 16.2189 2.58247C16.1904 2.61324 16.1699 2.64515 16.1734 2.65085C16.1768 2.65655 16.1734 2.66111 16.1665 2.65883C16.1597 2.65769 16.1255 2.69188 16.0913 2.73632C16.0571 2.77963 16.015 2.84117 15.9968 2.87308C15.9785 2.90385 15.9671 2.93576 15.9717 2.94146C15.9762 2.9483 15.974 2.94944 15.9648 2.94374C15.9557 2.93918 15.9455 2.9483 15.9341 2.96995C15.9204 2.9973 15.9193 3.00756 15.9318 3.02238C15.9432 3.03719 15.9421 3.03947 15.9261 3.03377C15.9113 3.02921 15.8999 3.03719 15.8862 3.0634C15.876 3.08392 15.8657 3.10329 15.8657 3.10671C15.8657 3.11013 15.8555 3.13064 15.8441 3.1523C15.8315 3.17395 15.8099 3.22523 15.7951 3.26626C15.7803 3.30729 15.7712 3.34718 15.7746 3.35401C15.778 3.36199 15.7757 3.36655 15.7689 3.36313C15.762 3.35971 15.7563 3.36427 15.7552 3.37111C15.7552 3.37909 15.7529 3.39162 15.7518 3.39732C15.7506 3.40302 15.7438 3.42239 15.737 3.43949C15.729 3.45772 15.7222 3.48849 15.721 3.50787C15.7187 3.52838 15.7142 3.54776 15.7085 3.55117C15.7039 3.55459 15.6994 3.58081 15.6971 3.61044C15.696 3.64121 15.6914 3.66514 15.6868 3.66514C15.6811 3.66514 15.672 3.72326 15.6652 3.79278C15.6584 3.86458 15.6549 4.00248 15.6584 4.10391C15.6618 4.2042 15.6663 4.29879 15.6697 4.31474C15.672 4.3307 15.6754 4.35235 15.6754 4.36261C15.6766 4.37514 15.6834 4.3797 15.6925 4.37514C15.7039 4.36944 15.7039 4.37172 15.6925 4.38654C15.6846 4.3968 15.6811 4.41275 15.6857 4.41959C15.6903 4.42757 15.6937 4.44466 15.6948 4.4572C15.696 4.46973 15.7039 4.50962 15.713 4.54609C15.7222 4.58142 15.7324 4.61105 15.7381 4.61105C15.7427 4.61105 15.7461 4.60421 15.7461 4.59624C15.7461 4.5894 15.7495 4.58598 15.7541 4.59054C15.7586 4.5951 15.7563 4.60649 15.7495 4.61675C15.7381 4.63042 15.7381 4.6441 15.7472 4.67601C15.7552 4.69994 15.7632 4.72502 15.7677 4.73071C15.7712 4.73641 15.7757 4.75123 15.7769 4.76148C15.7791 4.77288 15.7882 4.79795 15.7974 4.81619C15.8065 4.83442 15.8122 4.85038 15.8088 4.85038C15.8053 4.85038 15.8361 4.91762 15.8771 4.99853C15.9284 5.10224 15.9557 5.14441 15.9648 5.13757C15.9747 5.13225 15.9766 5.13415 15.9705 5.14327C15.966 5.15125 15.9705 5.17062 15.9797 5.18657C15.9888 5.20253 16.0013 5.21507 16.0081 5.21507C16.015 5.21507 16.0173 5.20937 16.0138 5.20367C16.0104 5.19797 16.0127 5.19227 16.0195 5.19227C16.0264 5.19227 16.0332 5.19797 16.0366 5.20367C16.04 5.20937 16.0344 5.21734 16.0252 5.22076C16.0116 5.22532 16.0104 5.22988 16.023 5.24812C16.0298 5.26065 16.0412 5.26749 16.048 5.26407C16.0549 5.25951 16.056 5.26179 16.0514 5.26749C16.0469 5.27319 16.0526 5.29142 16.0651 5.30852C16.0799 5.32903 16.0936 5.33701 16.1027 5.33245C16.1118 5.32637 16.1137 5.32827 16.1084 5.33815C16.1027 5.34499 16.1039 5.35866 16.1107 5.3655C16.1164 5.37348 16.146 5.40881 16.1756 5.443C16.2053 5.47719 16.2337 5.50454 16.2383 5.50226C16.2429 5.50112 16.2451 5.5034 16.2417 5.50796C16.2394 5.51365 16.2588 5.53987 16.285 5.56722C16.3181 5.60141 16.3386 5.61394 16.35 5.60711C16.3602 5.60255 16.3636 5.60369 16.3579 5.60939C16.3534 5.61508 16.3762 5.64471 16.4092 5.67435C16.4422 5.70512 16.5209 5.76438 16.5835 5.80655C16.6496 5.85213 16.7043 5.88176 16.7146 5.87834C16.726 5.87378 16.729 5.87606 16.7237 5.88518C16.718 5.89316 16.7214 5.90114 16.7294 5.90342C16.7362 5.90569 16.7533 5.90228 16.7658 5.89544C16.7863 5.88518 16.7875 5.88632 16.7749 5.90228C16.7613 5.91937 16.7704 5.92621 16.8433 5.9604C16.9037 5.98889 16.931 5.99687 16.9459 5.98889C16.9584 5.98205 16.9652 5.98319 16.9652 5.99003C16.9652 5.99573 16.9584 6.00143 16.9516 6.00143C16.9417 6.00218 16.9424 6.00598 16.9538 6.01282C16.9629 6.01738 17.0324 6.04245 17.1076 6.06752C17.1828 6.0926 17.2854 6.12109 17.3355 6.13135C17.3857 6.14274 17.4381 6.153 17.4529 6.15642C17.47 6.15984 17.4757 6.15642 17.47 6.14616C17.4643 6.13476 17.4666 6.13476 17.4814 6.14616C17.4916 6.15414 17.511 6.1587 17.5235 6.15528C17.5361 6.15186 17.544 6.15414 17.5406 6.16098C17.5372 6.16781 17.5611 6.17351 17.601 6.17465C17.6363 6.17579 17.7434 6.17579 17.8369 6.17579C17.9314 6.17465 18.0408 6.16895 18.0818 6.16098C18.1228 6.15414 18.1764 6.14616 18.2015 6.14274C18.2265 6.13932 18.2516 6.13363 18.2584 6.12907C18.2653 6.12565 18.2778 6.12109 18.2869 6.12109C18.296 6.11995 18.3302 6.11197 18.3632 6.10285C18.3952 6.09374 18.4202 6.08348 18.4168 6.07778C18.4145 6.07322 18.4236 6.07322 18.4384 6.07778C18.4533 6.08234 18.4601 6.0812 18.4555 6.0755C18.4521 6.06866 18.4624 6.06411 18.4783 6.06297C18.4954 6.06183 18.5455 6.04701 18.5888 6.02992C18.6321 6.01282 18.672 5.99231 18.6766 5.98547C18.6811 5.97863 18.6857 5.97635 18.6857 5.98091C18.6857 5.98661 18.7222 5.97179 18.7655 5.95014C18.8087 5.92849 18.8452 5.90455 18.8452 5.89886C18.8452 5.89316 18.8498 5.88974 18.8566 5.89316C18.8634 5.89658 18.9079 5.87264 18.9569 5.84073C19.0047 5.80882 19.089 5.74614 19.1437 5.70056C19.1996 5.65611 19.2394 5.61508 19.2349 5.60825C19.2303 5.60255 19.2315 5.60027 19.2383 5.60483C19.2451 5.60939 19.2827 5.57861 19.3237 5.53645C19.3648 5.49428 19.4092 5.44755 19.4206 5.43274C19.4343 5.41564 19.4365 5.40881 19.4263 5.41564C19.4138 5.42248 19.4115 5.42248 19.4183 5.41109C19.4229 5.40425 19.4331 5.39741 19.4411 5.39741C19.4479 5.39741 19.473 5.37234 19.4947 5.34385C19.5163 5.31422 19.5345 5.28458 19.5345 5.27547C19.5345 5.26749 19.5391 5.26065 19.5459 5.26065C19.5528 5.26065 19.5756 5.23102 19.5972 5.19569C19.6188 5.15922 19.6359 5.12617 19.6348 5.12161C19.6325 5.11706 19.6348 5.1125 19.6405 5.1125C19.6451 5.11364 19.6678 5.07717 19.6918 5.03272C19.7157 4.98714 19.7305 4.94725 19.726 4.93927C19.7191 4.92787 19.7214 4.92787 19.7339 4.93585C19.7476 4.94497 19.7487 4.94269 19.7419 4.92104C19.7373 4.90622 19.7385 4.89824 19.7453 4.90166C19.7522 4.90508 19.7567 4.90166 19.7567 4.89596C19.7567 4.89026 19.7567 4.88115 19.7556 4.87545C19.7556 4.87089 19.7601 4.86519 19.7681 4.86177C19.7749 4.85835 19.7818 4.8424 19.7829 4.8253C19.7841 4.80935 19.7875 4.79795 19.7909 4.80023C19.7943 4.80365 19.8057 4.77858 19.816 4.74553C19.8274 4.71248 19.8331 4.68171 19.8308 4.67601C19.8274 4.67145 19.8296 4.66803 19.8365 4.66803C19.8433 4.66803 19.8524 4.64524 19.8593 4.61675C19.8661 4.58826 19.8672 4.55635 19.8627 4.54495C19.857 4.53128 19.8581 4.52786 19.8684 4.53355C19.8786 4.54039 19.8855 4.52444 19.8923 4.47657C19.8991 4.44124 19.9014 4.39908 19.8991 4.38312C19.8957 4.36717 19.8991 4.35235 19.9048 4.34893C19.9117 4.34551 19.9219 4.26574 19.9288 4.17228C19.9356 4.07769 19.9379 3.98538 19.9345 3.96715C19.931 3.94891 19.9253 3.88395 19.9219 3.82469C19.9196 3.76429 19.9117 3.71528 19.9048 3.71301C19.8991 3.71187 19.8969 3.70389 19.9003 3.69591C19.9037 3.68907 19.898 3.64121 19.8877 3.59106C19.8763 3.54092 19.865 3.49419 19.8615 3.48849C19.8581 3.4828 19.8536 3.46912 19.8536 3.46C19.8524 3.45089 19.8422 3.41328 19.8296 3.37795C19.8182 3.34262 19.8057 3.31527 19.8023 3.31755C19.7989 3.31869 19.7955 3.30501 19.7943 3.28564C19.7932 3.26512 19.759 3.18079 19.718 3.09759C19.677 3.01554 19.6382 2.94716 19.6314 2.94716C19.6245 2.94716 19.6223 2.94146 19.6257 2.93576C19.6291 2.93006 19.6268 2.92437 19.62 2.92437C19.6132 2.92437 19.6086 2.91639 19.6086 2.90727C19.6086 2.89815 19.604 2.89018 19.5972 2.89018C19.5904 2.89018 19.5869 2.88676 19.5881 2.88106C19.5892 2.8765 19.5756 2.85143 19.5573 2.82408C19.538 2.79673 19.5197 2.77507 19.5152 2.77621C19.5095 2.77621 19.506 2.78533 19.5049 2.79559C19.5049 2.81154 19.5026 2.81268 19.4981 2.799C19.4947 2.78989 19.4833 2.77507 19.473 2.76709C19.4571 2.75456 19.4593 2.75342 19.489 2.76026L19.5231 2.76937C19.4616 2.6953 19.4388 2.67592 19.432 2.67706C19.4252 2.6782 19.4217 2.67136 19.424 2.66225C19.4252 2.65313 19.4149 2.63376 19.4012 2.61894C19.3864 2.60526 19.3682 2.59387 19.3613 2.59387C19.3534 2.59387 19.3488 2.59045 19.3522 2.58475C19.3545 2.58019 19.3431 2.5631 19.326 2.54486C19.3089 2.52777 19.2907 2.51751 19.285 2.52207C19.2793 2.52777 19.2782 2.52435 19.2816 2.51637C19.2861 2.50839 19.2611 2.47762 19.2166 2.4366C19.1768 2.40127 19.1038 2.342 19.0549 2.30668C19.0047 2.27135 18.9215 2.21664 18.868 2.18473C18.7894 2.13801 18.77 2.13003 18.7632 2.14371C18.7575 2.15282 18.7575 2.16764 18.7609 2.17448C18.7643 2.18245 18.7586 2.17903 18.7495 2.1665C18.7381 2.15168 18.7358 2.13915 18.7427 2.13231C18.7495 2.12433 18.7233 2.10724 18.6652 2.08216C18.6173 2.06165 18.5729 2.04342 18.5661 2.04228C18.5592 2.04114 18.5478 2.03658 18.541 2.03202C18.533 2.02746 18.5216 2.02632 18.5148 2.02974C18.508 2.03316 18.5034 2.02974 18.5034 2.02404C18.5034 2.01834 18.4658 2.00125 18.4202 1.98871C18.3758 1.97504 18.3245 1.96364 18.3074 1.9625C18.2892 1.96136 18.2755 1.95794 18.2755 1.95224C18.2755 1.94769 18.2482 1.94085 18.2163 1.93743C18.1832 1.93287 18.1456 1.92831 18.1331 1.92603C18.1206 1.92375 18.0921 1.91919 18.0704 1.91577Z" fill="url(#paint24_linear_3_10963)"/>
<path d="M19.5904 7.12626C19.5881 7.1217 18.6253 7.11942 17.4529 7.11942C16.0355 7.12056 15.3359 7.12512 15.3701 7.13196C15.3986 7.1388 15.4624 7.15589 15.5125 7.17071C15.5649 7.18666 15.6458 7.22427 15.7005 7.25732C15.7541 7.29037 15.8315 7.35191 15.8748 7.39408C15.917 7.43625 15.9717 7.50576 15.9968 7.54793C16.0207 7.59124 16.0549 7.65734 16.0708 7.69609C16.0868 7.73597 16.1073 7.81233 16.1164 7.86703C16.1323 7.95593 16.1335 8.32631 16.1301 11.0045C16.1266 13.7294 16.1244 14.0565 16.1073 14.1898C16.097 14.2719 16.0811 14.3915 16.0708 14.4576C16.0606 14.5237 16.0378 14.6537 16.0184 14.7483C15.999 14.8417 15.9637 14.9887 15.9386 15.0731C15.9147 15.1574 15.8703 15.301 15.8384 15.3922C15.8076 15.4833 15.7586 15.6144 15.7301 15.6828C15.6891 15.7819 15.6811 15.8115 15.6925 15.8229C15.7039 15.8355 15.7028 15.8378 15.6868 15.8321C15.6754 15.8286 15.6663 15.8286 15.6663 15.8332C15.6663 15.8389 15.6982 15.856 15.737 15.8731C15.7769 15.8902 15.8167 15.9061 15.8258 15.9073C15.835 15.9096 15.8452 15.9141 15.8486 15.9175C15.852 15.921 15.876 15.9323 15.9033 15.9426C15.9295 15.9529 15.9557 15.9597 15.9626 15.9563C15.9694 15.9529 15.974 15.9563 15.974 15.962C15.974 15.9677 15.9911 15.9768 16.0116 15.9814C16.0309 15.9859 16.0526 15.9905 16.0594 15.9905C16.0663 15.9905 16.0731 15.9939 16.0765 15.9984C16.0799 16.0019 16.1323 16.019 16.1939 16.0349C16.2543 16.0509 16.3089 16.0623 16.3158 16.0588C16.3226 16.0554 16.3272 16.0588 16.3272 16.0645C16.3272 16.0702 16.3397 16.0748 16.3557 16.0725C16.3705 16.0714 16.3841 16.0725 16.3841 16.0759C16.3841 16.0794 16.4309 16.0896 16.489 16.101C16.5471 16.1113 16.6029 16.1204 16.612 16.1204L16.6151 16.1208C16.629 16.1225 16.6718 16.1278 16.7146 16.1341C16.7613 16.1409 16.9174 16.1477 17.0621 16.1477C17.2068 16.1489 17.3583 16.1466 17.4016 16.1409C17.446 16.1363 17.4757 16.1284 17.4723 16.1215C17.4688 16.1158 17.4745 16.1067 17.4848 16.101C17.4962 16.0965 17.5064 16.0999 17.5121 16.1101C17.5212 16.1249 17.5383 16.1249 17.6568 16.1044C17.7309 16.0919 17.7901 16.0759 17.789 16.0702C17.7879 16.0634 17.7947 16.0588 17.8027 16.0588C17.8106 16.0588 17.8141 16.0634 17.8106 16.0691C17.8061 16.0759 17.8118 16.0771 17.8255 16.0737C17.838 16.0691 17.8585 16.0634 17.871 16.06C17.8836 16.0566 17.9064 16.0509 17.9223 16.0475C17.9383 16.044 17.9531 16.0361 17.9565 16.0304C17.9599 16.0235 17.9713 16.0212 17.9827 16.0247C17.9929 16.0281 18.0089 16.0269 18.0169 16.0224C18.0237 16.0178 18.0431 16.0121 18.059 16.0098C18.075 16.0076 18.0887 16.0019 18.0909 15.995C18.0921 15.9893 18.1001 15.9882 18.108 15.9927C18.1149 15.9962 18.1285 15.9893 18.1365 15.9779C18.1445 15.9665 18.1502 15.9631 18.1502 15.97C18.1502 15.9814 18.1604 15.9802 18.1935 15.9665C18.2163 15.9563 18.2596 15.9403 18.2892 15.9301C18.32 15.9187 18.3393 15.9061 18.3348 15.8993C18.3302 15.8936 18.3325 15.8913 18.3382 15.8959C18.345 15.9004 18.3667 15.8982 18.3872 15.8902C18.4077 15.8822 18.4236 15.8731 18.4236 15.8674C18.4236 15.8628 18.4328 15.8594 18.4441 15.8594C18.4555 15.8594 18.4704 15.8526 18.4783 15.8446C18.4863 15.8378 18.492 15.8343 18.492 15.8389C18.492 15.8446 18.5136 15.8366 18.541 15.8241C18.5672 15.8104 18.5923 15.7933 18.5968 15.7865C18.6014 15.7796 18.6059 15.7774 18.6059 15.7819C18.6059 15.7876 18.6162 15.7853 18.6287 15.7796C18.6424 15.7728 18.6481 15.7625 18.6435 15.7534C18.6375 15.7443 18.6394 15.7424 18.6492 15.7477C18.6572 15.7534 18.7016 15.7352 18.7575 15.7044C18.8087 15.6748 18.8532 15.6497 18.8566 15.6474C18.86 15.6452 18.8566 15.6372 18.8486 15.6292C18.8384 15.6178 18.8395 15.6144 18.8509 15.6144C18.8589 15.6144 18.8634 15.6178 18.8612 15.6224C18.8589 15.6281 18.8612 15.6315 18.868 15.6315C18.8748 15.6315 18.8794 15.6258 18.8794 15.6201C18.8794 15.6144 18.8839 15.611 18.8908 15.6144C18.8976 15.6178 18.9124 15.6098 18.925 15.5973C18.9375 15.5848 18.9478 15.5779 18.9478 15.5825C18.9478 15.5882 18.9557 15.5813 18.9648 15.5688C18.9751 15.5563 18.9819 15.5494 18.9819 15.554C18.9819 15.5597 19.0047 15.546 19.0332 15.5255C19.0742 15.4959 19.0811 15.4856 19.0697 15.4742C19.0583 15.4628 19.0606 15.4605 19.0822 15.4662C19.0982 15.4697 19.1187 15.4628 19.1392 15.448C19.1547 15.4366 19.1911 15.4063 19.2232 15.3795L19.2326 15.3716C19.2668 15.342 19.3192 15.2964 19.3488 15.2691C19.3784 15.2429 19.4012 15.2155 19.3978 15.2098C19.3944 15.2041 19.3989 15.1996 19.4069 15.2007C19.4138 15.203 19.4195 15.1973 19.4183 15.1893C19.416 15.1825 19.4217 15.1768 19.4297 15.1779C19.4365 15.1802 19.4422 15.1745 19.4411 15.1665C19.4388 15.1597 19.4445 15.1528 19.4525 15.1528C19.4593 15.1528 19.4833 15.1369 19.5038 15.1164C19.5243 15.0958 19.5368 15.0742 19.5323 15.0685C19.5266 15.0628 19.53 15.0617 19.538 15.0651C19.5459 15.0696 19.5562 15.0617 19.563 15.0446C19.5699 15.0286 19.579 15.0161 19.5858 15.0161C19.5926 15.0161 19.62 14.9864 19.6485 14.95C19.6952 14.8918 19.6986 14.8827 19.6838 14.8679C19.6735 14.8588 19.6667 14.8451 19.6667 14.8394C19.6667 14.8337 19.6713 14.8371 19.677 14.8474C19.6838 14.8588 19.6952 14.8679 19.7032 14.8679C19.71 14.8691 19.7305 14.8497 19.7476 14.8257C19.7647 14.8018 19.7795 14.7756 19.7795 14.7676C19.7795 14.7608 19.7841 14.7539 19.7909 14.7539C19.7977 14.7539 19.8331 14.7061 19.8707 14.648C19.9071 14.591 19.9356 14.5397 19.9333 14.534C19.9299 14.5294 19.9322 14.526 19.939 14.526C19.9459 14.526 19.9607 14.5078 19.9732 14.4861C19.9857 14.4645 19.9926 14.4394 19.988 14.4314C19.9819 14.4223 19.9838 14.4204 19.9937 14.4257C20.0028 14.4318 20.0112 14.4234 20.0188 14.4007C20.0256 14.3813 20.0313 14.363 20.0324 14.3573C20.0336 14.3528 20.0416 14.3425 20.0495 14.3346C20.0575 14.3277 20.0643 14.3129 20.0643 14.3038C20.0643 14.2935 20.0587 14.2901 20.0507 14.2947C20.0408 14.3007 20.0389 14.2988 20.045 14.289C20.0495 14.2821 20.0575 14.2776 20.0643 14.281C20.0712 14.2844 20.0757 14.2787 20.0757 14.2696C20.0757 14.2605 20.0826 14.2457 20.0906 14.2377C20.0997 14.2308 20.1122 14.2115 20.1202 14.1955C20.1282 14.1796 20.1316 14.1602 20.1282 14.1522C20.1247 14.1454 20.1259 14.1408 20.1327 14.1442C20.1395 14.1477 20.1464 14.142 20.1498 14.1328C20.1532 14.1237 20.1487 14.1135 20.1418 14.1112C20.132 14.1081 20.1327 14.1062 20.1441 14.1055C20.1544 14.1055 20.1714 14.077 20.1863 14.0337C20.2068 13.9756 20.209 13.9585 20.1977 13.9471C20.1863 13.9345 20.1874 13.9323 20.2045 13.938C20.2204 13.9437 20.2296 13.9266 20.258 13.8308C20.2774 13.7682 20.2899 13.7112 20.2865 13.7055C20.2831 13.6998 20.2854 13.6941 20.2922 13.6941C20.2991 13.6941 20.3013 13.6838 20.2979 13.6713C20.2945 13.6587 20.2956 13.6485 20.3013 13.6485C20.3059 13.6485 20.315 13.6246 20.323 13.5949C20.331 13.5642 20.3344 13.5288 20.3321 13.514C20.3287 13.5003 20.3298 13.4912 20.3355 13.4935C20.3401 13.4969 20.3481 13.4684 20.3549 13.4308C20.3625 13.386 20.3625 13.359 20.3549 13.3499C20.3473 13.3415 20.3484 13.34 20.3583 13.3453C20.3674 13.3499 20.3743 13.3362 20.3788 13.2975L20.3796 13.2908C20.383 13.2608 20.3883 13.2155 20.3925 13.1869C20.3959 13.155 20.4016 11.9607 20.4039 10.5315C20.4062 8.69214 20.4039 7.91262 20.3948 7.86476C20.3879 7.82715 20.3708 7.76333 20.3572 7.72344C20.3435 7.68355 20.323 7.64708 20.3127 7.64138C20.2979 7.63341 20.2945 7.62429 20.3002 7.60491C20.3059 7.58668 20.3048 7.58212 20.2945 7.58782C20.2854 7.5939 20.2827 7.59124 20.2865 7.57984C20.2899 7.57072 20.2877 7.56275 20.2808 7.56275C20.274 7.56275 20.2694 7.55591 20.2694 7.54793C20.2694 7.54109 20.2535 7.51374 20.2353 7.48867C20.2159 7.4636 20.2011 7.44878 20.2011 7.45448C20.2011 7.46018 20.1965 7.45904 20.192 7.45106C20.1863 7.43853 20.1783 7.43853 20.1589 7.44764C20.1441 7.45448 20.1293 7.4579 20.1247 7.45448C20.119 7.45106 20.1236 7.44878 20.1327 7.44878C20.1464 7.44992 20.1475 7.4465 20.135 7.43511C20.127 7.42599 20.1247 7.41231 20.1293 7.39978C20.1354 7.38686 20.1308 7.37281 20.1156 7.35761C20.1031 7.34507 20.0883 7.33938 20.0814 7.34393C20.0746 7.34849 20.0735 7.34621 20.0792 7.3371C20.0837 7.32912 20.0757 7.31658 20.0564 7.30405C20.0381 7.29265 20.0211 7.28581 20.0165 7.28695C20.0108 7.28809 20.0074 7.28353 20.0074 7.27783C20.0074 7.27214 19.9675 7.24592 19.9196 7.22199C19.8707 7.19806 19.8011 7.16957 19.7658 7.15931C19.7123 7.1445 19.6963 7.14336 19.6827 7.15475C19.6678 7.16729 19.6644 7.16615 19.6656 7.15247C19.6656 7.14108 19.6542 7.13538 19.6302 7.13538C19.6109 7.13538 19.5926 7.13196 19.5904 7.12626Z" fill="url(#paint25_linear_3_10963)"/>
<path d="M0.0324709 7.79027C0.0347496 7.71164 0.0347496 7.58627 0.0324709 7.51106C0.0313315 7.43584 0.0290527 7.49966 0.0290527 7.65351C0.0290527 7.80737 0.0313315 7.86891 0.0324709 7.79027Z" fill="url(#paint26_linear_3_10963)"/>
<path d="M10.3661 9.22634C10.3684 9.18531 10.3684 9.12149 10.3661 9.08388C10.3638 9.04627 10.3627 9.07932 10.3627 9.15796C10.3627 9.2366 10.3638 9.26737 10.3661 9.22634Z" fill="url(#paint27_linear_3_10963)"/>
<path d="M10.4003 9.61382C10.4026 9.58533 10.4026 9.54202 10.4003 9.51695C10.398 9.49188 10.3958 9.51467 10.3958 9.56823C10.3958 9.6218 10.398 9.64231 10.4003 9.61382Z" fill="url(#paint28_linear_3_10963)"/>
<path d="M10.4117 11.4088C10.414 11.3837 10.414 11.3484 10.4117 11.329C10.4094 11.3096 10.4071 11.3313 10.4071 11.3746C10.4071 11.4179 10.4094 11.4338 10.4117 11.4088Z" fill="url(#paint29_linear_3_10963)"/>
<path d="M5.78581 12.2293C5.78809 12.186 5.78809 12.1165 5.78581 12.0755C5.78353 12.0344 5.78239 12.0709 5.78239 12.1552C5.78239 12.2396 5.78353 12.2726 5.78581 12.2293Z" fill="url(#paint30_linear_3_10963)"/>
<path d="M5.62971 12.3911C5.67073 12.3889 5.63997 12.3877 5.56135 12.3877C5.48273 12.3877 5.44969 12.3889 5.48729 12.3911C5.52489 12.3934 5.5887 12.3934 5.62971 12.3911Z" fill="url(#paint31_linear_3_10963)"/>
<path d="M1.55073 14.6818C1.62934 14.6807 1.56212 14.6784 1.40261 14.6784C1.24309 14.6784 1.17815 14.6807 1.26018 14.6818C1.34222 14.6841 1.47211 14.6841 1.55073 14.6818Z" fill="url(#paint32_linear_3_10963)"/>
<path d="M9.75529 4.33252C9.73934 4.3291 9.72339 4.32568 9.71883 4.32568C9.71313 4.32568 9.70972 4.33366 9.70972 4.34277C9.70972 4.35417 9.72111 4.35987 9.7439 4.35987C9.76327 4.35987 9.77922 4.35531 9.78036 4.34961C9.7815 4.34391 9.7701 4.33708 9.75529 4.33252Z" fill="url(#paint33_linear_3_10963)"/>
<g filter="url(#filter0_dd_3_10963)">
<rect x="0.0869141" y="4.26807" width="10.344" height="10.5658" rx="1.06868" fill="url(#paint34_linear_3_10963)"/>
</g>
<path d="M0.0214846 7.15274C0.0237633 7.08094 0.0237633 6.9647 0.0214846 6.89632C0.0203452 6.82794 0.0180664 6.88606 0.0180664 7.02738C0.0180664 7.16869 0.0203452 7.22454 0.0214846 7.15274Z" fill="url(#paint35_linear_3_10963)"/>
<path d="M8.31474 9.06729L7.10152 6.96444C6.94447 6.6925 6.6546 6.5249 6.33944 6.5249H3.91194C3.59783 6.5249 3.30691 6.6925 3.14986 6.96444L1.93664 9.06729C1.77958 9.33924 1.77958 9.67443 1.93664 9.94743L3.14986 12.0492C3.30691 12.3212 3.59783 12.4888 3.91194 12.4888H6.33944C6.6546 12.4888 6.94447 12.3212 7.10152 12.0492L8.31474 9.94743C8.4718 9.67443 8.4718 9.33924 8.31474 9.06729ZM5.32016 8.21034C5.40976 8.05118 5.50252 7.89307 5.59316 7.73391C5.61214 7.70018 5.63427 7.68542 5.67433 7.68647C5.85246 7.68964 6.0306 7.68858 6.20768 7.68647C6.24563 7.68647 6.26671 7.69807 6.28568 7.73074C6.37528 7.88991 6.46698 8.04907 6.55974 8.20613C6.5766 8.23353 6.57449 8.25356 6.55974 8.27991C6.46593 8.43907 6.37528 8.60034 6.28041 8.75951C6.26987 8.77637 6.24246 8.79218 6.22138 8.79218C6.12757 8.79534 6.03271 8.79429 5.9389 8.79429C5.84614 8.79429 5.75444 8.7964 5.66168 8.79218C5.63954 8.79113 5.61003 8.77532 5.59844 8.75634C5.50357 8.59718 5.41187 8.43696 5.32122 8.27569C5.31068 8.25988 5.31068 8.22721 5.32016 8.21034ZM3.17516 8.92815C3.16145 8.90391 3.15829 8.88494 3.17305 8.86069C3.34697 8.5624 3.51878 8.26515 3.69059 7.9658C3.70535 7.9405 3.72327 7.93734 3.74856 7.93734C3.91932 7.93734 4.09008 7.93734 4.26189 7.93734V7.93839C4.4337 7.93839 4.60657 7.93945 4.77838 7.93734C4.80473 7.93734 4.81843 7.94683 4.83003 7.96791C5.00289 8.26726 5.17576 8.56661 5.34757 8.86702C5.35495 8.88072 5.35495 8.90497 5.34757 8.91867C5.17576 9.21907 5.00184 9.51843 4.83003 9.81778C4.81738 9.83992 4.80262 9.84835 4.77732 9.84835C4.43265 9.84729 4.08797 9.84729 3.74329 9.84835C3.71589 9.84835 3.70219 9.83781 3.68848 9.81567C3.51878 9.51948 3.34697 9.22329 3.17516 8.92815ZM4.58338 11.5886H4.54016C4.34832 11.5886 4.15648 11.5886 3.9657 11.5886C3.94146 11.5886 3.92459 11.5833 3.91194 11.5601C3.8097 11.3809 3.7064 11.2018 3.60205 11.0226C3.59678 11.0131 3.59256 11.0015 3.59362 10.9857C3.92354 11.1817 4.25451 11.3778 4.58549 11.5749C4.58549 11.5802 4.58443 11.5844 4.58338 11.5886ZM4.93227 11.3272C4.89222 11.3968 4.89222 11.3968 4.82265 11.3556C4.43897 11.1301 4.05635 10.9035 3.67267 10.6779C3.65792 10.6684 3.6421 10.6589 3.62208 10.6473C3.68427 10.5388 3.7454 10.4323 3.81075 10.3195C4.23343 10.5704 4.65295 10.8191 5.07879 11.0721C5.02819 11.1606 4.9797 11.2439 4.93227 11.3272ZM4.09008 10.1298C4.09113 10.1266 4.09219 10.1245 4.09324 10.1213C4.10167 10.1203 4.11116 10.1182 4.12065 10.1182C4.3304 10.1182 4.53911 10.1171 4.74887 10.1182C4.76468 10.1182 4.78681 10.1287 4.79419 10.1414C4.90697 10.3322 5.0166 10.5251 5.12833 10.7169C5.13254 10.7232 5.13465 10.7306 5.14203 10.7496C4.7847 10.5388 4.43792 10.3343 4.09008 10.1298ZM7.21536 10.0423C7.0446 10.3353 6.8749 10.6284 6.70625 10.9224C6.69149 10.9488 6.67358 10.9572 6.64406 10.9572C6.4733 10.9562 6.30255 10.9572 6.13073 10.9572H5.87882C5.79449 10.9572 5.71017 10.9572 5.62584 10.9572C5.59527 10.9572 5.5763 10.9488 5.56049 10.9214C5.39079 10.6241 5.21687 10.3279 5.04716 10.0296C5.03873 10.0159 5.03873 9.98854 5.04716 9.97483C5.21792 9.67548 5.39079 9.37824 5.5626 9.07888C5.57735 9.05253 5.59422 9.04305 5.62479 9.04305C5.96525 9.0441 6.30571 9.0441 6.64617 9.04305C6.67357 9.04305 6.69044 9.05148 6.70414 9.07572C6.87385 9.37086 7.0446 9.666 7.21536 9.96008C7.23328 9.99065 7.23223 10.0117 7.21536 10.0423Z" fill="black"/>
<path d="M0.76792 4.33721C0.771338 4.32125 0.772478 4.30758 0.771338 4.30644C0.770199 4.30416 0.761084 4.31556 0.751969 4.33151C0.742854 4.34746 0.732599 4.35999 0.728042 4.35999C0.722345 4.35999 0.721205 4.3543 0.724624 4.34746C0.728422 4.3391 0.722345 4.33759 0.706394 4.3429C0.688163 4.3486 0.684745 4.34746 0.691582 4.33607C0.697278 4.32353 0.696139 4.32239 0.683606 4.33379C0.674491 4.34062 0.659679 4.34404 0.650564 4.34176C0.641449 4.33835 0.643727 4.34176 0.656261 4.34974C0.668794 4.35771 0.698418 4.36455 0.721205 4.36569C0.756526 4.36569 0.763363 4.36113 0.76792 4.33721Z" fill="url(#paint36_linear_3_10963)"/>
<path d="M10.3991 8.79834C10.4014 8.77327 10.4014 8.73794 10.3991 8.71857C10.3968 8.69919 10.3945 8.72085 10.3945 8.76415C10.3945 8.80746 10.3968 8.82341 10.3991 8.79834Z" fill="url(#paint37_linear_3_10963)"/>
<defs>
<filter id="filter0_dd_3_10963" x="0.0869141" y="3.48889" width="12.1789" height="12.179" filterUnits="userSpaceOnUse" color-interpolation-filters="sRGB">
<feFlood flood-opacity="0" result="BackgroundImageFix"/>
<feColorMatrix in="SourceAlpha" type="matrix" values="0 0 0 0 0 0 0 0 0 0 0 0 0 0 0 0 0 0 127 0" result="hardAlpha"/>
<feOffset dx="1.02835" dy="0.0273668"/>
<feGaussianBlur stdDeviation="0.403274"/>
<feColorMatrix type="matrix" values="0 0 0 0 0 0 0 0 0 0 0 0 0 0 0 0 0 0 0.25 0"/>
<feBlend mode="normal" in2="BackgroundImageFix" result="effect1_dropShadow_3_10963"/>
<feColorMatrix in="SourceAlpha" type="matrix" values="0 0 0 0 0 0 0 0 0 0 0 0 0 0 0 0 0 0 127 0" result="hardAlpha"/>
<feOffset dx="0.907366" dy="0.0806547"/>
<feGaussianBlur stdDeviation="0.0403274"/>
<feComposite in2="hardAlpha" operator="out"/>
<feColorMatrix type="matrix" values="0 0 0 0 0 0 0 0 0 0 0 0 0 0 0 0 0 0 0.25 0"/>
<feBlend mode="normal" in2="effect1_dropShadow_3_10963" result="effect2_dropShadow_3_10963"/>
<feBlend mode="normal" in="SourceGraphic" in2="effect2_dropShadow_3_10963" result="shape"/>
</filter>
<linearGradient id="paint0_linear_3_10963" x1="-1.81594" y1="8.51831" x2="5.21925" y2="18.7502" gradientUnits="userSpaceOnUse">
<stop stop-color="#FFD86E"/>
<stop offset="0.00222354" stop-color="#FDD56C"/>
<stop offset="0.0335753" stop-color="#DFB04C"/>
<stop offset="0.0663694" stop-color="#C89637"/>
<stop offset="0.1008" stop-color="#BA842A"/>
<stop offset="0.138" stop-color="#B17A24"/>
<stop offset="0.1829" stop-color="#AF7722"/>
<stop offset="0.2911" stop-color="#C9973C"/>
<stop offset="0.4194" stop-color="#E6BC5F"/>
<stop offset="0.4902" stop-color="#F2CB6D"/>
<stop offset="0.5472" stop-color="#EBC365"/>
<stop offset="0.6297" stop-color="#D9AC4F"/>
<stop offset="0.7272" stop-color="#BE8A31"/>
<stop offset="0.778" stop-color="#AF7722"/>
<stop offset="0.8199" stop-color="#B37C25"/>
<stop offset="0.820843" stop-color="#FFD86E"/>
<stop offset="0.8709" stop-color="#BF8A2F"/>
<stop offset="0.9265" stop-color="#D5A443"/>
<stop offset="0.9851" stop-color="#F6CC64"/>
</linearGradient>
<linearGradient id="paint1_linear_3_10963" x1="-1.81594" y1="8.51831" x2="5.21925" y2="18.7502" gradientUnits="userSpaceOnUse">
<stop stop-color="#FFD86E"/>
<stop offset="0.00222354" stop-color="#FDD56C"/>
<stop offset="0.0335753" stop-color="#DFB04C"/>
<stop offset="0.0663694" stop-color="#C89637"/>
<stop offset="0.1008" stop-color="#BA842A"/>
<stop offset="0.138" stop-color="#B17A24"/>
<stop offset="0.1829" stop-color="#AF7722"/>
<stop offset="0.2911" stop-color="#C9973C"/>
<stop offset="0.4194" stop-color="#E6BC5F"/>
<stop offset="0.4902" stop-color="#F2CB6D"/>
<stop offset="0.5472" stop-color="#EBC365"/>
<stop offset="0.6297" stop-color="#D9AC4F"/>
<stop offset="0.7272" stop-color="#BE8A31"/>
<stop offset="0.778" stop-color="#AF7722"/>
<stop offset="0.8199" stop-color="#B37C25"/>
<stop offset="0.820843" stop-color="#FFD86E"/>
<stop offset="0.8709" stop-color="#BF8A2F"/>
<stop offset="0.9265" stop-color="#D5A443"/>
<stop offset="0.9851" stop-color="#F6CC64"/>
</linearGradient>
<linearGradient id="paint2_linear_3_10963" x1="-1.81594" y1="8.51831" x2="5.21925" y2="18.7502" gradientUnits="userSpaceOnUse">
<stop stop-color="#FFD86E"/>
<stop offset="0.00222354" stop-color="#FDD56C"/>
<stop offset="0.0335753" stop-color="#DFB04C"/>
<stop offset="0.0663694" stop-color="#C89637"/>
<stop offset="0.1008" stop-color="#BA842A"/>
<stop offset="0.138" stop-color="#B17A24"/>
<stop offset="0.1829" stop-color="#AF7722"/>
<stop offset="0.2911" stop-color="#C9973C"/>
<stop offset="0.4194" stop-color="#E6BC5F"/>
<stop offset="0.4902" stop-color="#F2CB6D"/>
<stop offset="0.5472" stop-color="#EBC365"/>
<stop offset="0.6297" stop-color="#D9AC4F"/>
<stop offset="0.7272" stop-color="#BE8A31"/>
<stop offset="0.778" stop-color="#AF7722"/>
<stop offset="0.8199" stop-color="#B37C25"/>
<stop offset="0.820843" stop-color="#FFD86E"/>
<stop offset="0.8709" stop-color="#BF8A2F"/>
<stop offset="0.9265" stop-color="#D5A443"/>
<stop offset="0.9851" stop-color="#F6CC64"/>
</linearGradient>
<linearGradient id="paint3_linear_3_10963" x1="-1.81594" y1="8.51831" x2="5.21925" y2="18.7502" gradientUnits="userSpaceOnUse">
<stop stop-color="#FFD86E"/>
<stop offset="0.00222354" stop-color="#FDD56C"/>
<stop offset="0.0335753" stop-color="#DFB04C"/>
<stop offset="0.0663694" stop-color="#C89637"/>
<stop offset="0.1008" stop-color="#BA842A"/>
<stop offset="0.138" stop-color="#B17A24"/>
<stop offset="0.1829" stop-color="#AF7722"/>
<stop offset="0.2911" stop-color="#C9973C"/>
<stop offset="0.4194" stop-color="#E6BC5F"/>
<stop offset="0.4902" stop-color="#F2CB6D"/>
<stop offset="0.5472" stop-color="#EBC365"/>
<stop offset="0.6297" stop-color="#D9AC4F"/>
<stop offset="0.7272" stop-color="#BE8A31"/>
<stop offset="0.778" stop-color="#AF7722"/>
<stop offset="0.8199" stop-color="#B37C25"/>
<stop offset="0.820843" stop-color="#FFD86E"/>
<stop offset="0.8709" stop-color="#BF8A2F"/>
<stop offset="0.9265" stop-color="#D5A443"/>
<stop offset="0.9851" stop-color="#F6CC64"/>
</linearGradient>
<linearGradient id="paint4_linear_3_10963" x1="-1.81594" y1="8.51831" x2="5.21925" y2="18.7502" gradientUnits="userSpaceOnUse">
<stop stop-color="#FFD86E"/>
<stop offset="0.00222354" stop-color="#FDD56C"/>
<stop offset="0.0335753" stop-color="#DFB04C"/>
<stop offset="0.0663694" stop-color="#C89637"/>
<stop offset="0.1008" stop-color="#BA842A"/>
<stop offset="0.138" stop-color="#B17A24"/>
<stop offset="0.1829" stop-color="#AF7722"/>
<stop offset="0.2911" stop-color="#C9973C"/>
<stop offset="0.4194" stop-color="#E6BC5F"/>
<stop offset="0.4902" stop-color="#F2CB6D"/>
<stop offset="0.5472" stop-color="#EBC365"/>
<stop offset="0.6297" stop-color="#D9AC4F"/>
<stop offset="0.7272" stop-color="#BE8A31"/>
<stop offset="0.778" stop-color="#AF7722"/>
<stop offset="0.8199" stop-color="#B37C25"/>
<stop offset="0.820843" stop-color="#FFD86E"/>
<stop offset="0.8709" stop-color="#BF8A2F"/>
<stop offset="0.9265" stop-color="#D5A443"/>
<stop offset="0.9851" stop-color="#F6CC64"/>
</linearGradient>
<linearGradient id="paint5_linear_3_10963" x1="5.2388" y1="8.2104" x2="12.5396" y2="13.1692" gradientUnits="userSpaceOnUse">
<stop stop-color="#FFD86E"/>
<stop offset="0.00222354" stop-color="#FDD56C"/>
<stop offset="0.0335753" stop-color="#DFB04C"/>
<stop offset="0.0663694" stop-color="#C89637"/>
<stop offset="0.1008" stop-color="#BA842A"/>
<stop offset="0.138" stop-color="#B17A24"/>
<stop offset="0.1829" stop-color="#AF7722"/>
<stop offset="0.2911" stop-color="#C9973C"/>
<stop offset="0.4194" stop-color="#E6BC5F"/>
<stop offset="0.4902" stop-color="#F2CB6D"/>
<stop offset="0.5472" stop-color="#EBC365"/>
<stop offset="0.6297" stop-color="#D9AC4F"/>
<stop offset="0.7272" stop-color="#BE8A31"/>
<stop offset="0.778" stop-color="#AF7722"/>
<stop offset="0.8199" stop-color="#B37C25"/>
<stop offset="0.820843" stop-color="#FFD86E"/>
<stop offset="0.8709" stop-color="#BF8A2F"/>
<stop offset="0.9265" stop-color="#D5A443"/>
<stop offset="0.9851" stop-color="#F6CC64"/>
</linearGradient>
<linearGradient id="paint6_linear_3_10963" x1="5.2388" y1="8.2104" x2="12.5396" y2="13.1692" gradientUnits="userSpaceOnUse">
<stop stop-color="#FFD86E"/>
<stop offset="0.00222354" stop-color="#FDD56C"/>
<stop offset="0.0335753" stop-color="#DFB04C"/>
<stop offset="0.0663694" stop-color="#C89637"/>
<stop offset="0.1008" stop-color="#BA842A"/>
<stop offset="0.138" stop-color="#B17A24"/>
<stop offset="0.1829" stop-color="#AF7722"/>
<stop offset="0.2911" stop-color="#C9973C"/>
<stop offset="0.4194" stop-color="#E6BC5F"/>
<stop offset="0.4902" stop-color="#F2CB6D"/>
<stop offset="0.5472" stop-color="#EBC365"/>
<stop offset="0.6297" stop-color="#D9AC4F"/>
<stop offset="0.7272" stop-color="#BE8A31"/>
<stop offset="0.778" stop-color="#AF7722"/>
<stop offset="0.8199" stop-color="#B37C25"/>
<stop offset="0.820843" stop-color="#FFD86E"/>
<stop offset="0.8709" stop-color="#BF8A2F"/>
<stop offset="0.9265" stop-color="#D5A443"/>
<stop offset="0.9851" stop-color="#F6CC64"/>
</linearGradient>
<linearGradient id="paint7_linear_3_10963" x1="5.2388" y1="8.2104" x2="12.5396" y2="13.1692" gradientUnits="userSpaceOnUse">
<stop stop-color="#FFD86E"/>
<stop offset="0.00222354" stop-color="#FDD56C"/>
<stop offset="0.0335753" stop-color="#DFB04C"/>
<stop offset="0.0663694" stop-color="#C89637"/>
<stop offset="0.1008" stop-color="#BA842A"/>
<stop offset="0.138" stop-color="#B17A24"/>
<stop offset="0.1829" stop-color="#AF7722"/>
<stop offset="0.2911" stop-color="#C9973C"/>
<stop offset="0.4194" stop-color="#E6BC5F"/>
<stop offset="0.4902" stop-color="#F2CB6D"/>
<stop offset="0.5472" stop-color="#EBC365"/>
<stop offset="0.6297" stop-color="#D9AC4F"/>
<stop offset="0.7272" stop-color="#BE8A31"/>
<stop offset="0.778" stop-color="#AF7722"/>
<stop offset="0.8199" stop-color="#B37C25"/>
<stop offset="0.820843" stop-color="#FFD86E"/>
<stop offset="0.8709" stop-color="#BF8A2F"/>
<stop offset="0.9265" stop-color="#D5A443"/>
<stop offset="0.9851" stop-color="#F6CC64"/>
</linearGradient>
<linearGradient id="paint8_linear_3_10963" x1="5.2388" y1="8.2104" x2="12.5396" y2="13.1692" gradientUnits="userSpaceOnUse">
<stop stop-color="#FFD86E"/>
<stop offset="0.00222354" stop-color="#FDD56C"/>
<stop offset="0.0335753" stop-color="#DFB04C"/>
<stop offset="0.0663694" stop-color="#C89637"/>
<stop offset="0.1008" stop-color="#BA842A"/>
<stop offset="0.138" stop-color="#B17A24"/>
<stop offset="0.1829" stop-color="#AF7722"/>
<stop offset="0.2911" stop-color="#C9973C"/>
<stop offset="0.4194" stop-color="#E6BC5F"/>
<stop offset="0.4902" stop-color="#F2CB6D"/>
<stop offset="0.5472" stop-color="#EBC365"/>
<stop offset="0.6297" stop-color="#D9AC4F"/>
<stop offset="0.7272" stop-color="#BE8A31"/>
<stop offset="0.778" stop-color="#AF7722"/>
<stop offset="0.8199" stop-color="#B37C25"/>
<stop offset="0.820843" stop-color="#FFD86E"/>
<stop offset="0.8709" stop-color="#BF8A2F"/>
<stop offset="0.9265" stop-color="#D5A443"/>
<stop offset="0.9851" stop-color="#F6CC64"/>
</linearGradient>
<linearGradient id="paint9_linear_3_10963" x1="5.2388" y1="8.2104" x2="12.5396" y2="13.1692" gradientUnits="userSpaceOnUse">
<stop stop-color="#FFD86E"/>
<stop offset="0.00222354" stop-color="#FDD56C"/>
<stop offset="0.0335753" stop-color="#DFB04C"/>
<stop offset="0.0663694" stop-color="#C89637"/>
<stop offset="0.1008" stop-color="#BA842A"/>
<stop offset="0.138" stop-color="#B17A24"/>
<stop offset="0.1829" stop-color="#AF7722"/>
<stop offset="0.2911" stop-color="#C9973C"/>
<stop offset="0.4194" stop-color="#E6BC5F"/>
<stop offset="0.4902" stop-color="#F2CB6D"/>
<stop offset="0.5472" stop-color="#EBC365"/>
<stop offset="0.6297" stop-color="#D9AC4F"/>
<stop offset="0.7272" stop-color="#BE8A31"/>
<stop offset="0.778" stop-color="#AF7722"/>
<stop offset="0.8199" stop-color="#B37C25"/>
<stop offset="0.820843" stop-color="#FFD86E"/>
<stop offset="0.8709" stop-color="#BF8A2F"/>
<stop offset="0.9265" stop-color="#D5A443"/>
<stop offset="0.9851" stop-color="#F6CC64"/>
</linearGradient>
<linearGradient id="paint10_linear_3_10963" x1="5.2388" y1="8.2104" x2="12.5396" y2="13.1692" gradientUnits="userSpaceOnUse">
<stop stop-color="#FFD86E"/>
<stop offset="0.00222354" stop-color="#FDD56C"/>
<stop offset="0.0335753" stop-color="#DFB04C"/>
<stop offset="0.0663694" stop-color="#C89637"/>
<stop offset="0.1008" stop-color="#BA842A"/>
<stop offset="0.138" stop-color="#B17A24"/>
<stop offset="0.1829" stop-color="#AF7722"/>
<stop offset="0.2911" stop-color="#C9973C"/>
<stop offset="0.4194" stop-color="#E6BC5F"/>
<stop offset="0.4902" stop-color="#F2CB6D"/>
<stop offset="0.5472" stop-color="#EBC365"/>
<stop offset="0.6297" stop-color="#D9AC4F"/>
<stop offset="0.7272" stop-color="#BE8A31"/>
<stop offset="0.778" stop-color="#AF7722"/>
<stop offset="0.8199" stop-color="#B37C25"/>
<stop offset="0.820843" stop-color="#FFD86E"/>
<stop offset="0.8709" stop-color="#BF8A2F"/>
<stop offset="0.9265" stop-color="#D5A443"/>
<stop offset="0.9851" stop-color="#F6CC64"/>
</linearGradient>
<linearGradient id="paint11_linear_3_10963" x1="5.2388" y1="8.2104" x2="12.5396" y2="13.1692" gradientUnits="userSpaceOnUse">
<stop stop-color="#FFD86E"/>
<stop offset="0.00222354" stop-color="#FDD56C"/>
<stop offset="0.0335753" stop-color="#DFB04C"/>
<stop offset="0.0663694" stop-color="#C89637"/>
<stop offset="0.1008" stop-color="#BA842A"/>
<stop offset="0.138" stop-color="#B17A24"/>
<stop offset="0.1829" stop-color="#AF7722"/>
<stop offset="0.2911" stop-color="#C9973C"/>
<stop offset="0.4194" stop-color="#E6BC5F"/>
<stop offset="0.4902" stop-color="#F2CB6D"/>
<stop offset="0.5472" stop-color="#EBC365"/>
<stop offset="0.6297" stop-color="#D9AC4F"/>
<stop offset="0.7272" stop-color="#BE8A31"/>
<stop offset="0.778" stop-color="#AF7722"/>
<stop offset="0.8199" stop-color="#B37C25"/>
<stop offset="0.820843" stop-color="#FFD86E"/>
<stop offset="0.8709" stop-color="#BF8A2F"/>
<stop offset="0.9265" stop-color="#D5A443"/>
<stop offset="0.9851" stop-color="#F6CC64"/>
</linearGradient>
<linearGradient id="paint12_linear_3_10963" x1="5.0394" y1="14.4227" x2="5.28606" y2="15.922" gradientUnits="userSpaceOnUse">
<stop stop-color="#FFD86E"/>
<stop offset="0.00222354" stop-color="#FDD56C"/>
<stop offset="0.0335753" stop-color="#DFB04C"/>
<stop offset="0.0663694" stop-color="#C89637"/>
<stop offset="0.1008" stop-color="#BA842A"/>
<stop offset="0.138" stop-color="#B17A24"/>
<stop offset="0.1829" stop-color="#AF7722"/>
<stop offset="0.2911" stop-color="#C9973C"/>
<stop offset="0.4194" stop-color="#E6BC5F"/>
<stop offset="0.4902" stop-color="#F2CB6D"/>
<stop offset="0.5472" stop-color="#EBC365"/>
<stop offset="0.6297" stop-color="#D9AC4F"/>
<stop offset="0.7272" stop-color="#BE8A31"/>
<stop offset="0.778" stop-color="#AF7722"/>
<stop offset="0.8199" stop-color="#B37C25"/>
<stop offset="0.820843" stop-color="#FFD86E"/>
<stop offset="0.8709" stop-color="#BF8A2F"/>
<stop offset="0.9265" stop-color="#D5A443"/>
<stop offset="0.9851" stop-color="#F6CC64"/>
</linearGradient>
<linearGradient id="paint13_linear_3_10963" x1="9.48202" y1="8.17768" x2="11.8905" y2="8.60918" gradientUnits="userSpaceOnUse">
<stop stop-color="#FFD86E"/>
<stop offset="0.00222354" stop-color="#FDD56C"/>
<stop offset="0.0335753" stop-color="#DFB04C"/>
<stop offset="0.0663694" stop-color="#C89637"/>
<stop offset="0.1008" stop-color="#BA842A"/>
<stop offset="0.138" stop-color="#B17A24"/>
<stop offset="0.1829" stop-color="#AF7722"/>
<stop offset="0.2911" stop-color="#C9973C"/>
<stop offset="0.4194" stop-color="#E6BC5F"/>
<stop offset="0.4902" stop-color="#F2CB6D"/>
<stop offset="0.5472" stop-color="#EBC365"/>
<stop offset="0.6297" stop-color="#D9AC4F"/>
<stop offset="0.7272" stop-color="#BE8A31"/>
<stop offset="0.778" stop-color="#AF7722"/>
<stop offset="0.8199" stop-color="#B37C25"/>
<stop offset="0.820843" stop-color="#FFD86E"/>
<stop offset="0.8709" stop-color="#BF8A2F"/>
<stop offset="0.9265" stop-color="#D5A443"/>
<stop offset="0.9851" stop-color="#F6CC64"/>
</linearGradient>
<linearGradient id="paint14_linear_3_10963" x1="9.48202" y1="8.17768" x2="11.8905" y2="8.60918" gradientUnits="userSpaceOnUse">
<stop stop-color="#FFD86E"/>
<stop offset="0.00222354" stop-color="#FDD56C"/>
<stop offset="0.0335753" stop-color="#DFB04C"/>
<stop offset="0.0663694" stop-color="#C89637"/>
<stop offset="0.1008" stop-color="#BA842A"/>
<stop offset="0.138" stop-color="#B17A24"/>
<stop offset="0.1829" stop-color="#AF7722"/>
<stop offset="0.2911" stop-color="#C9973C"/>
<stop offset="0.4194" stop-color="#E6BC5F"/>
<stop offset="0.4902" stop-color="#F2CB6D"/>
<stop offset="0.5472" stop-color="#EBC365"/>
<stop offset="0.6297" stop-color="#D9AC4F"/>
<stop offset="0.7272" stop-color="#BE8A31"/>
<stop offset="0.778" stop-color="#AF7722"/>
<stop offset="0.8199" stop-color="#B37C25"/>
<stop offset="0.820843" stop-color="#FFD86E"/>
<stop offset="0.8709" stop-color="#BF8A2F"/>
<stop offset="0.9265" stop-color="#D5A443"/>
<stop offset="0.9851" stop-color="#F6CC64"/>
</linearGradient>
<linearGradient id="paint15_linear_3_10963" x1="4.05731" y1="6.78389" x2="16.0134" y2="17.1538" gradientUnits="userSpaceOnUse">
<stop stop-color="#FFD86E"/>
<stop offset="0.00222354" stop-color="#FDD56C"/>
<stop offset="0.0335753" stop-color="#DFB04C"/>
<stop offset="0.0663694" stop-color="#C89637"/>
<stop offset="0.1008" stop-color="#BA842A"/>
<stop offset="0.138" stop-color="#B17A24"/>
<stop offset="0.1829" stop-color="#AF7722"/>
<stop offset="0.2911" stop-color="#C9973C"/>
<stop offset="0.4194" stop-color="#E6BC5F"/>
<stop offset="0.4902" stop-color="#F2CB6D"/>
<stop offset="0.5472" stop-color="#EBC365"/>
<stop offset="0.6297" stop-color="#D9AC4F"/>
<stop offset="0.7272" stop-color="#BE8A31"/>
<stop offset="0.778" stop-color="#AF7722"/>
<stop offset="0.8199" stop-color="#B37C25"/>
<stop offset="0.820843" stop-color="#FFD86E"/>
<stop offset="0.8709" stop-color="#BF8A2F"/>
<stop offset="0.9265" stop-color="#D5A443"/>
<stop offset="0.9851" stop-color="#F6CC64"/>
</linearGradient>
<linearGradient id="paint16_linear_3_10963" x1="4.05731" y1="6.78389" x2="16.0134" y2="17.1538" gradientUnits="userSpaceOnUse">
<stop stop-color="#FFD86E"/>
<stop offset="0.00222354" stop-color="#FDD56C"/>
<stop offset="0.0335753" stop-color="#DFB04C"/>
<stop offset="0.0663694" stop-color="#C89637"/>
<stop offset="0.1008" stop-color="#BA842A"/>
<stop offset="0.138" stop-color="#B17A24"/>
<stop offset="0.1829" stop-color="#AF7722"/>
<stop offset="0.2911" stop-color="#C9973C"/>
<stop offset="0.4194" stop-color="#E6BC5F"/>
<stop offset="0.4902" stop-color="#F2CB6D"/>
<stop offset="0.5472" stop-color="#EBC365"/>
<stop offset="0.6297" stop-color="#D9AC4F"/>
<stop offset="0.7272" stop-color="#BE8A31"/>
<stop offset="0.778" stop-color="#AF7722"/>
<stop offset="0.8199" stop-color="#B37C25"/>
<stop offset="0.820843" stop-color="#FFD86E"/>
<stop offset="0.8709" stop-color="#BF8A2F"/>
<stop offset="0.9265" stop-color="#D5A443"/>
<stop offset="0.9851" stop-color="#F6CC64"/>
</linearGradient>
<linearGradient id="paint17_linear_3_10963" x1="4.05731" y1="6.78389" x2="16.0134" y2="17.1538" gradientUnits="userSpaceOnUse">
<stop stop-color="#FFD86E"/>
<stop offset="0.00222354" stop-color="#FDD56C"/>
<stop offset="0.0335753" stop-color="#DFB04C"/>
<stop offset="0.0663694" stop-color="#C89637"/>
<stop offset="0.1008" stop-color="#BA842A"/>
<stop offset="0.138" stop-color="#B17A24"/>
<stop offset="0.1829" stop-color="#AF7722"/>
<stop offset="0.2911" stop-color="#C9973C"/>
<stop offset="0.4194" stop-color="#E6BC5F"/>
<stop offset="0.4902" stop-color="#F2CB6D"/>
<stop offset="0.5472" stop-color="#EBC365"/>
<stop offset="0.6297" stop-color="#D9AC4F"/>
<stop offset="0.7272" stop-color="#BE8A31"/>
<stop offset="0.778" stop-color="#AF7722"/>
<stop offset="0.8199" stop-color="#B37C25"/>
<stop offset="0.820843" stop-color="#FFD86E"/>
<stop offset="0.8709" stop-color="#BF8A2F"/>
<stop offset="0.9265" stop-color="#D5A443"/>
<stop offset="0.9851" stop-color="#F6CC64"/>
</linearGradient>
<linearGradient id="paint18_linear_3_10963" x1="4.05731" y1="6.78389" x2="16.0134" y2="17.1538" gradientUnits="userSpaceOnUse">
<stop stop-color="#FFD86E"/>
<stop offset="0.00222354" stop-color="#FDD56C"/>
<stop offset="0.0335753" stop-color="#DFB04C"/>
<stop offset="0.0663694" stop-color="#C89637"/>
<stop offset="0.1008" stop-color="#BA842A"/>
<stop offset="0.138" stop-color="#B17A24"/>
<stop offset="0.1829" stop-color="#AF7722"/>
<stop offset="0.2911" stop-color="#C9973C"/>
<stop offset="0.4194" stop-color="#E6BC5F"/>
<stop offset="0.4902" stop-color="#F2CB6D"/>
<stop offset="0.5472" stop-color="#EBC365"/>
<stop offset="0.6297" stop-color="#D9AC4F"/>
<stop offset="0.7272" stop-color="#BE8A31"/>
<stop offset="0.778" stop-color="#AF7722"/>
<stop offset="0.8199" stop-color="#B37C25"/>
<stop offset="0.820843" stop-color="#FFD86E"/>
<stop offset="0.8709" stop-color="#BF8A2F"/>
<stop offset="0.9265" stop-color="#D5A443"/>
<stop offset="0.9851" stop-color="#F6CC64"/>
</linearGradient>
<linearGradient id="paint19_linear_3_10963" x1="4.05731" y1="6.78389" x2="16.0134" y2="17.1538" gradientUnits="userSpaceOnUse">
<stop stop-color="#FFD86E"/>
<stop offset="0.00222354" stop-color="#FDD56C"/>
<stop offset="0.0335753" stop-color="#DFB04C"/>
<stop offset="0.0663694" stop-color="#C89637"/>
<stop offset="0.1008" stop-color="#BA842A"/>
<stop offset="0.138" stop-color="#B17A24"/>
<stop offset="0.1829" stop-color="#AF7722"/>
<stop offset="0.2911" stop-color="#C9973C"/>
<stop offset="0.4194" stop-color="#E6BC5F"/>
<stop offset="0.4902" stop-color="#F2CB6D"/>
<stop offset="0.5472" stop-color="#EBC365"/>
<stop offset="0.6297" stop-color="#D9AC4F"/>
<stop offset="0.7272" stop-color="#BE8A31"/>
<stop offset="0.778" stop-color="#AF7722"/>
<stop offset="0.8199" stop-color="#B37C25"/>
<stop offset="0.820843" stop-color="#FFD86E"/>
<stop offset="0.8709" stop-color="#BF8A2F"/>
<stop offset="0.9265" stop-color="#D5A443"/>
<stop offset="0.9851" stop-color="#F6CC64"/>
</linearGradient>
<linearGradient id="paint20_linear_3_10963" x1="5.11099" y1="8.34656" x2="11.9073" y2="13.063" gradientUnits="userSpaceOnUse">
<stop stop-color="#FFD86E"/>
<stop offset="0.00222354" stop-color="#FDD56C"/>
<stop offset="0.0335753" stop-color="#DFB04C"/>
<stop offset="0.0663694" stop-color="#C89637"/>
<stop offset="0.1008" stop-color="#BA842A"/>
<stop offset="0.138" stop-color="#B17A24"/>
<stop offset="0.1829" stop-color="#AF7722"/>
<stop offset="0.2911" stop-color="#C9973C"/>
<stop offset="0.4194" stop-color="#E6BC5F"/>
<stop offset="0.4902" stop-color="#F2CB6D"/>
<stop offset="0.5472" stop-color="#EBC365"/>
<stop offset="0.6297" stop-color="#D9AC4F"/>
<stop offset="0.7272" stop-color="#BE8A31"/>
<stop offset="0.778" stop-color="#AF7722"/>
<stop offset="0.8199" stop-color="#B37C25"/>
<stop offset="0.820843" stop-color="#FFD86E"/>
<stop offset="0.8709" stop-color="#BF8A2F"/>
<stop offset="0.9265" stop-color="#D5A443"/>
<stop offset="0.9851" stop-color="#F6CC64"/>
</linearGradient>
<linearGradient id="paint21_linear_3_10963" x1="5.11099" y1="8.34656" x2="11.9073" y2="13.063" gradientUnits="userSpaceOnUse">
<stop stop-color="#FFD86E"/>
<stop offset="0.00222354" stop-color="#FDD56C"/>
<stop offset="0.0335753" stop-color="#DFB04C"/>
<stop offset="0.0663694" stop-color="#C89637"/>
<stop offset="0.1008" stop-color="#BA842A"/>
<stop offset="0.138" stop-color="#B17A24"/>
<stop offset="0.1829" stop-color="#AF7722"/>
<stop offset="0.2911" stop-color="#C9973C"/>
<stop offset="0.4194" stop-color="#E6BC5F"/>
<stop offset="0.4902" stop-color="#F2CB6D"/>
<stop offset="0.5472" stop-color="#EBC365"/>
<stop offset="0.6297" stop-color="#D9AC4F"/>
<stop offset="0.7272" stop-color="#BE8A31"/>
<stop offset="0.778" stop-color="#AF7722"/>
<stop offset="0.8199" stop-color="#B37C25"/>
<stop offset="0.820843" stop-color="#FFD86E"/>
<stop offset="0.8709" stop-color="#BF8A2F"/>
<stop offset="0.9265" stop-color="#D5A443"/>
<stop offset="0.9851" stop-color="#F6CC64"/>
</linearGradient>
<linearGradient id="paint22_linear_3_10963" x1="5.11099" y1="8.34656" x2="11.9073" y2="13.063" gradientUnits="userSpaceOnUse">
<stop stop-color="#FFD86E"/>
<stop offset="0.00222354" stop-color="#FDD56C"/>
<stop offset="0.0335753" stop-color="#DFB04C"/>
<stop offset="0.0663694" stop-color="#C89637"/>
<stop offset="0.1008" stop-color="#BA842A"/>
<stop offset="0.138" stop-color="#B17A24"/>
<stop offset="0.1829" stop-color="#AF7722"/>
<stop offset="0.2911" stop-color="#C9973C"/>
<stop offset="0.4194" stop-color="#E6BC5F"/>
<stop offset="0.4902" stop-color="#F2CB6D"/>
<stop offset="0.5472" stop-color="#EBC365"/>
<stop offset="0.6297" stop-color="#D9AC4F"/>
<stop offset="0.7272" stop-color="#BE8A31"/>
<stop offset="0.778" stop-color="#AF7722"/>
<stop offset="0.8199" stop-color="#B37C25"/>
<stop offset="0.820843" stop-color="#FFD86E"/>
<stop offset="0.8709" stop-color="#BF8A2F"/>
<stop offset="0.9265" stop-color="#D5A443"/>
<stop offset="0.9851" stop-color="#F6CC64"/>
</linearGradient>
<linearGradient id="paint23_linear_3_10963" x1="5.11099" y1="8.34656" x2="11.9073" y2="13.063" gradientUnits="userSpaceOnUse">
<stop stop-color="#FFD86E"/>
<stop offset="0.00222354" stop-color="#FDD56C"/>
<stop offset="0.0335753" stop-color="#DFB04C"/>
<stop offset="0.0663694" stop-color="#C89637"/>
<stop offset="0.1008" stop-color="#BA842A"/>
<stop offset="0.138" stop-color="#B17A24"/>
<stop offset="0.1829" stop-color="#AF7722"/>
<stop offset="0.2911" stop-color="#C9973C"/>
<stop offset="0.4194" stop-color="#E6BC5F"/>
<stop offset="0.4902" stop-color="#F2CB6D"/>
<stop offset="0.5472" stop-color="#EBC365"/>
<stop offset="0.6297" stop-color="#D9AC4F"/>
<stop offset="0.7272" stop-color="#BE8A31"/>
<stop offset="0.778" stop-color="#AF7722"/>
<stop offset="0.8199" stop-color="#B37C25"/>
<stop offset="0.820843" stop-color="#FFD86E"/>
<stop offset="0.8709" stop-color="#BF8A2F"/>
<stop offset="0.9265" stop-color="#D5A443"/>
<stop offset="0.9851" stop-color="#F6CC64"/>
</linearGradient>
<linearGradient id="paint24_linear_3_10963" x1="14.5235" y1="6.98966" x2="22.2681" y2="11.3533" gradientUnits="userSpaceOnUse">
<stop stop-color="#FFD86E"/>
<stop offset="0.00222354" stop-color="#FDD56C"/>
<stop offset="0.0335753" stop-color="#DFB04C"/>
<stop offset="0.0663694" stop-color="#C89637"/>
<stop offset="0.1008" stop-color="#BA842A"/>
<stop offset="0.138" stop-color="#B17A24"/>
<stop offset="0.1829" stop-color="#AF7722"/>
<stop offset="0.2911" stop-color="#C9973C"/>
<stop offset="0.4194" stop-color="#E6BC5F"/>
<stop offset="0.4902" stop-color="#F2CB6D"/>
<stop offset="0.5472" stop-color="#EBC365"/>
<stop offset="0.6297" stop-color="#D9AC4F"/>
<stop offset="0.7272" stop-color="#BE8A31"/>
<stop offset="0.778" stop-color="#AF7722"/>
<stop offset="0.8199" stop-color="#B37C25"/>
<stop offset="0.820843" stop-color="#FFD86E"/>
<stop offset="0.8709" stop-color="#BF8A2F"/>
<stop offset="0.9265" stop-color="#D5A443"/>
<stop offset="0.9851" stop-color="#F6CC64"/>
</linearGradient>
<linearGradient id="paint25_linear_3_10963" x1="14.5235" y1="6.98966" x2="22.2681" y2="11.3533" gradientUnits="userSpaceOnUse">
<stop stop-color="#FFD86E"/>
<stop offset="0.00222354" stop-color="#FDD56C"/>
<stop offset="0.0335753" stop-color="#DFB04C"/>
<stop offset="0.0663694" stop-color="#C89637"/>
<stop offset="0.1008" stop-color="#BA842A"/>
<stop offset="0.138" stop-color="#B17A24"/>
<stop offset="0.1829" stop-color="#AF7722"/>
<stop offset="0.2911" stop-color="#C9973C"/>
<stop offset="0.4194" stop-color="#E6BC5F"/>
<stop offset="0.4902" stop-color="#F2CB6D"/>
<stop offset="0.5472" stop-color="#EBC365"/>
<stop offset="0.6297" stop-color="#D9AC4F"/>
<stop offset="0.7272" stop-color="#BE8A31"/>
<stop offset="0.778" stop-color="#AF7722"/>
<stop offset="0.8199" stop-color="#B37C25"/>
<stop offset="0.820843" stop-color="#FFD86E"/>
<stop offset="0.8709" stop-color="#BF8A2F"/>
<stop offset="0.9265" stop-color="#D5A443"/>
<stop offset="0.9851" stop-color="#F6CC64"/>
</linearGradient>
<linearGradient id="paint26_linear_3_10963" x1="0.028192" y1="7.60267" x2="0.0385746" y2="7.60292" gradientUnits="userSpaceOnUse">
<stop stop-color="#FFD86E"/>
<stop offset="0.00222354" stop-color="#FDD56C"/>
<stop offset="0.0335753" stop-color="#DFB04C"/>
<stop offset="0.0663694" stop-color="#C89637"/>
<stop offset="0.1008" stop-color="#BA842A"/>
<stop offset="0.138" stop-color="#B17A24"/>
<stop offset="0.1829" stop-color="#AF7722"/>
<stop offset="0.2911" stop-color="#C9973C"/>
<stop offset="0.4194" stop-color="#E6BC5F"/>
<stop offset="0.4902" stop-color="#F2CB6D"/>
<stop offset="0.5472" stop-color="#EBC365"/>
<stop offset="0.6297" stop-color="#D9AC4F"/>
<stop offset="0.7272" stop-color="#BE8A31"/>
<stop offset="0.778" stop-color="#AF7722"/>
<stop offset="0.8199" stop-color="#B37C25"/>
<stop offset="0.820843" stop-color="#FFD86E"/>
<stop offset="0.8709" stop-color="#BF8A2F"/>
<stop offset="0.9265" stop-color="#D5A443"/>
<stop offset="0.9851" stop-color="#F6CC64"/>
</linearGradient>
<linearGradient id="paint27_linear_3_10963" x1="-0.318036" y1="11.0732" x2="2.06827" y2="17.2969" gradientUnits="userSpaceOnUse">
<stop stop-color="#FFD86E"/>
<stop offset="0.00222354" stop-color="#FDD56C"/>
<stop offset="0.0335753" stop-color="#DFB04C"/>
<stop offset="0.0663694" stop-color="#C89637"/>
<stop offset="0.1008" stop-color="#BA842A"/>
<stop offset="0.138" stop-color="#B17A24"/>
<stop offset="0.1829" stop-color="#AF7722"/>
<stop offset="0.2911" stop-color="#C9973C"/>
<stop offset="0.4194" stop-color="#E6BC5F"/>
<stop offset="0.4902" stop-color="#F2CB6D"/>
<stop offset="0.5472" stop-color="#EBC365"/>
<stop offset="0.6297" stop-color="#D9AC4F"/>
<stop offset="0.7272" stop-color="#BE8A31"/>
<stop offset="0.778" stop-color="#AF7722"/>
<stop offset="0.8199" stop-color="#B37C25"/>
<stop offset="0.820843" stop-color="#FFD86E"/>
<stop offset="0.8709" stop-color="#BF8A2F"/>
<stop offset="0.9265" stop-color="#D5A443"/>
<stop offset="0.9851" stop-color="#F6CC64"/>
</linearGradient>
<linearGradient id="paint28_linear_3_10963" x1="-0.318036" y1="11.0732" x2="2.06827" y2="17.2969" gradientUnits="userSpaceOnUse">
<stop stop-color="#FFD86E"/>
<stop offset="0.00222354" stop-color="#FDD56C"/>
<stop offset="0.0335753" stop-color="#DFB04C"/>
<stop offset="0.0663694" stop-color="#C89637"/>
<stop offset="0.1008" stop-color="#BA842A"/>
<stop offset="0.138" stop-color="#B17A24"/>
<stop offset="0.1829" stop-color="#AF7722"/>
<stop offset="0.2911" stop-color="#C9973C"/>
<stop offset="0.4194" stop-color="#E6BC5F"/>
<stop offset="0.4902" stop-color="#F2CB6D"/>
<stop offset="0.5472" stop-color="#EBC365"/>
<stop offset="0.6297" stop-color="#D9AC4F"/>
<stop offset="0.7272" stop-color="#BE8A31"/>
<stop offset="0.778" stop-color="#AF7722"/>
<stop offset="0.8199" stop-color="#B37C25"/>
<stop offset="0.820843" stop-color="#FFD86E"/>
<stop offset="0.8709" stop-color="#BF8A2F"/>
<stop offset="0.9265" stop-color="#D5A443"/>
<stop offset="0.9851" stop-color="#F6CC64"/>
</linearGradient>
<linearGradient id="paint29_linear_3_10963" x1="-0.318036" y1="11.0732" x2="2.06827" y2="17.2969" gradientUnits="userSpaceOnUse">
<stop stop-color="#FFD86E"/>
<stop offset="0.00222354" stop-color="#FDD56C"/>
<stop offset="0.0335753" stop-color="#DFB04C"/>
<stop offset="0.0663694" stop-color="#C89637"/>
<stop offset="0.1008" stop-color="#BA842A"/>
<stop offset="0.138" stop-color="#B17A24"/>
<stop offset="0.1829" stop-color="#AF7722"/>
<stop offset="0.2911" stop-color="#C9973C"/>
<stop offset="0.4194" stop-color="#E6BC5F"/>
<stop offset="0.4902" stop-color="#F2CB6D"/>
<stop offset="0.5472" stop-color="#EBC365"/>
<stop offset="0.6297" stop-color="#D9AC4F"/>
<stop offset="0.7272" stop-color="#BE8A31"/>
<stop offset="0.778" stop-color="#AF7722"/>
<stop offset="0.8199" stop-color="#B37C25"/>
<stop offset="0.820843" stop-color="#FFD86E"/>
<stop offset="0.8709" stop-color="#BF8A2F"/>
<stop offset="0.9265" stop-color="#D5A443"/>
<stop offset="0.9851" stop-color="#F6CC64"/>
</linearGradient>
<linearGradient id="paint30_linear_3_10963" x1="-0.318036" y1="11.0732" x2="2.06827" y2="17.2969" gradientUnits="userSpaceOnUse">
<stop stop-color="#FFD86E"/>
<stop offset="0.00222354" stop-color="#FDD56C"/>
<stop offset="0.0335753" stop-color="#DFB04C"/>
<stop offset="0.0663694" stop-color="#C89637"/>
<stop offset="0.1008" stop-color="#BA842A"/>
<stop offset="0.138" stop-color="#B17A24"/>
<stop offset="0.1829" stop-color="#AF7722"/>
<stop offset="0.2911" stop-color="#C9973C"/>
<stop offset="0.4194" stop-color="#E6BC5F"/>
<stop offset="0.4902" stop-color="#F2CB6D"/>
<stop offset="0.5472" stop-color="#EBC365"/>
<stop offset="0.6297" stop-color="#D9AC4F"/>
<stop offset="0.7272" stop-color="#BE8A31"/>
<stop offset="0.778" stop-color="#AF7722"/>
<stop offset="0.8199" stop-color="#B37C25"/>
<stop offset="0.820843" stop-color="#FFD86E"/>
<stop offset="0.8709" stop-color="#BF8A2F"/>
<stop offset="0.9265" stop-color="#D5A443"/>
<stop offset="0.9851" stop-color="#F6CC64"/>
</linearGradient>
<linearGradient id="paint31_linear_3_10963" x1="-0.318036" y1="11.0732" x2="2.06827" y2="17.2969" gradientUnits="userSpaceOnUse">
<stop stop-color="#FFD86E"/>
<stop offset="0.00222354" stop-color="#FDD56C"/>
<stop offset="0.0335753" stop-color="#DFB04C"/>
<stop offset="0.0663694" stop-color="#C89637"/>
<stop offset="0.1008" stop-color="#BA842A"/>
<stop offset="0.138" stop-color="#B17A24"/>
<stop offset="0.1829" stop-color="#AF7722"/>
<stop offset="0.2911" stop-color="#C9973C"/>
<stop offset="0.4194" stop-color="#E6BC5F"/>
<stop offset="0.4902" stop-color="#F2CB6D"/>
<stop offset="0.5472" stop-color="#EBC365"/>
<stop offset="0.6297" stop-color="#D9AC4F"/>
<stop offset="0.7272" stop-color="#BE8A31"/>
<stop offset="0.778" stop-color="#AF7722"/>
<stop offset="0.8199" stop-color="#B37C25"/>
<stop offset="0.820843" stop-color="#FFD86E"/>
<stop offset="0.8709" stop-color="#BF8A2F"/>
<stop offset="0.9265" stop-color="#D5A443"/>
<stop offset="0.9851" stop-color="#F6CC64"/>
</linearGradient>
<linearGradient id="paint32_linear_3_10963" x1="-0.318036" y1="11.0732" x2="2.06827" y2="17.2969" gradientUnits="userSpaceOnUse">
<stop stop-color="#FFD86E"/>
<stop offset="0.00222354" stop-color="#FDD56C"/>
<stop offset="0.0335753" stop-color="#DFB04C"/>
<stop offset="0.0663694" stop-color="#C89637"/>
<stop offset="0.1008" stop-color="#BA842A"/>
<stop offset="0.138" stop-color="#B17A24"/>
<stop offset="0.1829" stop-color="#AF7722"/>
<stop offset="0.2911" stop-color="#C9973C"/>
<stop offset="0.4194" stop-color="#E6BC5F"/>
<stop offset="0.4902" stop-color="#F2CB6D"/>
<stop offset="0.5472" stop-color="#EBC365"/>
<stop offset="0.6297" stop-color="#D9AC4F"/>
<stop offset="0.7272" stop-color="#BE8A31"/>
<stop offset="0.778" stop-color="#AF7722"/>
<stop offset="0.8199" stop-color="#B37C25"/>
<stop offset="0.820843" stop-color="#FFD86E"/>
<stop offset="0.8709" stop-color="#BF8A2F"/>
<stop offset="0.9265" stop-color="#D5A443"/>
<stop offset="0.9851" stop-color="#F6CC64"/>
</linearGradient>
<linearGradient id="paint33_linear_3_10963" x1="9.69784" y1="4.33789" x2="9.70991" y2="4.37768" gradientUnits="userSpaceOnUse">
<stop stop-color="#FFD86E"/>
<stop offset="0.00222354" stop-color="#FDD56C"/>
<stop offset="0.0335753" stop-color="#DFB04C"/>
<stop offset="0.0663694" stop-color="#C89637"/>
<stop offset="0.1008" stop-color="#BA842A"/>
<stop offset="0.138" stop-color="#B17A24"/>
<stop offset="0.1829" stop-color="#AF7722"/>
<stop offset="0.2911" stop-color="#C9973C"/>
<stop offset="0.4194" stop-color="#E6BC5F"/>
<stop offset="0.4902" stop-color="#F2CB6D"/>
<stop offset="0.5472" stop-color="#EBC365"/>
<stop offset="0.6297" stop-color="#D9AC4F"/>
<stop offset="0.7272" stop-color="#BE8A31"/>
<stop offset="0.778" stop-color="#AF7722"/>
<stop offset="0.8199" stop-color="#B37C25"/>
<stop offset="0.820843" stop-color="#FFD86E"/>
<stop offset="0.8709" stop-color="#BF8A2F"/>
<stop offset="0.9265" stop-color="#D5A443"/>
<stop offset="0.9851" stop-color="#F6CC64"/>
</linearGradient>
<linearGradient id="paint34_linear_3_10963" x1="-1.64966" y1="8.04054" x2="4.45257" y2="17.5619" gradientUnits="userSpaceOnUse">
<stop stop-color="#FFD86E"/>
<stop offset="0.00222354" stop-color="#FDD56C"/>
<stop offset="0.0335753" stop-color="#DFB04C"/>
<stop offset="0.0663694" stop-color="#C89637"/>
<stop offset="0.1008" stop-color="#BA842A"/>
<stop offset="0.138" stop-color="#B17A24"/>
<stop offset="0.1829" stop-color="#AF7722"/>
<stop offset="0.2911" stop-color="#C9973C"/>
<stop offset="0.4194" stop-color="#E6BC5F"/>
<stop offset="0.4902" stop-color="#F2CB6D"/>
<stop offset="0.5472" stop-color="#EBC365"/>
<stop offset="0.6297" stop-color="#D9AC4F"/>
<stop offset="0.7272" stop-color="#BE8A31"/>
<stop offset="0.778" stop-color="#AF7722"/>
<stop offset="0.8199" stop-color="#B37C25"/>
<stop offset="0.820843" stop-color="#FFD86E"/>
<stop offset="0.8709" stop-color="#BF8A2F"/>
<stop offset="0.9265" stop-color="#D5A443"/>
<stop offset="0.9851" stop-color="#F6CC64"/>
</linearGradient>
<linearGradient id="paint35_linear_3_10963" x1="0.0172056" y1="6.98063" x2="0.0275872" y2="6.9809" gradientUnits="userSpaceOnUse">
<stop stop-color="#FFD86E"/>
<stop offset="0.00222354" stop-color="#FDD56C"/>
<stop offset="0.0335753" stop-color="#DFB04C"/>
<stop offset="0.0663694" stop-color="#C89637"/>
<stop offset="0.1008" stop-color="#BA842A"/>
<stop offset="0.138" stop-color="#B17A24"/>
<stop offset="0.1829" stop-color="#AF7722"/>
<stop offset="0.2911" stop-color="#C9973C"/>
<stop offset="0.4194" stop-color="#E6BC5F"/>
<stop offset="0.4902" stop-color="#F2CB6D"/>
<stop offset="0.5472" stop-color="#EBC365"/>
<stop offset="0.6297" stop-color="#D9AC4F"/>
<stop offset="0.7272" stop-color="#BE8A31"/>
<stop offset="0.778" stop-color="#AF7722"/>
<stop offset="0.8199" stop-color="#B37C25"/>
<stop offset="0.820843" stop-color="#FFD86E"/>
<stop offset="0.8709" stop-color="#BF8A2F"/>
<stop offset="0.9265" stop-color="#D5A443"/>
<stop offset="0.9851" stop-color="#F6CC64"/>
</linearGradient>
<linearGradient id="paint36_linear_3_10963" x1="0.623741" y1="4.32741" x2="0.644267" y2="4.39705" gradientUnits="userSpaceOnUse">
<stop stop-color="#FFD86E"/>
<stop offset="0.00222354" stop-color="#FDD56C"/>
<stop offset="0.0335753" stop-color="#DFB04C"/>
<stop offset="0.0663694" stop-color="#C89637"/>
<stop offset="0.1008" stop-color="#BA842A"/>
<stop offset="0.138" stop-color="#B17A24"/>
<stop offset="0.1829" stop-color="#AF7722"/>
<stop offset="0.2911" stop-color="#C9973C"/>
<stop offset="0.4194" stop-color="#E6BC5F"/>
<stop offset="0.4902" stop-color="#F2CB6D"/>
<stop offset="0.5472" stop-color="#EBC365"/>
<stop offset="0.6297" stop-color="#D9AC4F"/>
<stop offset="0.7272" stop-color="#BE8A31"/>
<stop offset="0.778" stop-color="#AF7722"/>
<stop offset="0.8199" stop-color="#B37C25"/>
<stop offset="0.820843" stop-color="#FFD86E"/>
<stop offset="0.8709" stop-color="#BF8A2F"/>
<stop offset="0.9265" stop-color="#D5A443"/>
<stop offset="0.9851" stop-color="#F6CC64"/>
</linearGradient>
<linearGradient id="paint37_linear_3_10963" x1="10.3935" y1="8.74671" x2="10.406" y2="8.74798" gradientUnits="userSpaceOnUse">
<stop stop-color="#FFD86E"/>
<stop offset="0.00222354" stop-color="#FDD56C"/>
<stop offset="0.0335753" stop-color="#DFB04C"/>
<stop offset="0.0663694" stop-color="#C89637"/>
<stop offset="0.1008" stop-color="#BA842A"/>
<stop offset="0.138" stop-color="#B17A24"/>
<stop offset="0.1829" stop-color="#AF7722"/>
<stop offset="0.2911" stop-color="#C9973C"/>
<stop offset="0.4194" stop-color="#E6BC5F"/>
<stop offset="0.4902" stop-color="#F2CB6D"/>
<stop offset="0.5472" stop-color="#EBC365"/>
<stop offset="0.6297" stop-color="#D9AC4F"/>
<stop offset="0.7272" stop-color="#BE8A31"/>
<stop offset="0.778" stop-color="#AF7722"/>
<stop offset="0.8199" stop-color="#B37C25"/>
<stop offset="0.820843" stop-color="#FFD86E"/>
<stop offset="0.8709" stop-color="#BF8A2F"/>
<stop offset="0.9265" stop-color="#D5A443"/>
<stop offset="0.9851" stop-color="#F6CC64"/>
</linearGradient>
</defs>
</svg>
