<svg width="15" height="15" viewBox="0 0 15 15" fill="none" xmlns="http://www.w3.org/2000/svg">
<path d="M0 7.5C0 3.35815 3.35912 0 7.50097 0C11.6428 0 15.001 3.35815 15.001 7.5C15.001 11.6418 11.6428 15 7.50097 15C3.35912 15 0 11.6428 0 7.5Z" fill="url(#paint0_linear_3_10890)"/>
<path d="M7.50097 15C11.6428 15 15.001 11.6418 15.001 7.5C15.001 3.35815 11.6428 0 7.50097 0C3.35912 0 0 3.35815 0 7.5C0 11.6418 3.35912 15 7.50097 15ZM7.50097 0.111679C11.5748 0.111679 14.8893 3.42613 14.8893 7.5C14.8893 11.5739 11.5748 14.8883 7.50097 14.8883C3.4271 14.8883 0.112651 11.5739 0.112651 7.5C0.112651 3.42613 3.42613 0.111679 7.50097 0.111679Z" fill="url(#paint1_linear_3_10890)"/>
<path style="mix-blend-mode:screen" opacity="0.7" d="M2.24826 9.96769C3.34661 11.9449 4.97421 13.2122 7.39134 13.2122C10.9379 13.2122 13.2229 10.4814 13.2229 6.93487C13.2229 6.53477 14.4485 6.21332 14.5223 6.20361C14.5961 6.62023 14.6359 7.05043 14.6359 7.48938C14.6359 11.4904 11.3914 14.7349 7.39134 14.7349C4.71007 14.7349 2.36868 13.2773 1.11496 11.1107C0.77798 10.4746 2.02685 9.69481 2.24729 9.96867L2.24826 9.96769Z" fill="url(#paint2_linear_3_10890)"/>
<path style="mix-blend-mode:screen" opacity="0.9" d="M3.65348 11.7791C2.03656 10.1961 1.24607 8.29272 1.88507 5.96105C2.82317 2.54075 6.06188 1.05881 9.48218 1.99692C9.86869 2.10277 10.5019 1.0054 10.531 0.938391C10.1484 0.756791 9.74438 0.604324 9.32097 0.488761C5.46172 -0.570737 1.47525 1.70072 0.417696 5.559C-0.291225 8.14414 0.495386 10.7885 2.25312 12.5696C2.77753 13.0629 3.85936 12.0646 3.65446 11.7791H3.65348Z" fill="url(#paint3_linear_3_10890)"/>
<path d="M0.3144 6.20508C-0.862604 14.1265 9.75568 17.7149 13.8276 11.151C9.91591 18.2548 -1.29087 14.1673 0.3144 6.20508Z" fill="white"/>
<g style="mix-blend-mode:color-dodge" opacity="0.4">
<path d="M0.3144 6.20508C-0.862604 14.1265 9.75568 17.7149 13.8276 11.151C9.91591 18.2548 -1.29087 14.1673 0.3144 6.20508Z" fill="white"/>
</g>
<path d="M2.60156 2.11213C6.11121 -0.898353 10.2705 -0.124366 13.0285 2.86864C14.862 4.85945 15.4146 7.98356 13.9822 10.9173C17.9133 3.82423 8.48755 -3.48543 2.60156 2.11213Z" fill="white"/>
<path style="mix-blend-mode:screen" d="M1.875 7.49975C1.875 4.39409 4.39313 1.87402 7.50073 1.87402C10.6083 1.87402 13.1265 4.39312 13.1265 7.49975C13.1265 10.6064 10.6074 13.1255 7.50073 13.1255C4.3941 13.1255 1.875 10.6074 1.875 7.49975Z" fill="url(#paint4_linear_3_10890)"/>
<path d="M7.49976 13.1255C10.6064 13.1255 13.1255 10.6074 13.1255 7.49975C13.1255 4.39215 10.6064 1.87402 7.49976 1.87402C4.39313 1.87402 1.875 4.39409 1.875 7.49975C1.875 10.6054 4.39313 13.1255 7.50073 13.1255H7.49976ZM7.49976 1.9857C10.5394 1.9857 13.0138 4.46013 13.0138 7.49975C13.0138 10.5394 10.5394 13.0138 7.49976 13.0138C4.46013 13.0138 1.98571 10.5394 1.98571 7.49975C1.98571 4.46013 4.45916 1.98667 7.49976 1.98667V1.9857Z" fill="url(#paint5_linear_3_10890)"/>
<path style="mix-blend-mode:multiply" opacity="0.8" d="M3.5918 3.73419C7.79288 -0.396 14.5257 4.36251 12.3863 9.62698C14.9161 4.22461 7.63265 -0.668887 3.5918 3.73419Z" fill="url(#paint6_linear_3_10890)"/>
<path d="M2.09766 7.50051C2.09766 4.51722 4.51673 2.09814 7.50002 2.09814C10.4833 2.09814 12.9024 4.51722 12.9024 7.50051C12.9024 10.4838 10.4833 12.9029 7.50002 12.9029C4.51673 12.9029 2.09766 10.4838 2.09766 7.50051Z" fill="url(#paint7_linear_3_10890)"/>
<g style="mix-blend-mode:multiply">
<path d="M11.7566 12.6499C11.7032 12.6499 11.6498 12.6275 11.6119 12.5838C11.543 12.5042 11.5517 12.3838 11.6314 12.3139C13.0308 11.1009 13.8339 9.34612 13.8339 7.49904C13.8339 6.4376 13.5678 5.38684 13.0638 4.46039C13.0133 4.36716 13.0473 4.25159 13.1405 4.2011C13.2337 4.1506 13.3493 4.18459 13.3998 4.27781C13.9339 5.26059 14.2165 6.37447 14.2165 7.49904C14.2165 9.45682 13.3658 11.3175 11.8829 12.6023C11.8469 12.6334 11.8023 12.6489 11.7576 12.6489L11.7566 12.6499Z" fill="url(#paint8_linear_3_10890)"/>
<path d="M3.16787 12.6504C3.1232 12.6504 3.07852 12.6348 3.04259 12.6038C1.55871 11.319 0.708008 9.45829 0.708008 7.5005C0.708008 6.37497 0.990605 5.26109 1.52472 4.27928C1.57522 4.18605 1.69079 4.15206 1.78401 4.20256C1.87724 4.25306 1.91123 4.36862 1.86073 4.46185C1.35672 5.3883 1.09063 6.43906 1.09063 7.5005C1.09063 9.34758 1.89278 11.1024 3.29314 12.3153C3.37277 12.3843 3.38152 12.5057 3.31257 12.5853C3.27469 12.629 3.22128 12.6513 3.16787 12.6513V12.6504Z" fill="url(#paint9_linear_3_10890)"/>
</g>
<path style="mix-blend-mode:screen" d="M11.6318 12.3149C11.6318 12.3149 11.726 12.2188 11.8921 12.0498C11.9698 11.9604 12.0708 11.8614 12.1718 11.7322C12.2233 11.6681 12.2796 11.6021 12.3349 11.5293C12.3893 11.4564 12.4476 11.3787 12.5078 11.2981C12.5661 11.2165 12.6224 11.1282 12.6826 11.0388C12.7428 10.9495 12.7962 10.8514 12.8564 10.7533C12.9147 10.6543 12.9662 10.5484 13.0225 10.4426C13.074 10.3338 13.1264 10.2231 13.1808 10.1104C13.2274 9.99487 13.2789 9.87931 13.3235 9.75889C13.3634 9.63653 13.4139 9.51708 13.4478 9.39083C13.4857 9.26556 13.5246 9.14028 13.5527 9.01015C13.5867 8.88197 13.612 8.75183 13.6353 8.62073C13.6858 8.3595 13.713 8.09535 13.7324 7.83412C13.7343 7.70399 13.744 7.57192 13.7431 7.44761C13.7392 7.31845 13.7411 7.18832 13.7334 7.06402C13.7236 6.94069 13.7139 6.8193 13.7042 6.69985C13.6887 6.5804 13.6731 6.46386 13.6586 6.35024C13.6178 6.12494 13.577 5.91129 13.5226 5.71804C13.4993 5.62093 13.4721 5.5277 13.443 5.44127C13.4158 5.35387 13.3905 5.27035 13.3663 5.19266C13.308 5.04019 13.2594 4.90618 13.2148 4.79644C13.1196 4.58085 13.0652 4.45752 13.0652 4.45752C13.0652 4.45752 13.1322 4.57503 13.2488 4.7809C13.3022 4.88676 13.3624 5.01689 13.4333 5.16644C13.4915 5.32085 13.5721 5.4908 13.6265 5.68696C13.6926 5.88022 13.744 6.09581 13.7965 6.32402C13.8169 6.43959 13.8392 6.55806 13.8606 6.67848C13.878 6.80084 13.8878 6.92709 13.9023 7.05528C13.913 7.1825 13.915 7.30971 13.9217 7.44082C13.9266 7.57677 13.9198 7.7069 13.9169 7.84286C13.8994 8.11186 13.8732 8.38475 13.8227 8.65375C13.7974 8.78874 13.7703 8.92275 13.7343 9.05385C13.7032 9.1869 13.6625 9.31606 13.6226 9.44522C13.543 9.70257 13.4381 9.94632 13.3323 10.1794C13.274 10.293 13.2206 10.4076 13.1594 10.5144C13.0953 10.6203 13.038 10.7261 12.9739 10.8232C12.9079 10.9204 12.8487 11.0175 12.7836 11.1058C12.7176 11.1942 12.6554 11.2806 12.5923 11.3603C12.5272 11.4389 12.4641 11.5137 12.4049 11.5846C12.3427 11.6536 12.2805 11.7157 12.2242 11.7759C12.1125 11.8973 12.0009 11.9905 11.9164 12.0731C11.828 12.1517 11.7542 12.2081 11.7066 12.2489C11.6581 12.2887 11.6318 12.31 11.6318 12.31V12.3149Z" fill="url(#paint10_linear_3_10890)"/>
<path style="mix-blend-mode:screen" d="M3.04367 12.6043C3.04367 12.6043 3.01648 12.5819 2.96404 12.5392C2.91257 12.4955 2.83488 12.4353 2.74165 12.3518C2.65231 12.2644 2.5348 12.1643 2.41632 12.0362C2.35708 11.9721 2.29105 11.906 2.22501 11.8322C2.16189 11.7565 2.09585 11.6768 2.0269 11.5943C1.95989 11.5088 1.89483 11.4175 1.82491 11.3243C1.75596 11.2301 1.69283 11.1272 1.62291 11.0242C1.55493 10.9203 1.49375 10.8087 1.42675 10.696C1.36265 10.5824 1.30633 10.462 1.24417 10.3406C1.13249 10.0939 1.02179 9.83559 0.937299 9.5627C0.894569 9.42674 0.85184 9.28981 0.818822 9.149C0.780948 9.00916 0.751814 8.86737 0.725594 8.72462C0.672182 8.44008 0.644019 8.15068 0.625568 7.86614C0.623625 7.72242 0.615856 7.58452 0.620712 7.44079C0.62751 7.30289 0.630423 7.16791 0.641106 7.03292C0.656644 6.89696 0.667326 6.76295 0.685777 6.63379C0.709084 6.5056 0.73142 6.37935 0.753756 6.25796C0.80911 6.01615 0.863493 5.78794 0.933414 5.58303C0.990711 5.37521 1.07617 5.19458 1.13735 5.03046C1.21213 4.87217 1.27525 4.7333 1.33158 4.62162C1.45491 4.40311 1.52483 4.27881 1.52483 4.27881C1.52483 4.27881 1.46656 4.40894 1.36459 4.63715C1.31701 4.75272 1.26457 4.8945 1.20242 5.05668C1.1762 5.13923 1.149 5.2276 1.11987 5.31985C1.08879 5.41211 1.06063 5.5102 1.03538 5.61313C0.976144 5.81804 0.933414 6.04431 0.889714 6.28321C0.874176 6.40363 0.857667 6.52696 0.840186 6.65321C0.829504 6.77946 0.819793 6.90862 0.808139 7.03972C0.80037 7.17179 0.801341 7.30969 0.797457 7.44662C0.797457 7.57869 0.806197 7.71951 0.80911 7.85643C0.829504 8.1332 0.858638 8.41386 0.91205 8.69063C0.936328 8.8295 0.963519 8.9674 0.999451 9.10336C1.02956 9.24029 1.07131 9.3743 1.11113 9.50637C1.14803 9.64039 1.20144 9.76761 1.2432 9.89677C1.29079 10.024 1.34517 10.1473 1.3947 10.2697C1.452 10.3891 1.50735 10.5066 1.5627 10.6212C1.62291 10.7329 1.67827 10.8456 1.73945 10.9504C1.80257 11.0543 1.85987 11.1583 1.92396 11.2534C1.98806 11.3476 2.04827 11.4418 2.11042 11.5283C2.17451 11.6137 2.23569 11.6953 2.29299 11.773C2.35223 11.8497 2.41147 11.9196 2.46585 11.9876C2.57364 12.1236 2.68144 12.2294 2.76399 12.3236C2.93976 12.5013 3.04076 12.6033 3.04076 12.6033L3.04367 12.6043Z" fill="url(#paint11_linear_3_10890)"/>
<path d="M11.023 7.07446L9.6352 4.67731C9.54662 4.52499 9.41945 4.39853 9.26641 4.3106C9.11338 4.22267 8.93986 4.17635 8.76322 4.17627H5.98646C5.8099 4.17633 5.63645 4.22265 5.48351 4.31059C5.33057 4.39853 5.20352 4.52499 5.11508 4.67731L3.72968 7.07446C3.64127 7.22696 3.59473 7.39998 3.59473 7.5761C3.59473 7.75222 3.64127 7.92523 3.72968 8.07773L5.11746 10.4737C5.20573 10.6256 5.33243 10.7518 5.48492 10.8396C5.63741 10.9274 5.81035 10.9738 5.98646 10.9741H8.76322C8.93993 10.9741 9.11352 10.9277 9.26656 10.8396C9.41961 10.7516 9.54674 10.625 9.6352 10.4725L11.023 8.07654C11.1112 7.92419 11.1576 7.75139 11.1576 7.5755C11.1576 7.39961 11.1112 7.22682 11.023 7.07446ZM7.59701 6.09732C7.69945 5.91507 7.80607 5.73579 7.9097 5.55413C7.91761 5.53663 7.93083 5.52205 7.94751 5.51246C7.96418 5.50288 7.98347 5.49876 8.00262 5.5007C8.20572 5.5007 8.40942 5.5007 8.61253 5.5007C8.63077 5.4987 8.64918 5.50251 8.66512 5.51157C8.68106 5.52063 8.69372 5.53449 8.70127 5.55116C8.80432 5.73222 8.90974 5.91329 9.01576 6.09316C9.02464 6.10555 9.02941 6.12039 9.02941 6.13561C9.02941 6.15083 9.02464 6.16567 9.01576 6.17805C8.90855 6.3603 8.80491 6.54315 8.69651 6.72481C8.68852 6.73537 8.67841 6.74415 8.66682 6.75059C8.65523 6.75703 8.64242 6.76098 8.62921 6.7622C8.5214 6.76636 8.4136 6.7622 8.30519 6.7622C8.19977 6.7622 8.09375 6.7622 7.98833 6.7622C7.9741 6.76106 7.96029 6.75686 7.94785 6.74989C7.93541 6.74292 7.92463 6.73335 7.91625 6.72184C7.80726 6.54077 7.70243 6.35793 7.59939 6.1739C7.59342 6.16208 7.59011 6.1491 7.5897 6.13587C7.58929 6.12264 7.59178 6.10949 7.59701 6.09732ZM5.14426 6.91655C5.13624 6.90516 5.13194 6.89159 5.13194 6.87767C5.13194 6.86375 5.13624 6.85018 5.14426 6.83879C5.3428 6.50001 5.53995 6.16005 5.73571 5.8189C5.7422 5.80736 5.75206 5.79806 5.76397 5.79223C5.77588 5.7864 5.78929 5.78431 5.80242 5.78624H6.3891C6.58565 5.78624 6.7834 5.78624 6.98055 5.78624C6.9929 5.78518 7.00527 5.78798 7.01595 5.79426C7.02662 5.80054 7.03507 5.80998 7.04011 5.82127C7.23726 6.16321 7.4356 6.50397 7.63215 6.8471C7.63643 6.85641 7.63865 6.86654 7.63865 6.87678C7.63865 6.88702 7.63643 6.89715 7.63215 6.90646C7.4356 7.249 7.23726 7.59035 7.04011 7.93169C7.03507 7.94298 7.02662 7.95243 7.01595 7.9587C7.00527 7.96498 6.9929 7.96778 6.98055 7.96672H5.79408C5.78156 7.967 5.76924 7.96361 5.75865 7.95696C5.74806 7.95031 5.73966 7.94069 5.73452 7.92932C5.53796 7.59054 5.34121 7.25295 5.14426 6.91655ZM6.75242 9.94891H6.70775C6.48857 9.94891 6.26878 9.94891 6.05258 9.94891C6.04056 9.95023 6.02842 9.94787 6.01778 9.94214C6.00714 9.93641 5.99851 9.92759 5.99302 9.91686C5.87389 9.71205 5.75477 9.50783 5.63922 9.30421C5.63163 9.29153 5.62829 9.27676 5.62969 9.26206L6.76493 9.93407C6.7612 9.93877 6.75782 9.94373 6.75481 9.94891H6.75242ZM7.15089 9.65209C7.10503 9.73164 7.10503 9.73164 7.02581 9.68474C6.58903 9.4271 6.15066 9.16985 5.71069 8.913L5.65113 8.87797L5.86734 8.50397L7.31707 9.36298L7.15089 9.65209ZM6.18778 8.2867C6.18778 8.28313 6.18778 8.28017 6.19195 8.27601C6.20201 8.27441 6.21215 8.27341 6.22233 8.27304C6.46057 8.27304 6.7018 8.27304 6.94123 8.27304C6.95134 8.27338 6.96126 8.27589 6.9703 8.2804C6.97935 8.28491 6.98731 8.29131 6.99365 8.29916C7.1223 8.51763 7.24857 8.73668 7.37544 8.95574C7.38155 8.96779 7.38672 8.9803 7.39092 8.99314L6.18778 8.2867ZM9.76147 8.18696C9.56532 8.52059 9.37094 8.85502 9.17836 9.19023C9.17214 9.20337 9.16198 9.21425 9.14928 9.22138C9.13659 9.2285 9.12198 9.23152 9.10748 9.23C8.91153 9.23 8.71617 9.23 8.52081 9.23C8.32842 9.23 8.13604 9.23 7.94365 9.23C7.92836 9.23174 7.91291 9.22866 7.89945 9.22121C7.886 9.21376 7.87521 9.20231 7.86861 9.18845C7.67324 8.84948 7.4761 8.5111 7.28073 8.17153C7.27674 8.16214 7.27468 8.15205 7.27468 8.14185C7.27468 8.13165 7.27674 8.12155 7.28073 8.11216C7.47669 7.77141 7.67444 7.43184 7.87039 7.09049C7.87666 7.07736 7.88681 7.06645 7.89948 7.05923C7.91215 7.05202 7.92674 7.04884 7.94127 7.05012C8.33001 7.05012 8.71954 7.05012 9.10987 7.05012C9.12356 7.04883 9.13732 7.05179 9.14926 7.05859C9.1612 7.06539 9.17075 7.0757 9.17658 7.08812C9.37075 7.42452 9.56591 7.76092 9.76207 8.09732C9.77072 8.11002 9.77559 8.12489 9.77611 8.14023C9.77664 8.15557 9.7728 8.17074 9.76505 8.18399L9.76147 8.18696Z" fill="url(#paint12_linear_3_10890)" style="mix-blend-mode:multiply"/>
<path d="M11.2163 6.97632L9.82856 4.57916C9.73998 4.42684 9.61281 4.30039 9.45977 4.21246C9.30674 4.12452 9.13322 4.0782 8.95658 4.07812H6.17982C6.00326 4.07819 5.82981 4.12451 5.67687 4.21245C5.52393 4.30038 5.39688 4.42685 5.30844 4.57916L3.92304 6.97632C3.83463 7.12882 3.78809 7.30183 3.78809 7.47795C3.78809 7.65408 3.83463 7.82709 3.92304 7.97959L5.31082 10.3756C5.39908 10.5275 5.52579 10.6536 5.67828 10.7414C5.83077 10.8292 6.00371 10.8756 6.17982 10.876H8.95658C9.13329 10.8759 9.30688 10.8295 9.45992 10.7415C9.61297 10.6534 9.7401 10.5268 9.82856 10.3744L11.2163 7.9784C11.3045 7.82604 11.351 7.65325 11.351 7.47736C11.351 7.30147 11.3045 7.12867 11.2163 6.97632ZM7.79037 5.99917C7.89281 5.81692 7.99943 5.63764 8.10306 5.45599C8.11097 5.43849 8.12419 5.42391 8.14087 5.41432C8.15754 5.40473 8.17683 5.40062 8.19598 5.40256C8.39908 5.40256 8.60278 5.40256 8.80589 5.40256C8.82413 5.40056 8.84254 5.40436 8.85848 5.41343C8.87442 5.42249 8.88708 5.43635 8.89463 5.45302C8.99768 5.63408 9.1031 5.81514 9.20912 5.99502C9.218 6.0074 9.22277 6.02224 9.22277 6.03746C9.22277 6.05268 9.218 6.06752 9.20912 6.07991C9.10191 6.26216 8.99827 6.445 8.88987 6.62666C8.88188 6.63722 8.87177 6.646 8.86018 6.65244C8.84859 6.65888 8.83578 6.66284 8.82257 6.66406C8.71476 6.66822 8.60695 6.66406 8.49855 6.66406C8.39313 6.66406 8.28711 6.66406 8.18168 6.66406C8.16746 6.66291 8.15365 6.65871 8.14121 6.65174C8.12877 6.64478 8.11799 6.63521 8.10961 6.62369C8.00062 6.44263 7.89579 6.25979 7.79275 6.07575C7.78678 6.06393 7.78347 6.05095 7.78306 6.03773C7.78265 6.0245 7.78514 6.01134 7.79037 5.99917ZM5.33762 6.81841C5.3296 6.80702 5.3253 6.79344 5.3253 6.77952C5.3253 6.76561 5.3296 6.75203 5.33762 6.74064C5.53616 6.40187 5.73331 6.0619 5.92907 5.72075C5.93556 5.70922 5.94542 5.69992 5.95733 5.69409C5.96924 5.68826 5.98265 5.68617 5.99578 5.6881H6.58246C6.77901 5.6881 6.97676 5.6881 7.17391 5.6881C7.18626 5.68703 7.19863 5.68984 7.20931 5.69612C7.21998 5.70239 7.22843 5.71184 7.23347 5.72313C7.43062 6.06507 7.62896 6.40582 7.82551 6.74895C7.82979 6.75827 7.83201 6.76839 7.83201 6.77864C7.83201 6.78888 7.82979 6.799 7.82551 6.80832C7.62896 7.15085 7.43062 7.4922 7.23347 7.83355C7.22843 7.84484 7.21998 7.85428 7.20931 7.86056C7.19863 7.86684 7.18626 7.86964 7.17391 7.86857H5.98744C5.97492 7.86886 5.9626 7.86547 5.95201 7.85881C5.94141 7.85216 5.93302 7.84255 5.92788 7.83117C5.73132 7.4924 5.53457 7.15481 5.33762 6.81841ZM6.94578 9.85077H6.90111C6.68193 9.85077 6.46214 9.85077 6.24594 9.85077C6.23392 9.85208 6.22178 9.84972 6.21114 9.84399C6.2005 9.83827 6.19186 9.82945 6.18637 9.81871C6.06725 9.6139 5.94813 9.40969 5.83258 9.20607C5.82499 9.19338 5.82165 9.17862 5.82305 9.16392L6.95829 9.83593C6.95456 9.84063 6.95118 9.84559 6.94816 9.85077H6.94578ZM7.34425 9.55395C7.29839 9.63349 7.29839 9.63349 7.21917 9.5866C6.78239 9.32895 6.34401 9.0717 5.90405 8.81485L5.84449 8.77983L6.0607 8.40583L7.51043 9.26484L7.34425 9.55395ZM6.38114 8.18855C6.38114 8.18499 6.38114 8.18202 6.38531 8.17787C6.39537 8.17626 6.40551 8.17527 6.41568 8.1749C6.65393 8.1749 6.89516 8.1749 7.13459 8.1749C7.1447 8.17524 7.15462 8.17774 7.16366 8.18225C7.17271 8.18676 7.18067 8.19316 7.18701 8.20102C7.31566 8.41948 7.44193 8.63854 7.5688 8.85759C7.57491 8.86965 7.58008 8.88215 7.58428 8.89499L6.38114 8.18855ZM9.95483 8.08882C9.75868 8.42245 9.5643 8.75687 9.37172 9.09209C9.3655 9.10522 9.35534 9.11611 9.34264 9.12323C9.32995 9.13036 9.31534 9.13337 9.30084 9.13186C9.10489 9.13186 8.90953 9.13186 8.71416 9.13186C8.52178 9.13186 8.3294 9.13186 8.13701 9.13186C8.12172 9.13359 8.10627 9.13052 8.09281 9.12307C8.07936 9.11562 8.06857 9.10416 8.06197 9.09031C7.8666 8.75133 7.66946 8.41295 7.47409 8.07338C7.4701 8.064 7.46804 8.0539 7.46804 8.0437C7.46804 8.0335 7.4701 8.02341 7.47409 8.01402C7.67005 7.67326 7.8678 7.3337 8.06375 6.99235C8.07002 6.97921 8.08017 6.9683 8.09284 6.96109C8.10551 6.95387 8.1201 6.95069 8.13463 6.95198C8.52337 6.95198 8.9129 6.95198 9.30323 6.95198C9.31692 6.95069 9.33068 6.95364 9.34262 6.96044C9.35456 6.96725 9.3641 6.97756 9.36994 6.98997C9.56411 7.32638 9.75927 7.66278 9.95543 7.99918C9.96408 8.01187 9.96894 8.02675 9.96947 8.04209C9.97 8.05742 9.96616 8.07259 9.95841 8.08585L9.95483 8.08882Z" fill="url(#paint13_linear_3_10890)" style="mix-blend-mode:screen"/>
<defs>
<linearGradient id="paint0_linear_3_10890" x1="19.6031" y1="17.926" x2="-13.52" y2="-10.6105" gradientUnits="userSpaceOnUse">
<stop stop-color="#FCCF61"/>
<stop offset="0.08" stop-color="white"/>
<stop offset="0.19" stop-color="#F4D271"/>
<stop offset="0.26" stop-color="#D8A73B"/>
<stop offset="0.32" stop-color="#BF8628"/>
<stop offset="0.36" stop-color="#B2761F"/>
<stop offset="0.38" stop-color="#B0741E"/>
<stop offset="0.47" stop-color="#AD701D"/>
<stop offset="0.51" stop-color="#B77D25"/>
<stop offset="0.56" stop-color="#C69133"/>
<stop offset="0.68" stop-color="#F4D15E"/>
<stop offset="0.7" stop-color="#F1CD5C"/>
<stop offset="0.72" stop-color="#E9C355"/>
<stop offset="0.74" stop-color="#DBB24B"/>
<stop offset="0.75" stop-color="#C79A3C"/>
<stop offset="0.77" stop-color="#AE7B29"/>
<stop offset="0.79" stop-color="#905613"/>
<stop offset="0.81" stop-color="#965D17"/>
<stop offset="0.84" stop-color="#A87325"/>
<stop offset="0.88" stop-color="#C4973B"/>
<stop offset="0.92" stop-color="#ECC859"/>
<stop offset="0.94" stop-color="#FAD964"/>
</linearGradient>
<linearGradient id="paint1_linear_3_10890" x1="-2.25398" y1="-4.93623" x2="13.7346" y2="15.4467" gradientUnits="userSpaceOnUse">
<stop stop-color="#D8A73B"/>
<stop offset="0.08" stop-color="#BF8628"/>
<stop offset="0.14" stop-color="#B2761F"/>
<stop offset="0.15" stop-color="#B0741E"/>
<stop offset="0.22" stop-color="#AD701D"/>
<stop offset="0.3" stop-color="#B77D25"/>
<stop offset="0.39" stop-color="#C69133"/>
<stop offset="0.66" stop-color="#905613"/>
<stop offset="0.88" stop-color="#905613"/>
<stop offset="1" stop-color="#3F1400"/>
</linearGradient>
<linearGradient id="paint2_linear_3_10890" x1="10.1921" y1="14.4164" x2="7.67977" y2="8.32261" gradientUnits="userSpaceOnUse">
<stop offset="0.02" stop-color="white"/>
<stop offset="0.29" stop-color="#FAD964"/>
<stop offset="0.56" stop-color="#F4D15E"/>
<stop offset="0.59" stop-color="#BAA049"/>
<stop offset="0.63" stop-color="#847235"/>
<stop offset="0.66" stop-color="#574B24"/>
<stop offset="0.7" stop-color="#342D17"/>
<stop offset="0.73" stop-color="#1B180E"/>
<stop offset="0.76" stop-color="#0C0B08"/>
<stop offset="0.79" stop-color="#070707"/>
</linearGradient>
<linearGradient id="paint3_linear_3_10890" x1="-0.330071" y1="2.41839" x2="7.10098" y2="7.21672" gradientUnits="userSpaceOnUse">
<stop offset="0.02" stop-color="white"/>
<stop offset="0.29" stop-color="#FAD964"/>
<stop offset="0.59" stop-color="#F4D15E"/>
<stop offset="0.65" stop-color="#BAA049"/>
<stop offset="0.72" stop-color="#847235"/>
<stop offset="0.78" stop-color="#574B24"/>
<stop offset="0.84" stop-color="#342D17"/>
<stop offset="0.9" stop-color="#1B180E"/>
<stop offset="0.96" stop-color="#0C0B08"/>
<stop offset="1" stop-color="#070707"/>
</linearGradient>
<linearGradient id="paint4_linear_3_10890" x1="13.6208" y1="15.161" x2="3.74733" y2="2.80339" gradientUnits="userSpaceOnUse">
<stop stop-color="#FCCF61"/>
<stop offset="0.06" stop-color="white"/>
<stop offset="0.19" stop-color="#F4D271"/>
<stop offset="0.37" stop-color="white"/>
<stop offset="0.49" stop-color="#FAD964"/>
<stop offset="0.65" stop-color="#F4D15E"/>
<stop offset="0.76" stop-color="#C5973A"/>
<stop offset="0.87" stop-color="#9E681E"/>
<stop offset="0.92" stop-color="#905613"/>
</linearGradient>
<linearGradient id="paint5_linear_3_10890" x1="8.69618" y1="16.1175" x2="6.61506" y2="1.12723" gradientUnits="userSpaceOnUse">
<stop stop-color="#D8A73B"/>
<stop offset="0.08" stop-color="#BF8628"/>
<stop offset="0.14" stop-color="#B2761F"/>
<stop offset="0.15" stop-color="#B0741E"/>
<stop offset="0.22" stop-color="#AD701D"/>
<stop offset="0.3" stop-color="#B77D25"/>
<stop offset="0.39" stop-color="#C69133"/>
<stop offset="0.66" stop-color="#905613"/>
<stop offset="0.88" stop-color="#905613"/>
<stop offset="1" stop-color="#3F1400"/>
</linearGradient>
<linearGradient id="paint6_linear_3_10890" x1="8.15419" y1="6.48571" x2="11.0338" y2="3.07823" gradientUnits="userSpaceOnUse">
<stop stop-color="white"/>
<stop offset="0.08" stop-color="#EAD8B6"/>
<stop offset="0.17" stop-color="#D7B270"/>
<stop offset="0.23" stop-color="#CA9A43"/>
<stop offset="0.26" stop-color="#C69133"/>
<stop offset="0.66" stop-color="#905613"/>
<stop offset="0.73" stop-color="#884F11"/>
<stop offset="0.83" stop-color="#723D0C"/>
<stop offset="0.95" stop-color="#4E2003"/>
<stop offset="1" stop-color="#3F1400"/>
</linearGradient>
<linearGradient id="paint7_linear_3_10890" x1="0.450628" y1="-0.468539" x2="12.1711" y2="12.7815" gradientUnits="userSpaceOnUse">
<stop stop-color="#FCCF61"/>
<stop offset="0.34" stop-color="#D8A73B"/>
<stop offset="0.49" stop-color="#BA8026"/>
<stop offset="0.58" stop-color="#AD701D"/>
<stop offset="0.67" stop-color="#C28D30"/>
<stop offset="0.86" stop-color="#F4D15E"/>
<stop offset="0.88" stop-color="#EFCB5A"/>
<stop offset="0.91" stop-color="#E1BA50"/>
<stop offset="0.94" stop-color="#CA9E3F"/>
<stop offset="0.98" stop-color="#AB7727"/>
<stop offset="1" stop-color="#905613"/>
</linearGradient>
<linearGradient id="paint8_linear_3_10890" x1="15.3381" y1="12.4848" x2="5.81529" y2="-1.14592" gradientUnits="userSpaceOnUse">
<stop stop-color="#FCCF61"/>
<stop offset="0.28" stop-color="#905613"/>
<stop offset="0.37" stop-color="#965D17"/>
<stop offset="0.51" stop-color="#A87325"/>
<stop offset="0.68" stop-color="#C4973B"/>
<stop offset="0.88" stop-color="#ECC859"/>
<stop offset="0.94" stop-color="#FAD964"/>
</linearGradient>
<linearGradient id="paint9_linear_3_10890" x1="8.49255" y1="17.2661" x2="-1.03031" y2="3.63542" gradientUnits="userSpaceOnUse">
<stop stop-color="#FCCF61"/>
<stop offset="0.28" stop-color="#905613"/>
<stop offset="0.37" stop-color="#965D17"/>
<stop offset="0.51" stop-color="#A87325"/>
<stop offset="0.68" stop-color="#C4973B"/>
<stop offset="0.88" stop-color="#ECC859"/>
<stop offset="0.94" stop-color="#FAD964"/>
</linearGradient>
<linearGradient id="paint10_linear_3_10890" x1="12.7778" y1="8.35076" x2="12.7778" y2="10.359" gradientUnits="userSpaceOnUse">
<stop offset="0.08" stop-color="white"/>
<stop offset="0.36" stop-color="#A77224"/>
</linearGradient>
<linearGradient id="paint11_linear_3_10890" x1="1.83268" y1="8.35074" x2="1.83268" y2="10.359" gradientUnits="userSpaceOnUse">
<stop offset="0.08" stop-color="white"/>
<stop offset="0.36" stop-color="#A77224"/>
</linearGradient>
<linearGradient id="paint12_linear_3_10890" x1="-0.661888" y1="1.25338" x2="6.04655" y2="12.5521" gradientUnits="userSpaceOnUse">
<stop stop-color="#FCCE5D"/>
<stop offset="0.08" stop-color="white"/>
<stop offset="0.19" stop-color="#EBCD76"/>
<stop offset="0.26" stop-color="#CDA240"/>
<stop offset="0.32" stop-color="#B4822D"/>
<stop offset="0.36" stop-color="#A77224"/>
<stop offset="0.38" stop-color="#A57023"/>
<stop offset="0.47" stop-color="#A26C21"/>
<stop offset="0.51" stop-color="#AC792A"/>
<stop offset="0.56" stop-color="#BC8C38"/>
<stop offset="0.68" stop-color="#EACB64"/>
<stop offset="0.7" stop-color="#E7C761"/>
<stop offset="0.72" stop-color="#DEBD5B"/>
<stop offset="0.74" stop-color="#D0AC50"/>
<stop offset="0.75" stop-color="#BC9440"/>
<stop offset="0.77" stop-color="#A3752D"/>
<stop offset="0.79" stop-color="#865216"/>
<stop offset="0.81" stop-color="#8C591B"/>
<stop offset="0.84" stop-color="#9E6F29"/>
<stop offset="0.88" stop-color="#BB9340"/>
<stop offset="0.93" stop-color="#E4C460"/>
<stop offset="0.94" stop-color="#F0D36A"/>
</linearGradient>
<linearGradient id="paint13_linear_3_10890" x1="0.406584" y1="1.55562" x2="7.92294" y2="14.9696" gradientUnits="userSpaceOnUse">
<stop stop-color="#FCCE5D"/>
<stop offset="0.08" stop-color="white"/>
<stop offset="0.19" stop-color="#EBCD76"/>
<stop offset="0.26" stop-color="#CDA240"/>
<stop offset="0.32" stop-color="#B4822D"/>
<stop offset="0.36" stop-color="#A77224"/>
<stop offset="0.38" stop-color="#A57023"/>
<stop offset="0.47" stop-color="#A26C21"/>
<stop offset="0.51" stop-color="#AC792A"/>
<stop offset="0.56" stop-color="#BC8C38"/>
<stop offset="0.68" stop-color="#EACB64"/>
<stop offset="0.7" stop-color="#E7C761"/>
<stop offset="0.72" stop-color="#DEBD5B"/>
<stop offset="0.74" stop-color="#D0AC50"/>
<stop offset="0.75" stop-color="#BC9440"/>
<stop offset="0.77" stop-color="#A3752D"/>
<stop offset="0.79" stop-color="#865216"/>
<stop offset="0.81" stop-color="#8C591B"/>
<stop offset="0.84" stop-color="#9E6F29"/>
<stop offset="0.88" stop-color="#BB9340"/>
<stop offset="0.93" stop-color="#E4C460"/>
<stop offset="0.94" stop-color="#F0D36A"/>
</linearGradient>
</defs>
</svg>
