<svg width="34" height="31" viewBox="0 0 34 31" fill="none" xmlns="http://www.w3.org/2000/svg">
<path d="M33.3949 13.0293L27.1559 2.2525C26.7576 1.56772 26.1859 0.999217 25.4979 0.603905C24.81 0.208594 24.0299 0.000343565 23.2358 0H10.7524C9.95865 0.000272278 9.17889 0.208518 8.49133 0.603861C7.80377 0.999203 7.23256 1.56775 6.83497 2.2525L0.606694 13.0293C0.209256 13.7148 0 14.4927 0 15.2844C0 16.0762 0.209256 16.854 0.606694 17.5396L6.84568 28.311C7.24249 28.9939 7.81211 29.5611 8.49765 29.9559C9.1832 30.3507 9.96067 30.5593 10.7524 30.5609H23.2358C24.0302 30.5605 24.8106 30.352 25.4986 29.9562C26.1867 29.5603 26.7582 28.9912 27.1559 28.3057L33.3949 17.5343C33.7913 16.8493 34 16.0725 34 15.2818C34 14.491 33.7913 13.7142 33.3949 13.0293ZM17.9929 8.63636C18.4534 7.81703 18.9327 7.01104 19.3986 6.19438C19.4342 6.11571 19.4936 6.05018 19.5686 6.00707C19.6436 5.96396 19.7302 5.94545 19.8164 5.95418C20.7294 5.95418 21.6452 5.95418 22.5583 5.95418C22.6403 5.94519 22.7231 5.9623 22.7947 6.00304C22.8664 6.04379 22.9233 6.10609 22.9573 6.18103C23.4205 6.99502 23.8945 7.80902 24.3711 8.61768C24.411 8.67336 24.4325 8.74007 24.4325 8.8085C24.4325 8.87693 24.411 8.94364 24.3711 8.99932C23.8891 9.81866 23.4232 10.6407 22.9359 11.4573C22.8999 11.5048 22.8545 11.5443 22.8024 11.5732C22.7503 11.6022 22.6927 11.62 22.6333 11.6255C22.1486 11.6441 21.664 11.6255 21.1766 11.6255C20.7027 11.6255 20.226 11.6255 19.7521 11.6255C19.6881 11.6203 19.6261 11.6014 19.5701 11.5701C19.5142 11.5388 19.4657 11.4957 19.4281 11.444C18.9381 10.63 18.4668 9.80799 18.0036 8.98065C17.9767 8.9275 17.9619 8.86915 17.96 8.80968C17.9582 8.75021 17.9694 8.69106 17.9929 8.63636ZM6.96618 12.3194C6.93011 12.2682 6.91076 12.2071 6.91076 12.1446C6.91076 12.082 6.93011 12.0209 6.96618 11.9697C7.85874 10.4467 8.74505 8.91837 9.62511 7.38468C9.6543 7.33282 9.69861 7.29102 9.75216 7.2648C9.80572 7.23859 9.86599 7.2292 9.92501 7.23789H12.5625C13.4462 7.23789 14.3352 7.23789 15.2215 7.23789C15.277 7.2331 15.3326 7.24569 15.3806 7.27392C15.4286 7.30214 15.4666 7.3446 15.4892 7.39536C16.3755 8.93261 17.2672 10.4645 18.1508 12.0071C18.1701 12.049 18.1801 12.0945 18.1801 12.1406C18.1801 12.1866 18.1701 12.2321 18.1508 12.274C17.2672 13.8139 16.3755 15.3485 15.4892 16.8831C15.4666 16.9338 15.4286 16.9763 15.3806 17.0045C15.3326 17.0327 15.277 17.0453 15.2215 17.0405H9.88752C9.83125 17.0418 9.77586 17.0266 9.72824 16.9967C9.68062 16.9668 9.64288 16.9235 9.61975 16.8724C8.73612 15.3494 7.8516 13.8317 6.96618 12.3194ZM14.1959 25.9518H13.9951C13.0097 25.9518 12.0216 25.9518 11.0496 25.9518C10.9956 25.9577 10.941 25.9471 10.8932 25.9213C10.8454 25.8956 10.8065 25.8559 10.7819 25.8077C10.2463 24.8869 9.7108 23.9688 9.19133 23.0534C9.1572 22.9964 9.1422 22.93 9.14849 22.8639L14.2521 25.8851C14.2354 25.9062 14.2202 25.9285 14.2066 25.9518H14.1959ZM15.9873 24.6174C15.7811 24.975 15.7811 24.975 15.425 24.7642C13.4613 23.6059 11.4906 22.4494 9.51265 21.2947L9.24488 21.1372L10.2169 19.4558L16.7343 23.3176L15.9873 24.6174ZM11.6575 18.479C11.6575 18.463 11.6575 18.4497 11.6762 18.431C11.7214 18.4238 11.767 18.4193 11.8128 18.4177C12.8838 18.4177 13.9683 18.4177 15.0447 18.4177C15.0902 18.4192 15.1347 18.4305 15.1754 18.4507C15.2161 18.471 15.2519 18.4998 15.2804 18.5351C15.8587 19.5172 16.4264 20.502 16.9968 21.4868C17.0242 21.541 17.0475 21.5972 17.0664 21.655L11.6575 18.479ZM27.7235 18.0307C26.8417 19.5306 25.9679 21.034 25.1021 22.541C25.0741 22.6001 25.0284 22.649 24.9714 22.681C24.9143 22.7131 24.8486 22.7266 24.7834 22.7198C23.9025 22.7198 23.0242 22.7198 22.1459 22.7198C21.281 22.7198 20.4162 22.7198 19.5513 22.7198C19.4825 22.7276 19.413 22.7138 19.3525 22.6803C19.2921 22.6468 19.2436 22.5953 19.2139 22.533C18.3356 21.0091 17.4493 19.4879 16.571 17.9613C16.553 17.9191 16.5438 17.8737 16.5438 17.8278C16.5438 17.782 16.553 17.7366 16.571 17.6944C17.452 16.1625 18.341 14.6359 19.2219 13.1013C19.2501 13.0423 19.2957 12.9932 19.3527 12.9608C19.4096 12.9283 19.4752 12.9141 19.5406 12.9198C21.2882 12.9198 23.0394 12.9198 24.7942 12.9198C24.8557 12.914 24.9176 12.9273 24.9713 12.9579C25.0249 12.9885 25.0678 13.0348 25.0941 13.0907C25.967 14.603 26.8444 16.1153 27.7262 17.6277C27.7651 17.6848 27.787 17.7516 27.7894 17.8206C27.7917 17.8895 27.7745 17.9577 27.7396 18.0173L27.7235 18.0307Z" fill="url(#paint0_linear_150_682)"/>
<defs>
<linearGradient id="paint0_linear_150_682" x1="-5.70803" y1="10.9117" x2="10.9161" y2="40.388" gradientUnits="userSpaceOnUse">
<stop stop-color="#FFD86E"/>
<stop offset="0.00222354" stop-color="#FDD56C"/>
<stop offset="0.0335753" stop-color="#DFB04C"/>
<stop offset="0.0663694" stop-color="#C89637"/>
<stop offset="0.1008" stop-color="#BA842A"/>
<stop offset="0.138" stop-color="#B17A24"/>
<stop offset="0.1829" stop-color="#AF7722"/>
<stop offset="0.2911" stop-color="#C9973C"/>
<stop offset="0.4194" stop-color="#E6BC5F"/>
<stop offset="0.4902" stop-color="#F2CB6D"/>
<stop offset="0.5472" stop-color="#EBC365"/>
<stop offset="0.6297" stop-color="#D9AC4F"/>
<stop offset="0.7272" stop-color="#BE8A31"/>
<stop offset="0.778" stop-color="#AF7722"/>
<stop offset="0.8199" stop-color="#B37C25"/>
<stop offset="0.820843" stop-color="#FFD86E"/>
<stop offset="0.8709" stop-color="#BF8A2F"/>
<stop offset="0.9265" stop-color="#D5A443"/>
<stop offset="0.9851" stop-color="#F6CC64"/>
</linearGradient>
</defs>
</svg>
