<svg width="18" height="16" viewBox="0 0 18 16" fill="none" xmlns="http://www.w3.org/2000/svg">
<path d="M3.09448 9.86087V3.56375H6.17108C6.96271 3.56375 7.55644 3.71368 7.95226 4.01355C8.35408 4.31341 8.55498 4.70923 8.55498 5.201C8.55498 5.53085 8.47402 5.81872 8.31209 6.06461C8.15017 6.3045 7.92827 6.49041 7.6464 6.62235C7.36453 6.75429 7.04068 6.82026 6.67485 6.82026L6.84577 6.45143C7.24159 6.45143 7.59242 6.5174 7.89828 6.64934C8.20414 6.77528 8.44104 6.9642 8.60896 7.21608C8.78288 7.46796 8.86984 7.77682 8.86984 8.14266C8.86984 8.68241 8.65694 9.10522 8.23113 9.41107C7.80533 9.71094 7.17861 9.86087 6.35099 9.86087H3.09448ZM4.54282 8.76337H6.24304C6.62087 8.76337 6.90574 8.7034 7.09765 8.58345C7.29556 8.45751 7.39452 8.2596 7.39452 7.98973C7.39452 7.72585 7.29556 7.53094 7.09765 7.40499C6.90574 7.27305 6.62087 7.20708 6.24304 7.20708H4.43487V6.14557H5.99116C6.345 6.14557 6.61487 6.0856 6.80079 5.96565C6.9927 5.83971 7.08866 5.6508 7.08866 5.39891C7.08866 5.15302 6.9927 4.97011 6.80079 4.85016C6.61487 4.72422 6.345 4.66125 5.99116 4.66125H4.54282V8.76337Z" fill="url(#paint0_linear_3_10952)"/>
<path d="M9.16565 9.86087L11.8734 6.12758V7.18909L9.2826 3.56375H10.9378L12.728 6.09159L12.0353 6.10059L13.7985 3.56375H15.3818L12.809 7.12612V6.0826L15.5347 9.86087H13.8525L11.9994 7.18909H12.665L10.8389 9.86087H9.16565Z" fill="url(#paint1_linear_3_10952)"/>
<path d="M0 0H1.56522V15.1826H0V0Z" fill="url(#paint2_linear_3_10952)"/>
<path d="M16.4348 0H18V15.1826H16.4348V0Z" fill="url(#paint3_linear_3_10952)"/>
<defs>
<linearGradient id="paint0_linear_3_10952" x1="-3.0219" y1="5.4209" x2="4.95812" y2="20.4992" gradientUnits="userSpaceOnUse">
<stop stop-color="#FFD86E"/>
<stop offset="0.00222354" stop-color="#FDD56C"/>
<stop offset="0.0335753" stop-color="#DFB04C"/>
<stop offset="0.0663694" stop-color="#C89637"/>
<stop offset="0.1008" stop-color="#BA842A"/>
<stop offset="0.138" stop-color="#B17A24"/>
<stop offset="0.1829" stop-color="#AF7722"/>
<stop offset="0.2911" stop-color="#C9973C"/>
<stop offset="0.4194" stop-color="#E6BC5F"/>
<stop offset="0.4902" stop-color="#F2CB6D"/>
<stop offset="0.5472" stop-color="#EBC365"/>
<stop offset="0.6297" stop-color="#D9AC4F"/>
<stop offset="0.7272" stop-color="#BE8A31"/>
<stop offset="0.778" stop-color="#AF7722"/>
<stop offset="0.8199" stop-color="#B37C25"/>
<stop offset="0.820843" stop-color="#FFD86E"/>
<stop offset="0.8709" stop-color="#BF8A2F"/>
<stop offset="0.9265" stop-color="#D5A443"/>
<stop offset="0.9851" stop-color="#F6CC64"/>
</linearGradient>
<linearGradient id="paint1_linear_3_10952" x1="-3.0219" y1="5.4209" x2="4.95812" y2="20.4992" gradientUnits="userSpaceOnUse">
<stop stop-color="#FFD86E"/>
<stop offset="0.00222354" stop-color="#FDD56C"/>
<stop offset="0.0335753" stop-color="#DFB04C"/>
<stop offset="0.0663694" stop-color="#C89637"/>
<stop offset="0.1008" stop-color="#BA842A"/>
<stop offset="0.138" stop-color="#B17A24"/>
<stop offset="0.1829" stop-color="#AF7722"/>
<stop offset="0.2911" stop-color="#C9973C"/>
<stop offset="0.4194" stop-color="#E6BC5F"/>
<stop offset="0.4902" stop-color="#F2CB6D"/>
<stop offset="0.5472" stop-color="#EBC365"/>
<stop offset="0.6297" stop-color="#D9AC4F"/>
<stop offset="0.7272" stop-color="#BE8A31"/>
<stop offset="0.778" stop-color="#AF7722"/>
<stop offset="0.8199" stop-color="#B37C25"/>
<stop offset="0.820843" stop-color="#FFD86E"/>
<stop offset="0.8709" stop-color="#BF8A2F"/>
<stop offset="0.9265" stop-color="#D5A443"/>
<stop offset="0.9851" stop-color="#F6CC64"/>
</linearGradient>
<linearGradient id="paint2_linear_3_10952" x1="-3.0219" y1="5.4209" x2="4.95812" y2="20.4992" gradientUnits="userSpaceOnUse">
<stop stop-color="#FFD86E"/>
<stop offset="0.00222354" stop-color="#FDD56C"/>
<stop offset="0.0335753" stop-color="#DFB04C"/>
<stop offset="0.0663694" stop-color="#C89637"/>
<stop offset="0.1008" stop-color="#BA842A"/>
<stop offset="0.138" stop-color="#B17A24"/>
<stop offset="0.1829" stop-color="#AF7722"/>
<stop offset="0.2911" stop-color="#C9973C"/>
<stop offset="0.4194" stop-color="#E6BC5F"/>
<stop offset="0.4902" stop-color="#F2CB6D"/>
<stop offset="0.5472" stop-color="#EBC365"/>
<stop offset="0.6297" stop-color="#D9AC4F"/>
<stop offset="0.7272" stop-color="#BE8A31"/>
<stop offset="0.778" stop-color="#AF7722"/>
<stop offset="0.8199" stop-color="#B37C25"/>
<stop offset="0.820843" stop-color="#FFD86E"/>
<stop offset="0.8709" stop-color="#BF8A2F"/>
<stop offset="0.9265" stop-color="#D5A443"/>
<stop offset="0.9851" stop-color="#F6CC64"/>
</linearGradient>
<linearGradient id="paint3_linear_3_10952" x1="-3.0219" y1="5.4209" x2="4.95812" y2="20.4992" gradientUnits="userSpaceOnUse">
<stop stop-color="#FFD86E"/>
<stop offset="0.00222354" stop-color="#FDD56C"/>
<stop offset="0.0335753" stop-color="#DFB04C"/>
<stop offset="0.0663694" stop-color="#C89637"/>
<stop offset="0.1008" stop-color="#BA842A"/>
<stop offset="0.138" stop-color="#B17A24"/>
<stop offset="0.1829" stop-color="#AF7722"/>
<stop offset="0.2911" stop-color="#C9973C"/>
<stop offset="0.4194" stop-color="#E6BC5F"/>
<stop offset="0.4902" stop-color="#F2CB6D"/>
<stop offset="0.5472" stop-color="#EBC365"/>
<stop offset="0.6297" stop-color="#D9AC4F"/>
<stop offset="0.7272" stop-color="#BE8A31"/>
<stop offset="0.778" stop-color="#AF7722"/>
<stop offset="0.8199" stop-color="#B37C25"/>
<stop offset="0.820843" stop-color="#FFD86E"/>
<stop offset="0.8709" stop-color="#BF8A2F"/>
<stop offset="0.9265" stop-color="#D5A443"/>
<stop offset="0.9851" stop-color="#F6CC64"/>
</linearGradient>
</defs>
</svg>
