<svg width="16" height="16" viewBox="0 0 16 16" fill="none" xmlns="http://www.w3.org/2000/svg">
<path d="M11.331 0.0094614C11.2786 0.0169725 11.1364 0.0430994 11.0129 0.0656328C10.4104 0.170463 9.72542 0.481033 9.20519 0.885331C9.02558 1.0238 8.15346 1.86962 7.26649 2.76051C5.58219 4.45967 5.42511 4.64304 5.13691 5.24573C4.84479 5.86312 4.72494 6.49194 4.75498 7.24044C4.77752 7.80558 4.84855 8.13493 5.05445 8.6514C5.45124 9.6432 6.34196 10.5339 7.33752 10.942L7.6445 11.0654L8.13485 10.5676C8.55025 10.1447 8.64757 10.0248 8.75991 9.78902C8.95079 9.38097 8.95455 9.34357 8.80857 9.34357C8.6252 9.34357 8.14612 9.21262 7.91784 9.10028C6.92228 8.59882 6.42442 7.41973 6.76128 6.34939C6.91477 5.85528 7.00834 5.74686 8.80106 3.96149C10.4104 2.35964 10.504 2.27343 10.7698 2.14623C11.6906 1.71205 12.7047 1.88056 13.4085 2.58792C13.8688 3.04822 14.0822 3.56111 14.0747 4.21605C14.0747 4.68762 13.9624 5.08065 13.7304 5.43237C13.6443 5.55957 13.1241 6.1136 12.5364 6.69735L11.4922 7.73781L11.5631 8.10129C11.6716 8.63654 11.6416 9.55356 11.5031 10.07C11.4507 10.2759 11.4133 10.448 11.4208 10.4556C11.4545 10.4892 12.1432 9.83049 13.5205 8.44191C15.1374 6.81378 15.3095 6.60787 15.5977 6.00534C16.3088 4.50817 16.0618 2.68181 14.9877 1.45781C14.168 0.529693 13.135 0.0393429 11.9298 0.00570583C11.6529 -0.00164127 11.3834 -0.00164223 11.331 0.0094614Z" fill="url(#paint0_linear_3_10984)"/>
<path d="M7.863 5.42568C7.38016 5.91979 7.19679 6.1817 7.11074 6.50729L7.07335 6.64952H7.19304C7.40645 6.64952 7.88162 6.79174 8.15871 6.93772C8.5106 7.12109 8.87734 7.48783 9.06071 7.83971C9.42369 8.52846 9.43872 9.28823 9.10186 9.98056C8.97466 10.2464 8.86983 10.3586 7.31289 11.9193C6.30215 12.9374 5.57617 13.6372 5.43771 13.727C5.08582 13.959 4.69279 14.0714 4.22122 14.0714C3.56628 14.0789 3.0534 13.8655 2.59309 13.4052C1.88574 12.7016 1.71722 11.6835 2.1514 10.7665C2.27485 10.5045 2.36466 10.4072 3.40152 9.36285L4.51693 8.24009L4.45325 7.99679C4.40459 7.80967 4.39333 7.58515 4.39333 7.02361C4.39333 6.34989 4.40084 6.26383 4.4944 5.92697C4.55057 5.72858 4.59548 5.55272 4.59548 5.54145C4.59548 5.47042 4.10513 5.93824 2.71295 7.31932C1.8521 8.17657 1.03616 9.01489 0.9052 9.1834C-0.651737 11.1559 -0.142773 14.0601 1.99057 15.3739C3.41655 16.2498 5.20192 16.2049 6.60913 15.2505C7.04706 14.9548 10.277 11.7173 10.5429 11.3094C11.0744 10.4897 11.2876 9.7113 11.2465 8.7306C11.2239 8.1916 11.1491 7.84722 10.947 7.34202C10.5391 6.32392 9.60707 5.40707 8.59649 5.02531L8.34568 4.93174L7.863 5.42568Z" fill="url(#paint1_linear_3_10984)"/>
<defs>
<linearGradient id="paint0_linear_3_10984" x1="2.8618" y1="7.11477" x2="9.14847" y2="-3.07233" gradientUnits="userSpaceOnUse">
<stop stop-color="#FFD86E"/>
<stop offset="0.00222354" stop-color="#FDD56C"/>
<stop offset="0.0335753" stop-color="#DFB04C"/>
<stop offset="0.0663694" stop-color="#C89637"/>
<stop offset="0.1008" stop-color="#BA842A"/>
<stop offset="0.138" stop-color="#B17A24"/>
<stop offset="0.1829" stop-color="#AF7722"/>
<stop offset="0.2911" stop-color="#C9973C"/>
<stop offset="0.4194" stop-color="#E6BC5F"/>
<stop offset="0.4902" stop-color="#F2CB6D"/>
<stop offset="0.5472" stop-color="#EBC365"/>
<stop offset="0.6297" stop-color="#D9AC4F"/>
<stop offset="0.7272" stop-color="#BE8A31"/>
<stop offset="0.778" stop-color="#AF7722"/>
<stop offset="0.8199" stop-color="#B37C25"/>
<stop offset="0.820843" stop-color="#FFD86E"/>
<stop offset="0.8709" stop-color="#BF8A2F"/>
<stop offset="0.9265" stop-color="#D5A443"/>
<stop offset="0.9851" stop-color="#F6CC64"/>
</linearGradient>
<linearGradient id="paint1_linear_3_10984" x1="-1.88892" y1="12.0481" x2="4.4002" y2="1.85889" gradientUnits="userSpaceOnUse">
<stop stop-color="#FFD86E"/>
<stop offset="0.00222354" stop-color="#FDD56C"/>
<stop offset="0.0335753" stop-color="#DFB04C"/>
<stop offset="0.0663694" stop-color="#C89637"/>
<stop offset="0.1008" stop-color="#BA842A"/>
<stop offset="0.138" stop-color="#B17A24"/>
<stop offset="0.1829" stop-color="#AF7722"/>
<stop offset="0.2911" stop-color="#C9973C"/>
<stop offset="0.4194" stop-color="#E6BC5F"/>
<stop offset="0.4902" stop-color="#F2CB6D"/>
<stop offset="0.5472" stop-color="#EBC365"/>
<stop offset="0.6297" stop-color="#D9AC4F"/>
<stop offset="0.7272" stop-color="#BE8A31"/>
<stop offset="0.778" stop-color="#AF7722"/>
<stop offset="0.8199" stop-color="#B37C25"/>
<stop offset="0.820843" stop-color="#FFD86E"/>
<stop offset="0.8709" stop-color="#BF8A2F"/>
<stop offset="0.9265" stop-color="#D5A443"/>
<stop offset="0.9851" stop-color="#F6CC64"/>
</linearGradient>
</defs>
</svg>
