<svg width="23" height="21" viewBox="0 0 23 21" fill="none" xmlns="http://www.w3.org/2000/svg">
<path d="M22.5906 8.81392L18.3701 1.52375C18.1008 1.06051 17.714 0.675941 17.2486 0.408524C16.7832 0.141107 16.2555 0.000232411 15.7183 0H7.27369C6.73673 0.000184188 6.20925 0.141057 5.74413 0.408494C5.27902 0.675932 4.89262 1.06053 4.62366 1.52375L0.410411 8.81392C0.141555 9.27769 0 9.80386 0 10.3395C0 10.8751 0.141555 11.4013 0.410411 11.865L4.6309 19.1516C4.89933 19.6135 5.28466 19.9972 5.74841 20.2643C6.21216 20.5313 6.7381 20.6725 7.27369 20.6735H15.7183C16.2557 20.6733 16.7836 20.5322 17.2491 20.2645C17.7145 19.9967 18.1011 19.6117 18.3701 19.148L22.5906 11.8614C22.8588 11.3981 23 10.8726 23 10.3377C23 9.80276 22.8588 9.27726 22.5906 8.81392ZM12.1716 5.84225C12.4832 5.28799 12.8074 4.74276 13.1226 4.19031C13.1466 4.1371 13.1869 4.09277 13.2376 4.0636C13.2883 4.03444 13.3469 4.02192 13.4052 4.02783C14.0229 4.02783 14.6423 4.02783 15.26 4.02783C15.3155 4.02175 15.3715 4.03332 15.42 4.06088C15.4684 4.08845 15.5069 4.13059 15.5299 4.18128C15.8433 4.73193 16.1639 5.28257 16.4863 5.82961C16.5133 5.86727 16.5278 5.9124 16.5278 5.95869C16.5278 6.00498 16.5133 6.05011 16.4863 6.08778C16.1603 6.64203 15.8451 7.1981 15.5154 7.75055C15.4911 7.78266 15.4604 7.80937 15.4251 7.82895C15.3899 7.84854 15.3509 7.86057 15.3107 7.86428C14.9829 7.87692 14.655 7.86428 14.3254 7.86428C14.0047 7.86428 13.6823 7.86428 13.3617 7.86428C13.3184 7.8608 13.2765 7.84802 13.2386 7.82683C13.2008 7.80564 13.168 7.77653 13.1425 7.74152C12.811 7.19087 12.4922 6.63481 12.1789 6.07514C12.1607 6.03919 12.1507 5.99972 12.1494 5.95949C12.1482 5.91926 12.1557 5.87925 12.1716 5.84225ZM4.71241 8.33368C4.68802 8.29905 4.67492 8.25775 4.67492 8.21543C4.67492 8.17311 4.68802 8.13182 4.71241 8.09718C5.3162 7.0669 5.91577 6.03302 6.5111 4.99552C6.53085 4.96043 6.56082 4.93216 6.59705 4.91443C6.63328 4.8967 6.67405 4.89034 6.71398 4.89622H8.49818C9.09593 4.89622 9.69731 4.89622 10.2969 4.89622C10.3344 4.89298 10.3721 4.9015 10.4045 4.92059C10.437 4.93969 10.4627 4.96841 10.478 5.00274C11.0776 6.04265 11.6808 7.07894 12.2785 8.12246C12.2915 8.15078 12.2983 8.18157 12.2983 8.21273C12.2983 8.24388 12.2915 8.27467 12.2785 8.303C11.6808 9.34471 11.0776 10.3828 10.478 11.4209C10.4627 11.4552 10.437 11.484 10.4045 11.503C10.3721 11.5221 10.3344 11.5307 10.2969 11.5274H6.68861C6.65055 11.5283 6.61308 11.518 6.58087 11.4977C6.54865 11.4775 6.52312 11.4483 6.50748 11.4137C5.90973 10.3834 5.31137 9.35674 4.71241 8.33368ZM9.60311 17.5556H9.46726C8.80068 17.5556 8.13228 17.5556 7.47475 17.5556C7.4382 17.5596 7.4013 17.5524 7.36894 17.535C7.33658 17.5176 7.31031 17.4908 7.29362 17.4581C6.93134 16.8353 6.56907 16.2142 6.21766 15.595C6.19458 15.5564 6.18443 15.5115 6.18869 15.4668L9.64116 17.5105C9.62982 17.5248 9.61952 17.5399 9.61036 17.5556H9.60311ZM10.8149 16.6529C10.6754 16.8949 10.6755 16.8949 10.4345 16.7522C9.1062 15.9687 7.77303 15.1863 6.43503 14.4052L6.25389 14.2987L6.91142 13.1613L11.3203 15.7737L10.8149 16.6529ZM7.88594 12.5005C7.88594 12.4897 7.88594 12.4807 7.89862 12.468C7.9292 12.4632 7.96004 12.4601 7.99099 12.459C8.71554 12.459 9.44914 12.459 10.1773 12.459C10.2081 12.46 10.2382 12.4677 10.2657 12.4814C10.2932 12.4951 10.3174 12.5146 10.3367 12.5384C10.728 13.2028 11.112 13.869 11.4978 14.5352C11.5164 14.5719 11.5321 14.6099 11.5449 14.6489L7.88594 12.5005ZM18.7542 12.1972C18.1576 13.2119 17.5665 14.2289 16.9808 15.2483C16.9619 15.2883 16.931 15.3214 16.8924 15.3431C16.8538 15.3647 16.8093 15.3739 16.7653 15.3693C16.1693 15.3693 15.5752 15.3693 14.9811 15.3693C14.396 15.3693 13.8109 15.3693 13.2259 15.3693C13.1793 15.3746 13.1323 15.3652 13.0914 15.3426C13.0505 15.3199 13.0177 15.2851 12.9976 15.2429C12.4035 14.212 11.8039 13.183 11.2098 12.1503C11.1976 12.1217 11.1914 12.091 11.1914 12.06C11.1914 12.029 11.1976 11.9983 11.2098 11.9697C11.8057 10.9335 12.4071 9.90076 13.0031 8.86266C13.0221 8.82271 13.053 8.78954 13.0915 8.76759C13.13 8.74565 13.1744 8.73598 13.2186 8.7399C14.4008 8.7399 15.5855 8.7399 16.7725 8.7399C16.8142 8.73596 16.856 8.74496 16.8923 8.76564C16.9286 8.78632 16.9577 8.81769 16.9754 8.85544C17.5659 9.8785 18.1594 10.9016 18.756 11.9246C18.7823 11.9632 18.7971 12.0085 18.7987 12.0551C18.8003 12.1017 18.7886 12.1479 18.765 12.1882L18.7542 12.1972Z" fill="url(#paint0_linear_3_10883)"/>
<defs>
<linearGradient id="paint0_linear_3_10883" x1="-3.86131" y1="7.38142" x2="7.3844" y2="27.3213" gradientUnits="userSpaceOnUse">
<stop stop-color="#FFD86E"/>
<stop offset="0.00222354" stop-color="#FDD56C"/>
<stop offset="0.0335753" stop-color="#DFB04C"/>
<stop offset="0.0663694" stop-color="#C89637"/>
<stop offset="0.1008" stop-color="#BA842A"/>
<stop offset="0.138" stop-color="#B17A24"/>
<stop offset="0.1829" stop-color="#AF7722"/>
<stop offset="0.2911" stop-color="#C9973C"/>
<stop offset="0.4194" stop-color="#E6BC5F"/>
<stop offset="0.4902" stop-color="#F2CB6D"/>
<stop offset="0.5472" stop-color="#EBC365"/>
<stop offset="0.6297" stop-color="#D9AC4F"/>
<stop offset="0.7272" stop-color="#BE8A31"/>
<stop offset="0.778" stop-color="#AF7722"/>
<stop offset="0.8199" stop-color="#B37C25"/>
<stop offset="0.820843" stop-color="#FFD86E"/>
<stop offset="0.8709" stop-color="#BF8A2F"/>
<stop offset="0.9265" stop-color="#D5A443"/>
<stop offset="0.9851" stop-color="#F6CC64"/>
</linearGradient>
</defs>
</svg>
