<svg width="18" height="19" viewBox="0 0 18 19" fill="none" xmlns="http://www.w3.org/2000/svg">
<path d="M7.1008 10.0382C6.93339 9.94889 6.76599 9.87077 6.60416 9.77032C6.4814 9.6922 6.36422 9.60292 6.2582 9.50248C6.2024 9.45226 6.1745 9.36856 6.13544 9.30159C6.11312 9.26811 6.09638 9.22905 6.06848 9.20115C5.98477 9.10629 5.88433 9.02259 5.81179 8.92215C5.75041 8.84403 5.72809 8.738 5.67229 8.64872C5.62764 8.57618 5.62765 8.47016 5.62207 8.38088C5.59975 7.87867 5.62765 7.38204 5.77273 6.89657C5.80621 6.77939 5.86201 6.67894 6.00151 6.66778C6.01825 6.66778 6.03499 6.64546 6.04615 6.62872C6.07963 6.59524 6.10196 6.55618 6.13544 6.5227C6.16892 6.48922 6.19682 6.45574 6.18566 6.40552C6.18008 6.38878 6.19682 6.3553 6.20798 6.34414C6.29726 6.2716 6.38096 6.19905 6.47582 6.13767C6.49814 6.12093 6.53721 6.11535 6.55395 6.12651C6.65997 6.17673 6.73809 6.10977 6.80505 6.05955C7.045 5.89215 7.31284 5.78613 7.60858 5.76939C7.61416 5.76939 7.61974 5.76381 7.63648 5.75823C7.61974 5.66336 7.603 5.5685 7.58068 5.47364C7.54162 5.29508 7.48024 5.12767 7.38538 4.97143C7.3519 4.91563 7.31284 4.87099 7.24588 4.85425C7.1845 4.83751 7.15102 4.79845 7.16218 4.73149C7.16776 4.68126 7.20124 4.64778 7.25146 4.6422C7.31842 4.63662 7.3519 4.6701 7.37422 4.73149C7.39654 4.79287 7.42444 4.85425 7.45792 4.91563C7.61416 5.17232 7.68113 5.45132 7.71461 5.74149C7.71461 5.75265 7.71461 5.76381 7.72019 5.78613C7.78715 5.78055 7.85411 5.77497 7.92107 5.76939C8.36748 5.708 8.81389 5.73032 9.2603 5.78613C9.37748 5.80287 9.37748 5.79729 9.39422 5.68568C9.43886 5.39552 9.51698 5.12209 9.67881 4.87657C9.70671 4.83193 9.72344 4.77613 9.74577 4.72591C9.76809 4.6701 9.80715 4.6422 9.86295 4.64778C9.91875 4.65336 9.95223 4.69243 9.95781 4.74823C9.96339 4.80403 9.93549 4.84867 9.87969 4.86541C9.80157 4.88215 9.75693 4.93795 9.71786 4.99933C9.57836 5.23928 9.50582 5.50154 9.47234 5.78055C9.53372 5.79171 9.58394 5.79729 9.63975 5.80845C9.86295 5.85867 10.0638 5.94795 10.2536 6.08187C10.3205 6.13209 10.3931 6.19347 10.4935 6.14325C10.5158 6.13209 10.5549 6.14325 10.5716 6.15441C10.6609 6.22137 10.7502 6.29392 10.8395 6.36646C10.8562 6.37762 10.8729 6.4111 10.8674 6.42784C10.8395 6.51154 10.9176 6.53944 10.9511 6.58966C10.9901 6.63988 11.018 6.69568 11.0962 6.70684C11.1854 6.718 11.2357 6.78497 11.258 6.86867C11.3026 7.04723 11.3584 7.22579 11.3807 7.40436C11.4142 7.70568 11.4198 8.01259 11.431 8.31391C11.4365 8.41994 11.4142 8.52038 11.4031 8.6264C11.3975 8.65988 11.3807 8.69894 11.3528 8.72126C11.3082 8.76032 11.2859 8.79938 11.2747 8.85519C11.2357 8.98911 11.1408 9.08955 11.0348 9.17325C10.9734 9.22347 10.9287 9.27369 10.9008 9.35182C10.8785 9.42436 10.8227 9.49132 10.7669 9.54712C10.5437 9.75916 10.2759 9.89309 10.0025 10.0214C9.97455 10.0326 9.95223 10.0437 9.92433 10.0549C9.91875 10.0549 9.91875 10.0605 9.91317 10.0661C9.94107 10.1498 9.97455 10.2391 10.0025 10.3228C10.0638 10.5069 10.0471 10.546 9.88527 10.6576C9.91875 10.7413 9.94665 10.825 9.98013 10.9087C10.0527 11.0761 10.0862 11.2602 10.1308 11.4332C10.181 11.6397 10.1587 11.8405 10.1029 12.0414C10.0917 12.0805 10.0638 12.1251 10.0415 12.1586C10.0248 12.1809 9.98571 12.1865 9.94665 12.2088C9.94665 12.2367 9.94107 12.287 9.94665 12.3316C9.96339 12.5436 9.84621 12.9342 9.71229 13.1016C9.66765 13.1574 9.62859 13.2133 9.59511 13.2746C9.55046 13.3472 9.47792 13.3639 9.41096 13.3751C9.2882 13.3918 9.16544 13.3918 9.04267 13.3862C9.00361 13.3862 8.96455 13.3472 8.93665 13.3193C8.90875 13.297 8.89759 13.2635 8.87527 13.2356C8.75809 13.057 8.54604 12.99 8.35074 13.0849C8.28936 13.1184 8.22798 13.1798 8.18892 13.2412C8.12196 13.3639 8.02709 13.4141 7.88759 13.403C7.77041 13.3918 7.64764 13.3974 7.54162 13.3416C7.50814 13.3249 7.48582 13.297 7.4635 13.2691C7.43002 13.2188 7.40212 13.163 7.36306 13.1184C7.27378 13.0179 7.22356 12.9008 7.19566 12.7724C7.17334 12.6776 7.13427 12.5883 7.12311 12.4934C7.11195 12.3651 7.13428 12.2256 7.11196 12.0972C7.07848 11.8796 7.15102 11.6676 7.14544 11.4499C7.13428 11.4555 7.12869 11.4555 7.12311 11.4611C7.00593 11.5727 6.86643 11.6062 6.71577 11.5615C6.49256 11.4946 6.314 11.3662 6.22472 11.1375C6.20798 11.0928 6.21914 11.037 6.21914 10.9868C6.21914 10.931 6.21914 10.8808 6.22472 10.825C6.2303 10.7134 6.23588 10.6018 6.25262 10.4902C6.2582 10.4455 6.29168 10.3953 6.32516 10.3562C6.3419 10.3339 6.38654 10.306 6.40886 10.3116C6.43118 10.3172 6.4535 10.3562 6.47024 10.3897C6.4814 10.412 6.4814 10.4455 6.49256 10.4623C6.5093 10.4846 6.5372 10.5125 6.5651 10.5181C6.58184 10.5236 6.60416 10.4902 6.6209 10.4678C6.63206 10.4567 6.63765 10.4399 6.65997 10.4009C6.67671 10.4511 6.69345 10.479 6.69345 10.5069C6.71577 10.6576 6.72693 10.8082 6.74925 10.9533C6.76041 11.0203 6.78831 11.0872 6.82737 11.143C6.87201 11.2044 6.92781 11.1988 6.97803 11.143C7.00593 11.1095 7.02825 11.0761 7.03941 11.037C7.08963 10.8975 7.13427 10.7524 7.19008 10.6018C6.92781 10.4344 7.03941 10.2335 7.1008 10.0382Z" fill="url(#paint0_linear_3_12927)"/>
<path d="M1.32185 5.39872L8.50781 1.16436L15.6938 5.39872V13.8737L8.50781 18.108L1.32185 13.8737V5.39872Z" stroke="url(#paint1_linear_3_12927)" stroke-width="0.350515"/>
<defs>
<linearGradient id="paint0_linear_3_12927" x1="4.63872" y1="7.77036" x2="10.2" y2="13.6537" gradientUnits="userSpaceOnUse">
<stop stop-color="#FFD86E"/>
<stop offset="0.00222354" stop-color="#FDD56C"/>
<stop offset="0.0335753" stop-color="#DFB04C"/>
<stop offset="0.0663694" stop-color="#C89637"/>
<stop offset="0.1008" stop-color="#BA842A"/>
<stop offset="0.138" stop-color="#B17A24"/>
<stop offset="0.1829" stop-color="#AF7722"/>
<stop offset="0.2911" stop-color="#C9973C"/>
<stop offset="0.4194" stop-color="#E6BC5F"/>
<stop offset="0.4902" stop-color="#F2CB6D"/>
<stop offset="0.5472" stop-color="#EBC365"/>
<stop offset="0.6297" stop-color="#D9AC4F"/>
<stop offset="0.7272" stop-color="#BE8A31"/>
<stop offset="0.778" stop-color="#AF7722"/>
<stop offset="0.8199" stop-color="#B37C25"/>
<stop offset="0.820843" stop-color="#FFD86E"/>
<stop offset="0.8709" stop-color="#BF8A2F"/>
<stop offset="0.9265" stop-color="#D5A443"/>
<stop offset="0.9851" stop-color="#F6CC64"/>
</linearGradient>
<linearGradient id="paint1_linear_3_12927" x1="-2.8462" y1="7.15588" x2="7.17116" y2="22.7986" gradientUnits="userSpaceOnUse">
<stop stop-color="#FFD86E"/>
<stop offset="0.00222354" stop-color="#FDD56C"/>
<stop offset="0.0335753" stop-color="#DFB04C"/>
<stop offset="0.0663694" stop-color="#C89637"/>
<stop offset="0.1008" stop-color="#BA842A"/>
<stop offset="0.138" stop-color="#B17A24"/>
<stop offset="0.1829" stop-color="#AF7722"/>
<stop offset="0.2911" stop-color="#C9973C"/>
<stop offset="0.4194" stop-color="#E6BC5F"/>
<stop offset="0.4902" stop-color="#F2CB6D"/>
<stop offset="0.5472" stop-color="#EBC365"/>
<stop offset="0.6297" stop-color="#D9AC4F"/>
<stop offset="0.7272" stop-color="#BE8A31"/>
<stop offset="0.778" stop-color="#AF7722"/>
<stop offset="0.8199" stop-color="#B37C25"/>
<stop offset="0.820843" stop-color="#FFD86E"/>
<stop offset="0.8709" stop-color="#BF8A2F"/>
<stop offset="0.9265" stop-color="#D5A443"/>
<stop offset="0.9851" stop-color="#F6CC64"/>
</linearGradient>
</defs>
</svg>
